SplineFontDB: 3.2
FontName: FontAwesome6Free-Solid
FullName: Font Awesome 6 Free Solid
FamilyName: Font Awesome 6 Free Solid
Weight: Black
Copyright: Copyright (c) Font Awesome
Version: 774.00390625 (Font Awesome version: 6.6.0)
ItalicAngle: 0
UnderlinePosition: -49
UnderlineWidth: 25
Ascent: 409
Descent: 103
InvalidEm: 0
sfntRevision: 0x03060100
LayerCount: 2
Layer: 0 1 "+gMyXYgAA" 1
Layer: 1 1 "+Uk2XYgAA" 0
XUID: [1021 556 -873704778 16717238]
StyleMap: 0x0000
FSType: 0
OS2Version: 4
OS2_WeightWidthSlopeOnly: 0
OS2_UseTypoMetrics: 1
CreationTime: 1721057046
ModificationTime: 1728226484
PfmFamily: 17
TTFWeight: 900
TTFWidth: 5
LineGap: 0
VLineGap: 0
Panose: 2 0 9 3 0 0 0 0 0 0
OS2TypoAscent: 459
OS2TypoAOffset: 0
OS2TypoDescent: -75
OS2TypoDOffset: 0
OS2TypoLinegap: 0
OS2WinAscent: 459
OS2WinAOffset: 0
OS2WinDescent: 75
OS2WinDOffset: 0
HheadAscent: 459
HheadAOffset: 0
HheadDescent: -75
HheadDOffset: 0
OS2SubXSize: 332
OS2SubYSize: 358
OS2SubXOff: 0
OS2SubYOff: 71
OS2SupXSize: 332
OS2SupYSize: 358
OS2SupXOff: 0
OS2SupYOff: 245
OS2StrikeYSize: 25
OS2StrikeYPos: 132
OS2CapHeight: 431
OS2XHeight: 321
OS2Vendor: 'AWSM'
OS2CodePages: 00000001.00000000
OS2UnicodeRanges: 00000001.10000000.00000000.00000000
DEI: 91125
ShortTable: maxp 16
  1
  0
  1396
  1923
  21
  0
  0
  1
  0
  1
  1
  0
  0
  0
  0
  0
EndShort
LangName: 1033 "" "" "" "Font Awesome 6 Free Solid-6.6.0" "" "Version 774.00390625 (Font Awesome version: 6.6.0)" "" "" "" "" "The web's most popular icon set and toolkit." "https://fontawesome.com" "" "" "" "" "Font Awesome 6 Free" "Solid"
Encoding: UnicodeFull
UnicodeInterp: none
NameList: AGL For New Fonts
DisplaySize: -48
AntiAlias: 1
FitToEm: 0
WinInfo: 63250 23 8
BeginChars: 1114113 1397

StartChar: .notdef
Encoding: 1114112 -1 0
Width: 384
GlyphClass: 1
Flags: W
LayerCount: 2
Fore
SplineSet
64 58 m 1,0,-1
 154 192 l 1,1,-1
 64 58 l 1,2,-1
 154 192 l 1,3,-1
 64 326 l 1,4,-1
 64 326 l 1,5,-1
 64 58 l 1,6,-1
 64 58 l 1,0,-1
103 0 m 1,7,-1
 282 0 l 1,8,-1
 103 0 l 1,9,-1
 282 0 l 1,10,-1
 192 134 l 1,11,-1
 192 134 l 1,12,-1
 103 0 l 1,13,-1
 103 0 l 1,7,-1
231 192 m 1,14,-1
 320 58 l 1,15,-1
 231 192 l 1,16,-1
 320 58 l 1,17,-1
 320 326 l 1,18,-1
 320 326 l 1,19,-1
 231 192 l 1,20,-1
 231 192 l 1,14,-1
282 384 m 1,21,-1
 103 384 l 1,22,-1
 282 384 l 1,23,-1
 103 384 l 1,24,-1
 192 250 l 1,25,-1
 192 250 l 1,26,-1
 282 384 l 1,27,-1
 282 384 l 1,21,-1
0 400 m 1,28,29
 1 420 1 420 14 434 c 1,30,-1
 14 434 l 1,31,-1
 14 434 l 1,32,33
 28 447 28 447 48 448 c 2,34,-1
 336 448 l 1,35,-1
 336 448 l 1,36,37
 356 447 356 447 370 434 c 0,38,39
 383 420 383 420 384 400 c 2,40,-1
 384 -16 l 1,41,-1
 384 -16 l 1,42,43
 383 -36 383 -36 370 -50 c 0,44,45
 356 -63 356 -63 336 -64 c 2,46,-1
 48 -64 l 1,47,-1
 48 -64 l 1,48,49
 28 -63 28 -63 14 -50 c 0,50,51
 1 -36 1 -36 0 -16 c 2,52,-1
 0 400 l 1,53,-1
 0 400 l 1,28,29
EndSplineSet
EndChar

StartChar: exclamation
Encoding: 33 33 1
AltUni2: 00f12a.ffffffff.0 002757.ffffffff.0 002755.ffffffff.0 00f12a.ffffffff.0 002757.ffffffff.0 002755.ffffffff.0
Width: 128
GlyphClass: 1
Flags: W
LayerCount: 2
Fore
SplineSet
96 384 m 1,0,1
 96 398 96 398 87 407 c 1,2,-1
 87 407 l 1,3,-1
 87 407 l 1,4,5
 78 416 78 416 64 416 c 256,6,7
 50 416 50 416 41 407 c 256,8,9
 32 398 32 398 32 384 c 2,10,-1
 32 128 l 1,11,-1
 32 128 l 1,12,13
 32 114 32 114 41 105 c 256,14,15
 50 96 50 96 64 96 c 256,16,17
 78 96 78 96 87 105 c 256,18,19
 96 114 96 114 96 128 c 2,20,-1
 96 384 l 1,21,-1
 96 384 l 1,0,1
64 -32 m 1,22,23
 87 -31 87 -31 99 -12 c 0,24,25
 109 8 109 8 99 28 c 0,26,27
 87 47 87 47 64 48 c 0,28,29
 41 47 41 47 29 28 c 0,30,31
 19 8 19 8 29 -12 c 0,32,33
 41 -31 41 -31 64 -32 c 1,34,-1
 64 -32 l 1,22,23
EndSplineSet
EndChar

StartChar: hashtag
Encoding: 35 35 2
AltUni2: 00f292.ffffffff.0 00f292.ffffffff.0
Width: 448
GlyphClass: 1
Flags: W
LayerCount: 2
Fore
SplineSet
181 416 m 1,0,1
 195 413 195 413 202 403 c 1,2,-1
 202 403 l 1,3,-1
 202 403 l 1,4,5
 209 392 209 392 208 379 c 2,6,-1
 198 320 l 1,7,-1
 198 320 l 1,8,-1
 293 320 l 1,9,-1
 293 320 l 1,10,-1
 304 389 l 1,11,-1
 304 389 l 1,12,13
 307 403 307 403 317 410 c 0,14,15
 328 417 328 417 341 416 c 0,16,17
 355 413 355 413 362 403 c 0,18,19
 369 392 369 392 367 379 c 2,20,-1
 358 320 l 1,21,-1
 358 320 l 1,22,-1
 416 320 l 1,23,-1
 416 320 l 1,24,25
 430 320 430 320 439 311 c 256,26,27
 448 302 448 302 448 288 c 256,28,29
 448 274 448 274 439 265 c 256,30,31
 430 256 430 256 416 256 c 2,32,-1
 347 256 l 1,33,-1
 347 256 l 1,34,-1
 326 128 l 1,35,-1
 326 128 l 1,36,-1
 384 128 l 1,37,-1
 384 128 l 1,38,39
 398 128 398 128 407 119 c 256,40,41
 416 110 416 110 416 96 c 256,42,43
 416 82 416 82 407 73 c 256,44,45
 398 64 398 64 384 64 c 2,46,-1
 315 64 l 1,47,-1
 315 64 l 1,48,-1
 304 -5 l 1,49,-1
 304 -5 l 1,50,51
 301 -19 301 -19 291 -26 c 0,52,53
 280 -33 280 -33 267 -32 c 0,54,55
 253 -29 253 -29 246 -19 c 0,56,57
 239 -8 239 -8 241 5 c 2,58,-1
 250 64 l 1,59,-1
 250 64 l 1,60,-1
 155 64 l 1,61,-1
 155 64 l 1,62,-1
 144 -5 l 1,63,-1
 144 -5 l 1,64,65
 141 -19 141 -19 131 -26 c 0,66,67
 120 -34 120 -34 107 -32 c 0,68,69
 94 -29 94 -29 86 -19 c 0,70,71
 79 -8 79 -8 81 5 c 2,72,-1
 90 64 l 1,73,-1
 90 64 l 1,74,-1
 32 64 l 1,75,-1
 32 64 l 1,76,77
 18 64 18 64 9 73 c 256,78,79
 0 82 0 82 0 96 c 256,80,81
 0 110 0 110 9 119 c 256,82,83
 18 128 18 128 32 128 c 2,84,-1
 101 128 l 1,85,-1
 101 128 l 1,86,-1
 122 256 l 1,87,-1
 122 256 l 1,88,-1
 64 256 l 1,89,-1
 64 256 l 1,90,91
 50 256 50 256 41 265 c 256,92,93
 32 274 32 274 32 288 c 256,94,95
 32 302 32 302 41 311 c 256,96,97
 50 320 50 320 64 320 c 2,98,-1
 133 320 l 1,99,-1
 133 320 l 1,100,-1
 144 389 l 1,101,-1
 144 389 l 1,102,103
 147 403 147 403 157 410 c 0,104,105
 168 417 168 417 181 416 c 1,106,-1
 181 416 l 1,0,1
187 256 m 1,107,-1
 166 128 l 1,108,-1
 187 256 l 1,109,-1
 166 128 l 1,110,-1
 261 128 l 1,111,-1
 261 128 l 1,112,-1
 282 256 l 1,113,-1
 282 256 l 1,114,-1
 187 256 l 1,115,-1
 187 256 l 1,107,-1
EndSplineSet
EndChar

StartChar: dollar-sign
Encoding: 36 36 3
AltUni2: 01f4b2.ffffffff.0 00f155.ffffffff.0 01f4b2.ffffffff.0 00f155.ffffffff.0
Width: 320
GlyphClass: 1
Flags: W
LayerCount: 2
Fore
SplineSet
160 448 m 1,0,1
 174 448 174 448 183 439 c 1,2,-1
 183 439 l 1,3,-1
 183 439 l 1,4,5
 192 430 192 430 192 416 c 2,6,-1
 192 380 l 1,7,-1
 192 380 l 1,8,9
 194 380 194 380 197 380 c 1,10,11
 197 380 197 380 197 380 c 1,12,13
 198 379 198 379 198 379 c 1,14,-1
 246 371 l 1,15,-1
 246 371 l 1,16,17
 259 368 259 368 266 357 c 0,18,19
 274 347 274 347 272 333 c 0,20,21
 269 320 269 320 258 313 c 0,22,23
 248 306 248 306 234 308 c 2,24,-1
 187 316 l 1,25,-1
 187 316 l 1,26,27
 139 323 139 323 109 310 c 0,28,29
 81 298 81 298 80 282 c 0,30,31
 77 267 77 267 81 262 c 0,32,33
 83 256 83 256 94 249 c 0,34,35
 118 234 118 234 167 222 c 1,36,-1
 170 221 l 1,37,-1
 170 221 l 1,38,39
 171 221 171 221 171 221 c 1,40,41
 193 216 193 216 216 208 c 0,42,43
 240 200 240 200 260 188 c 0,44,45
 282 174 282 174 296 148 c 0,46,47
 308 121 308 121 302 89 c 0,48,49
 296 60 296 60 279 41 c 0,50,51
 261 22 261 22 236 12 c 0,52,53
 216 4 216 4 192 1 c 1,54,-1
 192 -32 l 1,55,-1
 192 -32 l 1,56,57
 192 -46 192 -46 183 -55 c 256,58,59
 174 -64 174 -64 160 -64 c 256,60,61
 146 -64 146 -64 137 -55 c 256,62,63
 128 -46 128 -46 128 -32 c 2,64,-1
 128 3 l 1,65,-1
 128 3 l 1,66,67
 128 3 128 3 127 3 c 1,68,69
 127 3 127 3 127 3 c 1,70,-1
 126 3 l 1,71,-1
 126 3 l 1,72,73
 126 3 126 3 126 3 c 257,74,75
 126 3 126 3 126 3 c 1,76,77
 107 6 107 6 82 13 c 0,78,79
 56 20 56 20 35 29 c 0,80,81
 23 35 23 35 18 47 c 0,82,83
 14 59 14 59 19 71 c 0,84,85
 25 84 25 84 37 88 c 0,86,87
 48 93 48 93 61 88 c 0,88,89
 78 80 78 80 99 74 c 0,90,91
 120 69 120 69 136 66 c 0,92,93
 185 60 185 60 212 71 c 0,94,95
 237 82 237 82 239 100 c 0,96,97
 241 116 241 116 238 121 c 0,98,99
 235 127 235 127 225 134 c 0,100,101
 200 149 200 149 151 160 c 1,102,-1
 148 161 l 1,103,-1
 148 161 l 1,104,105
 148 161 148 161 148 161 c 257,106,107
 148 161 148 161 148 161 c 1,108,109
 147 161 147 161 146 162 c 0,110,111
 124 167 124 167 101 175 c 256,112,113
 78 183 78 183 58 195 c 0,114,115
 36 209 36 209 23 235 c 0,116,117
 10 262 10 262 17 294 c 0,118,119
 22 322 22 322 41 341 c 256,120,121
 60 360 60 360 85 370 c 0,122,123
 105 378 105 378 128 381 c 1,124,-1
 128 416 l 1,125,-1
 128 416 l 1,126,127
 128 430 128 430 137 439 c 256,128,129
 146 448 146 448 160 448 c 1,130,-1
 160 448 l 1,0,1
EndSplineSet
EndChar

StartChar: percent
Encoding: 37 37 4
AltUni2: 00f541.ffffffff.0 00f295.ffffffff.0 00f541.ffffffff.0 00f295.ffffffff.0
Width: 384
GlyphClass: 1
Flags: W
LayerCount: 2
Fore
SplineSet
375 329 m 1,0,1
 384 339 384 339 384 352 c 1,2,-1
 384 352 l 1,3,-1
 384 352 l 1,4,5
 384 365 384 365 375 375 c 0,6,7
 365 384 365 384 352 384 c 256,8,9
 339 384 339 384 329 375 c 2,10,-1
 9 55 l 1,11,-1
 9 55 l 1,12,13
 0 45 0 45 0 32 c 256,14,15
 0 19 0 19 9 9 c 0,16,17
 19 0 19 0 32 0 c 256,18,19
 45 0 45 0 55 9 c 2,20,-1
 375 329 l 1,21,-1
 375 329 l 1,0,1
128 320 m 1,22,23
 127 356 127 356 96 375 c 0,24,25
 64 393 64 393 32 375 c 0,26,27
 1 356 1 356 0 320 c 0,28,29
 1 284 1 284 32 265 c 0,30,31
 64 247 64 247 96 265 c 0,32,33
 127 284 127 284 128 320 c 1,34,-1
 128 320 l 1,22,23
384 64 m 1,35,36
 383 100 383 100 352 119 c 0,37,38
 320 137 320 137 288 119 c 0,39,40
 257 100 257 100 256 64 c 0,41,42
 257 28 257 28 288 9 c 0,43,44
 320 -9 320 -9 352 9 c 0,45,46
 383 28 383 28 384 64 c 1,47,-1
 384 64 l 1,35,36
EndSplineSet
EndChar

StartChar: asterisk
Encoding: 42 42 5
AltUni2: 00f069.ffffffff.0 002731.ffffffff.0 00f069.ffffffff.0 002731.ffffffff.0
Width: 384
GlyphClass: 1
Flags: W
LayerCount: 2
Fore
SplineSet
192 416 m 1,0,1
 206 416 206 416 215 407 c 1,2,-1
 215 407 l 1,3,-1
 215 407 l 1,4,5
 224 398 224 398 224 384 c 2,6,-1
 224 248 l 1,7,-1
 224 248 l 1,8,-1
 336 315 l 1,9,-1
 336 315 l 1,10,11
 347 322 347 322 360 319 c 0,12,13
 372 316 372 316 379 304 c 0,14,15
 386 293 386 293 383 280 c 0,16,17
 380 268 380 268 368 260 c 2,18,-1
 254 192 l 1,19,-1
 254 192 l 1,20,-1
 369 123 l 1,21,-1
 369 123 l 1,22,23
 380 116 380 116 383 104 c 0,24,25
 386 91 386 91 380 79 c 0,26,27
 372 68 372 68 360 65 c 0,28,29
 347 62 347 62 336 68 c 2,30,-1
 224 135 l 1,31,-1
 224 135 l 1,32,-1
 224 0 l 1,33,-1
 224 0 l 1,34,35
 224 -14 224 -14 215 -23 c 256,36,37
 206 -32 206 -32 192 -32 c 256,38,39
 178 -32 178 -32 169 -23 c 256,40,41
 160 -14 160 -14 160 0 c 2,42,-1
 160 135 l 1,43,-1
 160 135 l 1,44,-1
 49 69 l 1,45,-1
 49 69 l 1,46,47
 37 62 37 62 24 65 c 0,48,49
 12 68 12 68 5 80 c 0,50,51
 -2 91 -2 91 1 104 c 0,52,53
 4 116 4 116 16 123 c 2,54,-1
 130 192 l 1,55,-1
 130 192 l 1,56,-1
 16 261 l 1,57,-1
 16 261 l 1,58,59
 4 268 4 268 1 280 c 0,60,61
 -2 293 -2 293 5 304 c 0,62,63
 12 316 12 316 24 319 c 0,64,65
 37 322 37 322 48 315 c 2,66,-1
 160 248 l 1,67,-1
 160 248 l 1,68,-1
 160 384 l 1,69,-1
 160 384 l 1,70,71
 160 398 160 398 169 407 c 256,72,73
 178 416 178 416 192 416 c 1,74,-1
 192 416 l 1,0,1
EndSplineSet
EndChar

StartChar: plus
Encoding: 43 43 6
AltUni2: 00f067.ffffffff.0 002795.ffffffff.0 00f067.ffffffff.0 002795.ffffffff.0
Width: 448
GlyphClass: 1
Flags: W
LayerCount: 2
Fore
SplineSet
256 368 m 1,0,1
 256 382 256 382 247 391 c 1,2,-1
 247 391 l 1,3,-1
 247 391 l 1,4,5
 238 400 238 400 224 400 c 256,6,7
 210 400 210 400 201 391 c 256,8,9
 192 382 192 382 192 368 c 2,10,-1
 192 224 l 1,11,-1
 192 224 l 1,12,-1
 48 224 l 1,13,-1
 48 224 l 1,14,15
 34 224 34 224 25 215 c 256,16,17
 16 206 16 206 16 192 c 256,18,19
 16 178 16 178 25 169 c 256,20,21
 34 160 34 160 48 160 c 2,22,-1
 192 160 l 1,23,-1
 192 160 l 1,24,-1
 192 16 l 1,25,-1
 192 16 l 1,26,27
 192 2 192 2 201 -7 c 256,28,29
 210 -16 210 -16 224 -16 c 256,30,31
 238 -16 238 -16 247 -7 c 256,32,33
 256 2 256 2 256 16 c 2,34,-1
 256 160 l 1,35,-1
 256 160 l 1,36,-1
 400 160 l 1,37,-1
 400 160 l 1,38,39
 414 160 414 160 423 169 c 256,40,41
 432 178 432 178 432 192 c 256,42,43
 432 206 432 206 423 215 c 256,44,45
 414 224 414 224 400 224 c 2,46,-1
 256 224 l 1,47,-1
 256 224 l 1,48,-1
 256 368 l 1,49,-1
 256 368 l 1,0,1
EndSplineSet
EndChar

StartChar: 0
Encoding: 48 48 7
Width: 320
GlyphClass: 1
Flags: W
LayerCount: 2
Fore
SplineSet
0 256 m 1,0,1
 2 324 2 324 47 369 c 1,2,-1
 47 369 l 1,3,-1
 47 369 l 1,4,5
 92 414 92 414 160 416 c 0,6,7
 228 414 228 414 273 369 c 256,8,9
 318 324 318 324 320 256 c 2,10,-1
 320 128 l 1,11,-1
 320 128 l 1,12,13
 318 60 318 60 273 15 c 256,14,15
 228 -30 228 -30 160 -32 c 0,16,17
 92 -30 92 -30 47 15 c 256,18,19
 2 60 2 60 0 128 c 2,20,-1
 0 256 l 1,21,-1
 0 256 l 1,0,1
160 352 m 1,22,23
 119 351 119 351 92 324 c 1,24,-1
 92 324 l 1,25,-1
 92 324 l 1,26,27
 65 297 65 297 64 256 c 2,28,-1
 64 128 l 1,29,-1
 64 128 l 1,30,31
 65 87 65 87 92 60 c 256,32,33
 119 33 119 33 160 32 c 0,34,35
 201 33 201 33 228 60 c 256,36,37
 255 87 255 87 256 128 c 2,38,-1
 256 256 l 1,39,-1
 256 256 l 1,40,41
 255 297 255 297 228 324 c 256,42,43
 201 351 201 351 160 352 c 1,44,-1
 160 352 l 1,22,23
EndSplineSet
EndChar

StartChar: 1
Encoding: 49 49 8
Width: 256
GlyphClass: 1
Flags: W
LayerCount: 2
Fore
SplineSet
160 384 m 1,0,1
 159 403 159 403 143 412 c 0,2,3
 126 421 126 421 110 411 c 2,4,-1
 14 347 l 1,5,-1
 14 347 l 1,6,7
 3 339 3 339 1 326 c 0,8,9
 -2 314 -2 314 5 302 c 0,10,11
 13 291 13 291 26 289 c 0,12,13
 38 286 38 286 50 293 c 2,14,-1
 96 324 l 1,15,-1
 96 324 l 1,16,-1
 96 32 l 1,17,-1
 96 32 l 1,18,-1
 32 32 l 1,19,-1
 32 32 l 1,20,21
 18 32 18 32 9 23 c 256,22,23
 0 14 0 14 0 0 c 256,24,25
 0 -14 0 -14 9 -23 c 256,26,27
 18 -32 18 -32 32 -32 c 2,28,-1
 128 -32 l 1,29,-1
 224 -32 l 2,30,31
 238 -32 238 -32 247 -23 c 256,32,33
 256 -14 256 -14 256 0 c 256,34,35
 256 14 256 14 247 23 c 256,36,37
 238 32 238 32 224 32 c 2,38,-1
 160 32 l 1,39,-1
 160 32 l 1,40,-1
 160 384 l 1,41,-1
 160 384 l 1,0,1
EndSplineSet
EndChar

StartChar: 2
Encoding: 50 50 9
Width: 320
GlyphClass: 1
Flags: W
LayerCount: 2
Fore
SplineSet
143 352 m 1,0,1
 109 352 109 352 85 328 c 2,2,-1
 55 297 l 1,3,-1
 55 297 l 1,4,5
 45 288 45 288 32 288 c 256,6,7
 19 288 19 288 9 297 c 0,8,9
 0 307 0 307 0 320 c 256,10,11
 0 333 0 333 9 343 c 2,12,-1
 40 373 l 1,13,-1
 40 373 l 1,14,15
 83 415 83 415 143 416 c 0,16,17
 205 414 205 414 245 373 c 0,18,19
 286 333 286 333 288 271 c 0,20,21
 287 211 287 211 246 168 c 2,22,-1
 109 32 l 1,23,-1
 109 32 l 1,24,-1
 288 32 l 1,25,-1
 288 32 l 1,26,27
 302 32 302 32 311 23 c 256,28,29
 320 14 320 14 320 0 c 256,30,31
 320 -14 320 -14 311 -23 c 256,32,33
 302 -32 302 -32 288 -32 c 2,34,-1
 32 -32 l 1,35,-1
 32 -32 l 1,36,37
 11 -31 11 -31 2 -12 c 0,38,39
 -5 7 -5 7 9 23 c 2,40,-1
 200 213 l 1,41,-1
 200 213 l 1,42,43
 223 237 223 237 224 271 c 0,44,45
 223 305 223 305 200 328 c 256,46,47
 177 351 177 351 143 352 c 1,48,-1
 143 352 l 1,0,1
EndSplineSet
EndChar

StartChar: 3
Encoding: 51 51 10
Width: 320
GlyphClass: 1
Flags: W
LayerCount: 2
Fore
SplineSet
0 384 m 1,0,1
 0 398 0 398 9 407 c 1,2,-1
 9 407 l 1,3,-1
 9 407 l 1,4,5
 18 416 18 416 32 416 c 2,6,-1
 272 416 l 1,7,-1
 272 416 l 1,8,9
 293 415 293 415 302 396 c 0,10,11
 309 375 309 375 294 360 c 2,12,-1
 162 240 l 1,13,-1
 162 240 l 1,14,-1
 184 240 l 1,15,-1
 184 240 l 1,16,17
 242 239 242 239 280 200 c 0,18,19
 319 162 319 162 320 104 c 0,20,21
 319 46 319 46 280 8 c 0,22,23
 242 -31 242 -31 184 -32 c 2,24,-1
 105 -32 l 1,25,-1
 105 -32 l 1,26,27
 73 -32 73 -32 47 -15 c 0,28,29
 20 1 20 1 5 30 c 2,30,-1
 3 34 l 1,31,-1
 3 34 l 1,32,33
 -2 46 -2 46 2 58 c 256,34,35
 6 70 6 70 18 77 c 0,36,37
 30 82 30 82 42 78 c 256,38,39
 54 74 54 74 61 62 c 2,40,-1
 63 58 l 1,41,-1
 63 58 l 1,42,43
 76 33 76 33 105 32 c 2,44,-1
 184 32 l 1,45,-1
 184 32 l 1,46,47
 215 33 215 33 235 53 c 256,48,49
 255 73 255 73 256 104 c 0,50,51
 255 135 255 135 235 155 c 256,52,53
 215 175 215 175 184 176 c 2,54,-1
 80 176 l 1,55,-1
 80 176 l 1,56,57
 59 177 59 177 50 196 c 0,58,59
 43 217 43 217 58 232 c 2,60,-1
 190 352 l 1,61,-1
 190 352 l 1,62,-1
 32 352 l 1,63,-1
 32 352 l 1,64,65
 18 352 18 352 9 361 c 256,66,67
 0 370 0 370 0 384 c 1,68,-1
 0 384 l 1,0,1
EndSplineSet
EndChar

StartChar: 4
Encoding: 52 52 11
Width: 384
GlyphClass: 1
Flags: W
LayerCount: 2
Fore
SplineSet
189 370 m 1,0,1
 194 383 194 383 190 395 c 1,2,-1
 190 395 l 1,3,-1
 190 395 l 1,4,5
 186 407 186 407 174 413 c 0,6,7
 161 418 161 418 149 414 c 256,8,9
 137 410 137 410 131 398 c 2,10,-1
 3 126 l 1,11,-1
 3 126 l 1,12,13
 -4 110 -4 110 5 95 c 0,14,15
 15 80 15 80 32 80 c 2,16,-1
 256 80 l 1,17,-1
 256 80 l 1,18,-1
 256 0 l 1,19,-1
 256 0 l 1,20,21
 256 -14 256 -14 265 -23 c 256,22,23
 274 -32 274 -32 288 -32 c 256,24,25
 302 -32 302 -32 311 -23 c 256,26,27
 320 -14 320 -14 320 0 c 2,28,-1
 320 80 l 1,29,-1
 320 80 l 1,30,-1
 352 80 l 1,31,-1
 352 80 l 1,32,33
 366 80 366 80 375 89 c 256,34,35
 384 98 384 98 384 112 c 256,36,37
 384 126 384 126 375 135 c 256,38,39
 366 144 366 144 352 144 c 2,40,-1
 320 144 l 1,41,-1
 320 144 l 1,42,-1
 320 288 l 1,43,-1
 320 288 l 1,44,45
 320 302 320 302 311 311 c 256,46,47
 302 320 302 320 288 320 c 256,48,49
 274 320 274 320 265 311 c 256,50,51
 256 302 256 302 256 288 c 2,52,-1
 256 144 l 1,53,-1
 256 144 l 1,54,-1
 82 144 l 1,55,-1
 82 144 l 1,56,-1
 189 370 l 1,57,-1
 189 370 l 1,0,1
EndSplineSet
EndChar

StartChar: 5
Encoding: 53 53 12
Width: 320
GlyphClass: 1
Flags: W
LayerCount: 2
Fore
SplineSet
33 390 m 1,0,1
 39 414 39 414 64 416 c 2,2,-1
 256 416 l 1,3,-1
 256 416 l 1,4,5
 270 416 270 416 279 407 c 256,6,7
 288 398 288 398 288 384 c 256,8,9
 288 370 288 370 279 361 c 256,10,11
 270 352 270 352 256 352 c 2,12,-1
 91 352 l 1,13,-1
 91 352 l 1,14,-1
 70 240 l 1,15,-1
 70 240 l 1,16,-1
 184 240 l 1,17,-1
 184 240 l 1,18,19
 242 239 242 239 280 200 c 0,20,21
 319 162 319 162 320 104 c 0,22,23
 319 46 319 46 280 8 c 0,24,25
 242 -31 242 -31 184 -32 c 2,26,-1
 101 -32 l 1,27,-1
 101 -32 l 1,28,29
 70 -32 70 -32 46 -16 c 0,30,31
 21 -1 21 -1 8 25 c 2,32,-1
 3 34 l 1,33,-1
 3 34 l 1,34,35
 -2 46 -2 46 2 58 c 256,36,37
 6 70 6 70 18 77 c 0,38,39
 30 82 30 82 42 78 c 256,40,41
 54 74 54 74 61 62 c 2,42,-1
 65 54 l 1,43,-1
 65 54 l 1,44,45
 76 33 76 33 101 32 c 2,46,-1
 184 32 l 1,47,-1
 184 32 l 1,48,49
 215 33 215 33 235 53 c 256,50,51
 255 73 255 73 256 104 c 0,52,53
 255 135 255 135 235 155 c 256,54,55
 215 175 215 175 184 176 c 2,56,-1
 32 176 l 1,57,-1
 32 176 l 1,58,59
 17 176 17 176 7 187 c 0,60,61
 -2 199 -2 199 0 214 c 2,62,-1
 33 390 l 1,63,-1
 33 390 l 1,0,1
EndSplineSet
EndChar

StartChar: 6
Encoding: 54 54 13
Width: 320
GlyphClass: 1
Flags: W
LayerCount: 2
Fore
SplineSet
232 363 m 1,0,1
 241 374 241 374 240 387 c 1,2,-1
 240 387 l 1,3,-1
 240 387 l 1,4,5
 239 399 239 399 229 408 c 0,6,7
 218 417 218 417 205 416 c 0,8,9
 193 415 193 415 184 405 c 2,10,-1
 39 233 l 1,11,-1
 39 233 l 1,12,13
 2 190 2 190 0 133 c 0,14,15
 0 132 0 132 0 131 c 256,16,17
 0 130 0 130 0 128 c 1,18,-1
 0 128 l 1,19,-1
 0 128 l 1,20,21
 2 60 2 60 47 15 c 256,22,23
 92 -30 92 -30 160 -32 c 0,24,25
 228 -30 228 -30 273 15 c 256,26,27
 318 60 318 60 320 128 c 0,28,29
 318 194 318 194 276 238 c 0,30,31
 233 283 233 283 169 288 c 1,32,-1
 232 363 l 1,33,-1
 232 363 l 1,0,1
256 128 m 1,34,35
 256 102 256 102 243 80 c 1,36,-1
 243 80 l 1,37,-1
 243 80 l 1,38,39
 230 58 230 58 208 45 c 0,40,41
 185 32 185 32 160 32 c 256,42,43
 135 32 135 32 112 45 c 0,44,45
 90 58 90 58 77 80 c 256,46,47
 64 102 64 102 64 128 c 256,48,49
 64 154 64 154 77 176 c 256,50,51
 90 198 90 198 112 211 c 0,52,53
 135 224 135 224 160 224 c 256,54,55
 185 224 185 224 208 211 c 0,56,57
 230 198 230 198 243 176 c 256,58,59
 256 154 256 154 256 128 c 1,60,-1
 256 128 l 1,34,35
EndSplineSet
EndChar

StartChar: 7
Encoding: 55 55 14
Width: 320
GlyphClass: 1
Flags: W
LayerCount: 2
Fore
SplineSet
0 384 m 1,0,1
 0 398 0 398 9 407 c 1,2,-1
 9 407 l 1,3,-1
 9 407 l 1,4,5
 18 416 18 416 32 416 c 2,6,-1
 288 416 l 1,7,-1
 288 416 l 1,8,9
 306 415 306 415 316 400 c 0,10,11
 324 384 324 384 316 368 c 2,12,-1
 92 -16 l 1,13,-1
 92 -16 l 1,14,15
 84 -28 84 -28 72 -31 c 256,16,17
 60 -34 60 -34 48 -28 c 0,18,19
 36 -21 36 -21 33 -8 c 0,20,21
 30 4 30 4 36 16 c 2,22,-1
 232 352 l 1,23,-1
 232 352 l 1,24,-1
 32 352 l 1,25,-1
 32 352 l 1,26,27
 18 352 18 352 9 361 c 256,28,29
 0 370 0 370 0 384 c 1,30,-1
 0 384 l 1,0,1
EndSplineSet
EndChar

StartChar: 8
Encoding: 56 56 15
Width: 320
GlyphClass: 1
Flags: W
LayerCount: 2
Fore
SplineSet
304 288 m 1,0,1
 303 342 303 342 267 379 c 1,2,-1
 267 379 l 1,3,-1
 267 379 l 1,4,5
 230 415 230 415 176 416 c 2,6,-1
 144 416 l 1,7,-1
 144 416 l 1,8,9
 90 415 90 415 53 379 c 0,10,11
 17 342 17 342 16 288 c 0,12,13
 17 235 17 235 52 199 c 1,14,15
 28 181 28 181 14 155 c 0,16,17
 0 128 0 128 0 96 c 0,18,19
 1 42 1 42 37 5 c 0,20,21
 74 -31 74 -31 128 -32 c 2,22,-1
 192 -32 l 1,23,-1
 192 -32 l 1,24,25
 246 -31 246 -31 283 5 c 0,26,27
 319 42 319 42 320 96 c 0,28,29
 320 128 320 128 306 155 c 0,30,31
 292 181 292 181 268 199 c 1,32,33
 303 235 303 235 304 288 c 1,34,-1
 304 288 l 1,0,1
176 160 m 1,35,-1
 192 160 l 1,36,-1
 176 160 l 1,37,-1
 192 160 l 2,38,39
 219 159 219 159 237 141 c 256,40,41
 255 123 255 123 256 96 c 0,42,43
 255 69 255 69 237 51 c 256,44,45
 219 33 219 33 192 32 c 2,46,-1
 128 32 l 1,47,-1
 128 32 l 1,48,49
 101 33 101 33 83 51 c 256,50,51
 65 69 65 69 64 96 c 0,52,53
 65 123 65 123 83 141 c 256,54,55
 101 159 101 159 128 160 c 2,56,-1
 144 160 l 1,57,-1
 144 160 l 1,58,59
 144 160 144 160 144 160 c 257,60,61
 144 160 144 160 144 160 c 1,62,-1
 176 160 l 1,63,-1
 176 160 l 1,64,65
 176 160 176 160 176 160 c 257,66,67
 176 160 176 160 176 160 c 1,68,-1
 176 160 l 1,35,-1
176 224 m 1,69,70
 176 224 176 224 176 224 c 1,71,-1
 176 224 l 1,72,-1
 176 224 l 1,73,74
 176 224 176 224 176 224 c 1,75,-1
 144 224 l 1,76,-1
 144 224 l 1,77,78
 144 224 144 224 144 224 c 257,79,80
 144 224 144 224 144 224 c 1,81,82
 117 225 117 225 99 243 c 256,83,84
 81 261 81 261 80 288 c 0,85,86
 81 315 81 315 99 333 c 256,87,88
 117 351 117 351 144 352 c 2,89,-1
 176 352 l 1,90,-1
 176 352 l 1,91,92
 203 351 203 351 221 333 c 256,93,94
 239 315 239 315 240 288 c 0,95,96
 239 261 239 261 221 243 c 256,97,98
 203 225 203 225 176 224 c 1,99,-1
 176 224 l 1,69,70
EndSplineSet
EndChar

StartChar: 9
Encoding: 57 57 16
Width: 320
GlyphClass: 1
Flags: W
LayerCount: 2
Fore
SplineSet
64 256 m 1,0,1
 64 230 64 230 77 208 c 1,2,-1
 77 208 l 1,3,-1
 77 208 l 1,4,5
 90 186 90 186 112 173 c 0,6,7
 135 160 135 160 160 160 c 256,8,9
 185 160 185 160 208 173 c 0,10,11
 230 186 230 186 243 208 c 256,12,13
 256 230 256 230 256 256 c 256,14,15
 256 282 256 282 243 304 c 256,16,17
 230 326 230 326 208 339 c 0,18,19
 185 352 185 352 160 352 c 256,20,21
 135 352 135 352 112 339 c 0,22,23
 90 326 90 326 77 304 c 256,24,25
 64 282 64 282 64 256 c 1,26,-1
 64 256 l 1,0,1
152 96 m 1,27,28
 87 101 87 101 44 146 c 1,29,-1
 44 146 l 1,30,-1
 44 146 l 1,31,32
 2 190 2 190 0 256 c 0,33,34
 2 324 2 324 47 369 c 256,35,36
 92 414 92 414 160 416 c 0,37,38
 228 414 228 414 273 369 c 256,39,40
 318 324 318 324 320 256 c 0,41,42
 320 252 320 252 320 248 c 0,43,44
 317 193 317 193 281 151 c 2,45,-1
 136 -21 l 1,46,-1
 136 -21 l 1,47,48
 127 -31 127 -31 115 -32 c 0,49,50
 102 -33 102 -33 91 -24 c 0,51,52
 81 -15 81 -15 80 -3 c 0,53,54
 79 10 79 10 87 21 c 2,55,-1
 151 96 l 1,56,-1
 152 96 l 1,27,28
EndSplineSet
EndChar

StartChar: less-than
Encoding: 60 60 17
AltUni2: 00f536.ffffffff.0 00f536.ffffffff.0
Width: 384
GlyphClass: 1
Flags: W
LayerCount: 2
Fore
SplineSet
381 366 m 1,0,1
 386 354 386 354 382 342 c 1,2,-1
 382 342 l 1,3,-1
 382 342 l 1,4,5
 378 330 378 330 366 323 c 2,6,-1
 104 192 l 1,7,-1
 104 192 l 1,8,-1
 366 61 l 1,9,-1
 366 61 l 1,10,11
 378 54 378 54 382 42 c 256,12,13
 386 30 386 30 381 18 c 0,14,15
 374 6 374 6 362 2 c 256,16,17
 350 -2 350 -2 338 3 c 2,18,-1
 18 163 l 1,19,-1
 18 163 l 1,20,21
 1 173 1 173 0 192 c 0,22,23
 1 211 1 211 18 221 c 2,24,-1
 338 381 l 1,25,-1
 338 381 l 1,26,27
 350 386 350 386 362 382 c 256,28,29
 374 378 374 378 381 366 c 1,30,-1
 381 366 l 1,0,1
EndSplineSet
EndChar

StartChar: equals
Encoding: 61 61 18
AltUni2: 00f52c.ffffffff.0 00f52c.ffffffff.0
Width: 448
GlyphClass: 1
Flags: W
LayerCount: 2
Fore
SplineSet
48 320 m 1,0,1
 34 320 34 320 25 311 c 1,2,-1
 25 311 l 1,3,-1
 25 311 l 1,4,5
 16 302 16 302 16 288 c 256,6,7
 16 274 16 274 25 265 c 256,8,9
 34 256 34 256 48 256 c 2,10,-1
 400 256 l 1,11,-1
 400 256 l 1,12,13
 414 256 414 256 423 265 c 256,14,15
 432 274 432 274 432 288 c 256,16,17
 432 302 432 302 423 311 c 256,18,19
 414 320 414 320 400 320 c 2,20,-1
 48 320 l 1,21,-1
 48 320 l 1,0,1
48 128 m 1,22,23
 34 128 34 128 25 119 c 1,24,-1
 25 119 l 1,25,-1
 25 119 l 1,26,27
 16 110 16 110 16 96 c 256,28,29
 16 82 16 82 25 73 c 256,30,31
 34 64 34 64 48 64 c 2,32,-1
 400 64 l 1,33,-1
 400 64 l 1,34,35
 414 64 414 64 423 73 c 256,36,37
 432 82 432 82 432 96 c 256,38,39
 432 110 432 110 423 119 c 256,40,41
 414 128 414 128 400 128 c 2,42,-1
 48 128 l 1,43,-1
 48 128 l 1,22,23
EndSplineSet
EndChar

StartChar: greater-than
Encoding: 62 62 19
AltUni2: 00f531.ffffffff.0 00f531.ffffffff.0
Width: 384
GlyphClass: 1
Flags: W
LayerCount: 2
Fore
SplineSet
3 366 m 1,0,1
 -2 354 -2 354 2 342 c 1,2,-1
 2 342 l 1,3,-1
 2 342 l 1,4,5
 6 330 6 330 18 323 c 2,6,-1
 281 192 l 1,7,-1
 281 192 l 1,8,-1
 18 61 l 1,9,-1
 18 61 l 1,10,11
 6 54 6 54 2 42 c 256,12,13
 -2 30 -2 30 3 18 c 0,14,15
 10 6 10 6 22 2 c 256,16,17
 34 -2 34 -2 46 3 c 2,18,-1
 366 163 l 1,19,-1
 366 163 l 1,20,21
 383 173 383 173 384 192 c 0,22,23
 383 211 383 211 366 221 c 2,24,-1
 46 381 l 1,25,-1
 46 381 l 1,26,27
 34 386 34 386 22 382 c 256,28,29
 10 378 10 378 3 366 c 1,30,-1
 3 366 l 1,0,1
EndSplineSet
EndChar

StartChar: question
Encoding: 63 63 20
AltUni2: 00f128.ffffffff.0 002754.ffffffff.0 002753.ffffffff.0 00f128.ffffffff.0 002754.ffffffff.0 002753.ffffffff.0
Width: 320
GlyphClass: 1
Flags: W
LayerCount: 2
Fore
SplineSet
80 288 m 1,0,1
 81 315 81 315 99 333 c 1,2,-1
 99 333 l 1,3,-1
 99 333 l 1,4,5
 117 351 117 351 144 352 c 2,6,-1
 176 352 l 1,7,-1
 176 352 l 1,8,9
 203 351 203 351 221 333 c 256,10,11
 239 315 239 315 240 288 c 2,12,-1
 240 284 l 1,13,-1
 240 284 l 1,14,15
 239 250 239 250 211 231 c 2,16,-1
 168 203 l 1,17,-1
 168 203 l 1,18,19
 129 177 129 177 128 129 c 2,20,-1
 128 128 l 1,21,-1
 128 128 l 1,22,23
 128 114 128 114 137 105 c 256,24,25
 146 96 146 96 160 96 c 256,26,27
 174 96 174 96 183 105 c 256,28,29
 192 114 192 114 192 128 c 2,30,-1
 192 129 l 1,31,-1
 192 129 l 1,32,33
 192 142 192 142 203 150 c 2,34,-1
 245 177 l 1,35,-1
 245 177 l 1,36,37
 273 195 273 195 288 223 c 0,38,39
 304 251 304 251 304 285 c 2,40,-1
 304 288 l 1,41,-1
 304 288 l 1,42,43
 303 342 303 342 267 379 c 0,44,45
 230 415 230 415 176 416 c 2,46,-1
 144 416 l 1,47,-1
 144 416 l 1,48,49
 90 415 90 415 53 379 c 0,50,51
 17 342 17 342 16 288 c 0,52,53
 16 274 16 274 25 265 c 256,54,55
 34 256 34 256 48 256 c 256,56,57
 62 256 62 256 71 265 c 256,58,59
 80 274 80 274 80 288 c 1,60,-1
 80 288 l 1,0,1
160 -32 m 1,61,62
 183 -31 183 -31 195 -12 c 0,63,64
 205 8 205 8 195 28 c 0,65,66
 183 47 183 47 160 48 c 0,67,68
 137 47 137 47 125 28 c 0,69,70
 115 8 115 8 125 -12 c 0,71,72
 137 -31 137 -31 160 -32 c 1,73,-1
 160 -32 l 1,61,62
EndSplineSet
EndChar

StartChar: at
Encoding: 64 64 21
AltUni2: 00f1fa.ffffffff.0 00f1fa.ffffffff.0
Width: 512
GlyphClass: 1
Flags: W
LayerCount: 2
Fore
SplineSet
256 384 m 1,0,1
 174 382 174 382 120 328 c 1,2,-1
 120 328 l 1,3,-1
 120 328 l 1,4,5
 66 274 66 274 64 192 c 0,6,7
 66 110 66 110 120 56 c 256,8,9
 174 2 174 2 256 0 c 0,10,11
 270 0 270 0 279 -9 c 256,12,13
 288 -18 288 -18 288 -32 c 256,14,15
 288 -46 288 -46 279 -55 c 256,16,17
 270 -64 270 -64 256 -64 c 0,18,19
 184 -63 184 -63 127 -29 c 0,20,21
 69 5 69 5 35 63 c 0,22,23
 1 120 1 120 0 192 c 0,24,25
 1 264 1 264 35 321 c 0,26,27
 69 379 69 379 127 413 c 0,28,29
 184 447 184 447 256 448 c 0,30,31
 328 447 328 447 385 413 c 0,32,33
 443 379 443 379 477 321 c 0,34,35
 511 264 511 264 512 192 c 2,36,-1
 512 160 l 1,37,-1
 512 160 l 1,38,39
 511 119 511 119 484 92 c 256,40,41
 457 65 457 65 416 64 c 0,42,43
 371 65 371 65 343 98 c 1,44,45
 307 65 307 65 256 64 c 0,46,47
 202 65 202 65 165 101 c 0,48,49
 129 138 129 138 128 192 c 0,50,51
 129 246 129 246 165 283 c 0,52,53
 202 319 202 319 256 320 c 0,54,55
 299 319 299 319 331 296 c 1,56,57
 339 304 339 304 352 304 c 0,58,59
 366 304 366 304 375 295 c 256,60,61
 384 286 384 286 384 272 c 2,62,-1
 384 192 l 1,63,-1
 384 192 l 1,64,-1
 384 160 l 1,65,-1
 384 160 l 1,66,67
 384 146 384 146 393 137 c 256,68,69
 402 128 402 128 416 128 c 256,70,71
 430 128 430 128 439 137 c 256,72,73
 448 146 448 146 448 160 c 2,74,-1
 448 192 l 1,75,-1
 448 192 l 1,76,77
 446 274 446 274 392 328 c 256,78,79
 338 382 338 382 256 384 c 1,80,-1
 256 384 l 1,0,1
320 192 m 1,81,82
 319 228 319 228 288 247 c 0,83,84
 256 265 256 265 224 247 c 0,85,86
 193 228 193 228 192 192 c 0,87,88
 193 156 193 156 224 137 c 0,89,90
 256 119 256 119 288 137 c 0,91,92
 319 156 319 156 320 192 c 1,93,-1
 320 192 l 1,81,82
EndSplineSet
EndChar

StartChar: a
Encoding: 65 65 22
AltUni2: 000061.ffffffff.0 000061.ffffffff.0
Width: 384
GlyphClass: 1
Flags: W
LayerCount: 2
Fore
SplineSet
222 396 m 1,0,1
 213 415 213 415 192 416 c 0,2,3
 171 415 171 415 163 396 c 2,4,-1
 43 108 l 1,5,-1
 43 108 l 1,6,-1
 3 12 l 1,7,-1
 3 12 l 1,8,9
 -2 0 -2 0 2 -12 c 0,10,11
 7 -24 7 -24 20 -30 c 0,12,13
 32 -34 32 -34 44 -30 c 0,14,15
 56 -25 56 -25 62 -12 c 2,16,-1
 93 64 l 1,17,-1
 93 64 l 1,18,-1
 291 64 l 1,19,-1
 291 64 l 1,20,-1
 322 -12 l 1,21,-1
 322 -12 l 1,22,23
 328 -25 328 -25 340 -30 c 0,24,25
 352 -34 352 -34 364 -30 c 0,26,27
 377 -24 377 -24 381 -12 c 0,28,29
 386 0 386 0 381 12 c 2,30,-1
 341 108 l 1,31,-1
 341 108 l 1,32,-1
 221 396 l 1,33,-1
 222 396 l 1,0,1
264 128 m 1,34,-1
 120 128 l 1,35,-1
 264 128 l 1,36,-1
 120 128 l 1,37,-1
 192 301 l 1,38,-1
 192 301 l 1,39,-1
 264 128 l 1,40,-1
 264 128 l 1,34,-1
EndSplineSet
EndChar

StartChar: b
Encoding: 66 66 23
AltUni2: 000062.ffffffff.0 000062.ffffffff.0
Width: 320
GlyphClass: 1
Flags: W
LayerCount: 2
Fore
SplineSet
64 416 m 1,0,1
 37 415 37 415 19 397 c 1,2,-1
 19 397 l 1,3,-1
 19 397 l 1,4,5
 1 379 1 379 0 352 c 2,6,-1
 0 192 l 1,7,-1
 0 192 l 1,8,-1
 0 32 l 1,9,-1
 0 32 l 1,10,11
 1 5 1 5 19 -13 c 256,12,13
 37 -31 37 -31 64 -32 c 2,14,-1
 192 -32 l 1,15,-1
 192 -32 l 1,16,17
 246 -31 246 -31 283 5 c 0,18,19
 319 42 319 42 320 96 c 0,20,21
 320 131 320 131 303 160 c 256,22,23
 286 189 286 189 258 206 c 1,24,25
 287 240 287 240 288 288 c 0,26,27
 287 342 287 342 251 379 c 0,28,29
 214 415 214 415 160 416 c 2,30,-1
 64 416 l 1,31,-1
 64 416 l 1,0,1
160 224 m 1,32,-1
 64 224 l 1,33,-1
 160 224 l 1,34,-1
 64 224 l 1,35,-1
 64 352 l 1,36,-1
 64 352 l 1,37,-1
 160 352 l 1,38,-1
 160 352 l 1,39,40
 187 351 187 351 205 333 c 256,41,42
 223 315 223 315 224 288 c 0,43,44
 223 261 223 261 205 243 c 256,45,46
 187 225 187 225 160 224 c 1,47,-1
 160 224 l 1,32,-1
64 160 m 1,48,-1
 160 160 l 1,49,-1
 64 160 l 1,50,-1
 192 160 l 2,51,52
 219 159 219 159 237 141 c 256,53,54
 255 123 255 123 256 96 c 0,55,56
 255 69 255 69 237 51 c 256,57,58
 219 33 219 33 192 32 c 2,59,-1
 64 32 l 1,60,-1
 64 32 l 1,61,-1
 64 160 l 1,62,-1
 64 160 l 1,48,-1
EndSplineSet
EndChar

StartChar: c
Encoding: 67 67 24
AltUni2: 000063.ffffffff.0 000063.ffffffff.0
Width: 384
GlyphClass: 1
Flags: W
LayerCount: 2
Fore
SplineSet
329 305 m 1,0,1
 280 352 280 352 220 352 c 1,2,-1
 220 352 l 1,3,-1
 220 352 l 1,4,5
 160 352 160 352 111 305 c 0,6,7
 64 256 64 256 64 192 c 256,8,9
 64 128 64 128 111 79 c 0,10,11
 160 32 160 32 220 32 c 256,12,13
 280 32 280 32 329 79 c 0,14,15
 339 88 339 88 352 88 c 256,16,17
 365 88 365 88 374 79 c 0,18,19
 384 69 384 69 384 56 c 256,20,21
 384 43 384 43 374 33 c 0,22,23
 306 -32 306 -32 220 -32 c 256,24,25
 134 -32 134 -32 66 33 c 0,26,27
 22 78 22 78 7 135 c 0,28,29
 -7 192 -7 192 7 249 c 0,30,31
 22 306 22 306 66 350 c 0,32,33
 134 416 134 416 220 416 c 256,34,35
 306 416 306 416 374 350 c 0,36,37
 384 340 384 340 384 328 c 0,38,39
 384 315 384 315 374 305 c 0,40,41
 365 296 365 296 352 296 c 256,42,43
 339 296 339 296 329 305 c 1,44,-1
 329 305 l 1,0,1
EndSplineSet
EndChar

StartChar: d
Encoding: 68 68 25
AltUni2: 000064.ffffffff.0 000064.ffffffff.0
Width: 384
GlyphClass: 1
Flags: W
LayerCount: 2
Fore
SplineSet
0 352 m 1,0,1
 1 379 1 379 19 397 c 1,2,-1
 19 397 l 1,3,-1
 19 397 l 1,4,5
 37 415 37 415 64 416 c 2,6,-1
 160 416 l 1,7,-1
 160 416 l 1,8,9
 223 415 223 415 273 385 c 0,10,11
 324 356 324 356 353 305 c 0,12,13
 383 255 383 255 384 192 c 0,14,15
 383 129 383 129 353 79 c 0,16,17
 324 28 324 28 273 -1 c 0,18,19
 223 -31 223 -31 160 -32 c 2,20,-1
 64 -32 l 1,21,-1
 64 -32 l 1,22,23
 37 -31 37 -31 19 -13 c 256,24,25
 1 5 1 5 0 32 c 2,26,-1
 0 352 l 1,27,-1
 0 352 l 1,0,1
160 352 m 1,28,-1
 64 352 l 1,29,-1
 160 352 l 1,30,-1
 64 352 l 1,31,-1
 64 32 l 1,32,-1
 64 32 l 1,33,-1
 160 32 l 1,34,-1
 160 32 l 1,35,36
 228 34 228 34 273 79 c 256,37,38
 318 124 318 124 320 192 c 0,39,40
 318 260 318 260 273 305 c 256,41,42
 228 350 228 350 160 352 c 1,43,-1
 160 352 l 1,28,-1
EndSplineSet
EndChar

StartChar: e
Encoding: 69 69 26
AltUni2: 000065.ffffffff.0 000065.ffffffff.0
Width: 320
GlyphClass: 1
Flags: W
LayerCount: 2
Fore
SplineSet
64 416 m 1,0,1
 37 415 37 415 19 397 c 1,2,-1
 19 397 l 1,3,-1
 19 397 l 1,4,5
 1 379 1 379 0 352 c 2,6,-1
 0 192 l 1,7,-1
 0 192 l 1,8,-1
 0 32 l 1,9,-1
 0 32 l 1,10,11
 1 5 1 5 19 -13 c 256,12,13
 37 -31 37 -31 64 -32 c 2,14,-1
 288 -32 l 1,15,-1
 288 -32 l 1,16,17
 302 -32 302 -32 311 -23 c 256,18,19
 320 -14 320 -14 320 0 c 256,20,21
 320 14 320 14 311 23 c 256,22,23
 302 32 302 32 288 32 c 2,24,-1
 64 32 l 1,25,-1
 64 32 l 1,26,-1
 64 160 l 1,27,-1
 64 160 l 1,28,-1
 224 160 l 1,29,-1
 224 160 l 1,30,31
 238 160 238 160 247 169 c 256,32,33
 256 178 256 178 256 192 c 256,34,35
 256 206 256 206 247 215 c 256,36,37
 238 224 238 224 224 224 c 2,38,-1
 64 224 l 1,39,-1
 64 224 l 1,40,-1
 64 352 l 1,41,-1
 64 352 l 1,42,-1
 288 352 l 1,43,-1
 288 352 l 1,44,45
 302 352 302 352 311 361 c 256,46,47
 320 370 320 370 320 384 c 256,48,49
 320 398 320 398 311 407 c 256,50,51
 302 416 302 416 288 416 c 2,52,-1
 64 416 l 1,53,-1
 64 416 l 1,0,1
EndSplineSet
EndChar

StartChar: f
Encoding: 70 70 27
AltUni2: 000066.ffffffff.0 000066.ffffffff.0
Width: 320
GlyphClass: 1
Flags: W
LayerCount: 2
Fore
SplineSet
64 416 m 1,0,1
 37 415 37 415 19 397 c 1,2,-1
 19 397 l 1,3,-1
 19 397 l 1,4,5
 1 379 1 379 0 352 c 2,6,-1
 0 192 l 1,7,-1
 0 192 l 1,8,-1
 0 0 l 1,9,-1
 0 0 l 1,10,11
 0 -14 0 -14 9 -23 c 256,12,13
 18 -32 18 -32 32 -32 c 256,14,15
 46 -32 46 -32 55 -23 c 256,16,17
 64 -14 64 -14 64 0 c 2,18,-1
 64 160 l 1,19,-1
 64 160 l 1,20,-1
 224 160 l 1,21,-1
 224 160 l 1,22,23
 238 160 238 160 247 169 c 256,24,25
 256 178 256 178 256 192 c 256,26,27
 256 206 256 206 247 215 c 256,28,29
 238 224 238 224 224 224 c 2,30,-1
 64 224 l 1,31,-1
 64 224 l 1,32,-1
 64 352 l 1,33,-1
 64 352 l 1,34,-1
 288 352 l 1,35,-1
 288 352 l 1,36,37
 302 352 302 352 311 361 c 256,38,39
 320 370 320 370 320 384 c 256,40,41
 320 398 320 398 311 407 c 256,42,43
 302 416 302 416 288 416 c 2,44,-1
 64 416 l 1,45,-1
 64 416 l 1,0,1
EndSplineSet
EndChar

StartChar: g
Encoding: 71 71 28
AltUni2: 000067.ffffffff.0 000067.ffffffff.0
Width: 448
GlyphClass: 1
Flags: W
LayerCount: 2
Fore
SplineSet
224 352 m 1,0,1
 156 350 156 350 111 305 c 1,2,-1
 111 305 l 1,3,-1
 111 305 l 1,4,5
 66 260 66 260 64 192 c 0,6,7
 66 124 66 124 111 79 c 256,8,9
 156 34 156 34 224 32 c 0,10,11
 283 33 283 33 326 69 c 0,12,13
 369 104 369 104 381 160 c 1,14,-1
 256 160 l 1,15,-1
 256 160 l 1,16,17
 242 160 242 160 233 169 c 256,18,19
 224 178 224 178 224 192 c 256,20,21
 224 206 224 206 233 215 c 256,22,23
 242 224 242 224 256 224 c 2,24,-1
 400 224 l 1,25,-1
 400 224 l 1,26,27
 420 224 420 224 434 210 c 256,28,29
 448 196 448 196 447 173 c 0,30,31
 438 85 438 85 376 28 c 0,32,33
 314 -30 314 -30 224 -32 c 0,34,35
 161 -31 161 -31 111 -1 c 0,36,37
 60 28 60 28 31 79 c 0,38,39
 1 129 1 129 0 192 c 0,40,41
 1 255 1 255 31 305 c 0,42,43
 60 356 60 356 111 385 c 0,44,45
 161 415 161 415 224 416 c 0,46,47
 312 414 312 414 373 359 c 0,48,49
 383 350 383 350 384 337 c 256,50,51
 385 324 385 324 376 314 c 0,52,53
 366 304 366 304 354 303 c 0,54,55
 341 302 341 302 331 311 c 0,56,57
 287 351 287 351 224 352 c 1,58,-1
 224 352 l 1,0,1
EndSplineSet
EndChar

StartChar: h
Encoding: 72 72 29
AltUni2: 000068.ffffffff.0 000068.ffffffff.0
Width: 384
GlyphClass: 1
Flags: W
LayerCount: 2
Fore
SplineSet
320 192 m 1,0,-1
 320 0 l 1,1,-1
 320 192 l 1,2,-1
 320 0 l 2,3,4
 320 -14 320 -14 329 -23 c 256,5,6
 338 -32 338 -32 352 -32 c 256,7,8
 366 -32 366 -32 375 -23 c 256,9,10
 384 -14 384 -14 384 0 c 2,11,-1
 384 224 l 1,12,-1
 384 224 l 1,13,-1
 384 384 l 1,14,-1
 384 384 l 1,15,16
 384 398 384 398 375 407 c 256,17,18
 366 416 366 416 352 416 c 256,19,20
 338 416 338 416 329 407 c 256,21,22
 320 398 320 398 320 384 c 2,23,-1
 320 256 l 1,24,-1
 320 256 l 1,25,-1
 64 256 l 1,26,-1
 64 256 l 1,27,-1
 64 384 l 1,28,-1
 64 384 l 1,29,30
 64 398 64 398 55 407 c 256,31,32
 46 416 46 416 32 416 c 256,33,34
 18 416 18 416 9 407 c 256,35,36
 0 398 0 398 0 384 c 2,37,-1
 0 0 l 1,38,-1
 0 0 l 1,39,40
 0 -14 0 -14 9 -23 c 256,41,42
 18 -32 18 -32 32 -32 c 256,43,44
 46 -32 46 -32 55 -23 c 256,45,46
 64 -14 64 -14 64 0 c 2,47,-1
 64 192 l 1,48,-1
 64 192 l 1,49,-1
 320 192 l 1,50,-1
 320 192 l 1,0,-1
EndSplineSet
EndChar

StartChar: i
Encoding: 73 73 30
AltUni2: 000069.ffffffff.0 000069.ffffffff.0
Width: 320
GlyphClass: 1
Flags: W
LayerCount: 2
Fore
SplineSet
32 416 m 2,0,1
 18 416 18 416 9 407 c 1,2,-1
 9 407 l 1,3,-1
 9 407 l 1,4,5
 0 398 0 398 0 384 c 256,6,7
 0 370 0 370 9 361 c 256,8,9
 18 352 18 352 32 352 c 2,10,-1
 128 352 l 1,11,-1
 128 352 l 1,12,-1
 128 32 l 1,13,-1
 128 32 l 1,14,-1
 32 32 l 1,15,-1
 32 32 l 1,16,17
 18 32 18 32 9 23 c 256,18,19
 0 14 0 14 0 0 c 256,20,21
 0 -14 0 -14 9 -23 c 256,22,23
 18 -32 18 -32 32 -32 c 2,24,-1
 288 -32 l 1,25,-1
 288 -32 l 1,26,27
 302 -32 302 -32 311 -23 c 256,28,29
 320 -14 320 -14 320 0 c 256,30,31
 320 14 320 14 311 23 c 256,32,33
 302 32 302 32 288 32 c 2,34,-1
 192 32 l 1,35,-1
 192 32 l 1,36,-1
 192 352 l 1,37,-1
 192 352 l 1,38,-1
 288 352 l 1,39,-1
 288 352 l 1,40,41
 302 352 302 352 311 361 c 256,42,43
 320 370 320 370 320 384 c 256,44,45
 320 398 320 398 311 407 c 256,46,47
 302 416 302 416 288 416 c 2,48,-1
 160 416 l 1,49,-1
 32 416 l 2,0,1
EndSplineSet
EndChar

StartChar: j
Encoding: 74 74 31
AltUni2: 00006a.ffffffff.0 00006a.ffffffff.0
Width: 320
GlyphClass: 1
Flags: W
LayerCount: 2
Fore
SplineSet
288 416 m 1,0,1
 302 416 302 416 311 407 c 1,2,-1
 311 407 l 1,3,-1
 311 407 l 1,4,5
 320 398 320 398 320 384 c 2,6,-1
 320 128 l 1,7,-1
 320 128 l 1,8,9
 318 60 318 60 273 15 c 256,10,11
 228 -30 228 -30 160 -32 c 0,12,13
 92 -30 92 -30 47 15 c 256,14,15
 2 60 2 60 0 128 c 2,16,-1
 0 160 l 1,17,-1
 0 160 l 1,18,19
 0 174 0 174 9 183 c 256,20,21
 18 192 18 192 32 192 c 256,22,23
 46 192 46 192 55 183 c 256,24,25
 64 174 64 174 64 160 c 2,26,-1
 64 128 l 1,27,-1
 64 128 l 1,28,29
 65 87 65 87 92 60 c 256,30,31
 119 33 119 33 160 32 c 0,32,33
 201 33 201 33 228 60 c 256,34,35
 255 87 255 87 256 128 c 2,36,-1
 256 384 l 1,37,-1
 256 384 l 1,38,39
 256 398 256 398 265 407 c 256,40,41
 274 416 274 416 288 416 c 1,42,-1
 288 416 l 1,0,1
EndSplineSet
EndChar

StartChar: k
Encoding: 75 75 32
AltUni2: 00006b.ffffffff.0 00006b.ffffffff.0
Width: 320
GlyphClass: 1
Flags: W
LayerCount: 2
Fore
SplineSet
311 362 m 1,0,1
 320 372 320 372 320 384 c 1,2,-1
 320 384 l 1,3,-1
 320 384 l 1,4,5
 320 397 320 397 310 407 c 0,6,7
 300 416 300 416 288 416 c 0,8,9
 275 416 275 416 265 406 c 2,10,-1
 110 246 l 1,11,-1
 110 246 l 1,12,-1
 64 199 l 1,13,-1
 64 199 l 1,14,-1
 64 384 l 1,15,-1
 64 384 l 1,16,17
 64 398 64 398 55 407 c 256,18,19
 46 416 46 416 32 416 c 256,20,21
 18 416 18 416 9 407 c 256,22,23
 0 398 0 398 0 384 c 2,24,-1
 0 120 l 1,25,-1
 0 120 l 1,26,-1
 0 0 l 1,27,-1
 0 0 l 1,28,29
 0 -14 0 -14 9 -23 c 256,30,31
 18 -32 18 -32 32 -32 c 256,32,33
 46 -32 46 -32 55 -23 c 256,34,35
 64 -14 64 -14 64 0 c 2,36,-1
 64 107 l 1,37,-1
 64 107 l 1,38,-1
 129 174 l 1,39,-1
 129 174 l 1,40,-1
 262 -18 l 1,41,-1
 262 -18 l 1,42,43
 270 -29 270 -29 282 -32 c 0,44,45
 295 -34 295 -34 306 -26 c 256,46,47
 317 -18 317 -18 319 -6 c 0,48,49
 322 7 322 7 314 18 c 2,50,-1
 174 221 l 1,51,-1
 174 221 l 1,52,-1
 311 362 l 1,53,-1
 311 362 l 1,0,1
EndSplineSet
EndChar

StartChar: l
Encoding: 76 76 33
AltUni2: 00006c.ffffffff.0 00006c.ffffffff.0
Width: 320
GlyphClass: 1
Flags: W
LayerCount: 2
Fore
SplineSet
64 416 m 1,0,1
 78 416 78 416 87 407 c 1,2,-1
 87 407 l 1,3,-1
 87 407 l 1,4,5
 96 398 96 398 96 384 c 2,6,-1
 96 32 l 1,7,-1
 96 32 l 1,8,-1
 288 32 l 1,9,-1
 288 32 l 1,10,11
 302 32 302 32 311 23 c 256,12,13
 320 14 320 14 320 0 c 256,14,15
 320 -14 320 -14 311 -23 c 256,16,17
 302 -32 302 -32 288 -32 c 2,18,-1
 64 -32 l 1,19,-1
 64 -32 l 1,20,21
 50 -32 50 -32 41 -23 c 256,22,23
 32 -14 32 -14 32 0 c 2,24,-1
 32 384 l 1,25,-1
 32 384 l 1,26,27
 32 398 32 398 41 407 c 256,28,29
 50 416 50 416 64 416 c 1,30,-1
 64 416 l 1,0,1
EndSplineSet
EndChar

StartChar: m
Encoding: 77 77 34
AltUni2: 00006d.ffffffff.0 00006d.ffffffff.0
Width: 448
GlyphClass: 1
Flags: W
LayerCount: 2
Fore
SplineSet
23 415 m 1,0,1
 45 420 45 420 59 402 c 2,2,-1
 224 154 l 1,3,-1
 224 154 l 1,4,-1
 389 402 l 1,5,-1
 389 402 l 1,6,7
 403 420 403 420 425 415 c 0,8,9
 447 407 447 407 448 384 c 2,10,-1
 448 0 l 1,11,-1
 448 0 l 1,12,13
 448 -14 448 -14 439 -23 c 256,14,15
 430 -32 430 -32 416 -32 c 256,16,17
 402 -32 402 -32 393 -23 c 256,18,19
 384 -14 384 -14 384 0 c 2,20,-1
 384 278 l 1,21,-1
 384 278 l 1,22,-1
 251 78 l 1,23,-1
 251 78 l 1,24,25
 241 64 241 64 224 64 c 256,26,27
 207 64 207 64 197 78 c 2,28,-1
 64 278 l 1,29,-1
 64 278 l 1,30,-1
 64 0 l 1,31,-1
 64 0 l 1,32,33
 64 -14 64 -14 55 -23 c 256,34,35
 46 -32 46 -32 32 -32 c 256,36,37
 18 -32 18 -32 9 -23 c 256,38,39
 0 -14 0 -14 0 0 c 2,40,-1
 0 384 l 1,41,-1
 0 384 l 1,42,43
 1 407 1 407 23 415 c 1,44,-1
 23 415 l 1,0,1
EndSplineSet
EndChar

StartChar: n
Encoding: 78 78 35
AltUni2: 00006e.ffffffff.0 00006e.ffffffff.0
Width: 384
GlyphClass: 1
Flags: W
LayerCount: 2
Fore
SplineSet
21 414 m 1,0,1
 42 420 42 420 57 404 c 2,2,-1
 320 88 l 1,3,-1
 320 88 l 1,4,-1
 320 384 l 1,5,-1
 320 384 l 1,6,7
 320 398 320 398 329 407 c 256,8,9
 338 416 338 416 352 416 c 256,10,11
 366 416 366 416 375 407 c 256,12,13
 384 398 384 398 384 384 c 2,14,-1
 384 0 l 1,15,-1
 384 0 l 1,16,17
 383 -22 383 -22 363 -30 c 0,18,19
 342 -36 342 -36 327 -21 c 2,20,-1
 64 296 l 1,21,-1
 64 296 l 1,22,-1
 64 0 l 1,23,-1
 64 0 l 1,24,25
 64 -14 64 -14 55 -23 c 256,26,27
 46 -32 46 -32 32 -32 c 256,28,29
 18 -32 18 -32 9 -23 c 256,30,31
 0 -14 0 -14 0 0 c 2,32,-1
 0 384 l 1,33,-1
 0 384 l 1,34,35
 1 406 1 406 21 414 c 1,36,-1
 21 414 l 1,0,1
EndSplineSet
EndChar

StartChar: o
Encoding: 79 79 36
AltUni2: 00006f.ffffffff.0 00006f.ffffffff.0
Width: 448
GlyphClass: 1
Flags: W
LayerCount: 2
Fore
SplineSet
224 352 m 1,0,1
 181 352 181 352 144 331 c 1,2,-1
 144 331 l 1,3,-1
 144 331 l 1,4,5
 107 309 107 309 85 272 c 0,6,7
 64 234 64 234 64 192 c 256,8,9
 64 150 64 150 85 112 c 0,10,11
 107 75 107 75 144 53 c 0,12,13
 181 32 181 32 224 32 c 256,14,15
 267 32 267 32 304 53 c 0,16,17
 341 75 341 75 363 112 c 0,18,19
 384 150 384 150 384 192 c 256,20,21
 384 234 384 234 363 272 c 0,22,23
 341 309 341 309 304 331 c 0,24,25
 267 352 267 352 224 352 c 1,26,-1
 224 352 l 1,0,1
448 192 m 1,27,28
 447 131 447 131 418 80 c 1,29,-1
 418 80 l 1,30,-1
 418 80 l 1,31,32
 388 29 388 29 336 -2 c 0,33,34
 283 -32 283 -32 224 -32 c 256,35,36
 165 -32 165 -32 112 -2 c 0,37,38
 60 29 60 29 30 80 c 0,39,40
 1 131 1 131 0 192 c 0,41,42
 1 253 1 253 30 304 c 0,43,44
 60 355 60 355 112 386 c 0,45,46
 165 416 165 416 224 416 c 256,47,48
 283 416 283 416 336 386 c 0,49,50
 388 355 388 355 418 304 c 0,51,52
 447 253 447 253 448 192 c 1,53,-1
 448 192 l 1,27,28
EndSplineSet
EndChar

StartChar: p
Encoding: 80 80 37
AltUni2: 000070.ffffffff.0 000070.ffffffff.0
Width: 320
GlyphClass: 1
Flags: W
LayerCount: 2
Fore
SplineSet
0 352 m 1,0,1
 1 379 1 379 19 397 c 1,2,-1
 19 397 l 1,3,-1
 19 397 l 1,4,5
 37 415 37 415 64 416 c 2,6,-1
 160 416 l 1,7,-1
 160 416 l 1,8,9
 228 414 228 414 273 369 c 256,10,11
 318 324 318 324 320 256 c 0,12,13
 318 188 318 188 273 143 c 256,14,15
 228 98 228 98 160 96 c 2,16,-1
 64 96 l 1,17,-1
 64 96 l 1,18,-1
 64 0 l 1,19,-1
 64 0 l 1,20,21
 64 -14 64 -14 55 -23 c 256,22,23
 46 -32 46 -32 32 -32 c 256,24,25
 18 -32 18 -32 9 -23 c 256,26,27
 0 -14 0 -14 0 0 c 2,28,-1
 0 128 l 1,29,-1
 0 128 l 1,30,-1
 0 352 l 1,31,-1
 0 352 l 1,0,1
64 160 m 1,32,-1
 160 160 l 1,33,-1
 64 160 l 1,34,-1
 160 160 l 2,35,36
 201 161 201 161 228 188 c 256,37,38
 255 215 255 215 256 256 c 0,39,40
 255 297 255 297 228 324 c 256,41,42
 201 351 201 351 160 352 c 2,43,-1
 64 352 l 1,44,-1
 64 352 l 1,45,-1
 64 160 l 1,46,-1
 64 160 l 1,32,-1
EndSplineSet
EndChar

StartChar: q
Encoding: 81 81 38
AltUni2: 000071.ffffffff.0 000071.ffffffff.0
Width: 448
GlyphClass: 1
Flags: W
LayerCount: 2
Fore
SplineSet
64 192 m 1,0,1
 66 124 66 124 111 79 c 1,2,-1
 111 79 l 1,3,-1
 111 79 l 1,4,5
 156 34 156 34 224 32 c 0,6,7
 268 33 268 33 303 53 c 1,8,-1
 231 139 l 1,9,-1
 231 139 l 1,10,11
 223 150 223 150 224 163 c 256,12,13
 225 176 225 176 236 185 c 0,14,15
 246 193 246 193 259 192 c 256,16,17
 272 191 272 191 281 180 c 2,18,-1
 352 95 l 1,19,-1
 352 95 l 1,20,21
 383 137 383 137 384 192 c 0,22,23
 382 260 382 260 337 305 c 256,24,25
 292 350 292 350 224 352 c 0,26,27
 156 350 156 350 111 305 c 256,28,29
 66 260 66 260 64 192 c 1,30,-1
 64 192 l 1,0,1
345 3 m 1,31,32
 292 -31 292 -31 224 -32 c 0,33,34
 161 -31 161 -31 111 -1 c 0,35,36
 60 28 60 28 31 79 c 0,37,38
 1 129 1 129 0 192 c 0,39,40
 1 255 1 255 31 305 c 0,41,42
 60 356 60 356 111 385 c 0,43,44
 161 415 161 415 224 416 c 0,45,46
 287 415 287 415 337 385 c 0,47,48
 388 356 388 356 417 305 c 0,49,50
 447 255 447 255 448 192 c 0,51,52
 446 106 446 106 393 45 c 1,53,-1
 441 -12 l 1,54,-1
 441 -12 l 1,55,56
 449 -22 449 -22 448 -35 c 256,57,58
 447 -48 447 -48 436 -57 c 0,59,60
 426 -65 426 -65 413 -64 c 256,61,62
 400 -63 400 -63 391 -53 c 2,63,-1
 345 3 l 1,64,-1
 345 3 l 1,31,32
EndSplineSet
EndChar

StartChar: r
Encoding: 82 82 39
AltUni2: 000072.ffffffff.0 000072.ffffffff.0
Width: 320
GlyphClass: 1
Flags: W
LayerCount: 2
Fore
SplineSet
64 416 m 1,0,1
 37 415 37 415 19 397 c 1,2,-1
 19 397 l 1,3,-1
 19 397 l 1,4,5
 1 379 1 379 0 352 c 2,6,-1
 0 160 l 1,7,-1
 0 160 l 1,8,-1
 0 0 l 1,9,-1
 0 0 l 1,10,11
 0 -14 0 -14 9 -23 c 256,12,13
 18 -32 18 -32 32 -32 c 256,14,15
 46 -32 46 -32 55 -23 c 256,16,17
 64 -14 64 -14 64 0 c 2,18,-1
 64 128 l 1,19,-1
 64 128 l 1,20,-1
 159 128 l 1,21,-1
 159 128 l 1,22,-1
 262 -18 l 1,23,-1
 262 -18 l 1,24,25
 270 -29 270 -29 282 -32 c 0,26,27
 295 -34 295 -34 306 -26 c 256,28,29
 317 -18 317 -18 320 -6 c 0,30,31
 322 7 322 7 314 18 c 2,32,-1
 230 138 l 1,33,-1
 230 138 l 1,34,35
 270 155 270 155 295 191 c 0,36,37
 319 226 319 226 320 272 c 0,38,39
 318 333 318 333 278 374 c 0,40,41
 237 414 237 414 176 416 c 2,42,-1
 64 416 l 1,43,-1
 64 416 l 1,0,1
176 192 m 1,44,-1
 64 192 l 1,45,-1
 176 192 l 1,46,-1
 64 192 l 1,47,-1
 64 352 l 1,48,-1
 64 352 l 1,49,-1
 176 352 l 1,50,-1
 176 352 l 1,51,52
 210 351 210 351 233 329 c 0,53,54
 255 306 255 306 256 272 c 0,55,56
 255 238 255 238 233 215 c 0,57,58
 210 193 210 193 176 192 c 1,59,-1
 176 192 l 1,44,-1
EndSplineSet
EndChar

StartChar: s
Encoding: 83 83 40
AltUni2: 000073.ffffffff.0 000073.ffffffff.0
Width: 320
GlyphClass: 1
Flags: W
LayerCount: 2
Fore
SplineSet
99 343 m 1,0,1
 69 330 69 330 65 303 c 0,2,3
 62 283 62 283 67 274 c 0,4,5
 71 264 71 264 84 255 c 0,6,7
 113 237 113 237 169 223 c 1,8,9
 169 223 169 223 169 223 c 1,10,11
 171 222 171 222 172 222 c 0,12,13
 197 215 197 215 224 206 c 0,14,15
 250 196 250 196 273 181 c 0,16,17
 297 165 297 165 311 136 c 0,18,19
 324 106 324 106 318 70 c 0,20,21
 304 6 304 6 246 -18 c 0,22,23
 191 -40 191 -40 122 -28 c 1,24,-1
 122 -28 l 1,25,-1
 122 -28 l 1,26,27
 122 -28 122 -28 122 -28 c 257,28,29
 122 -28 122 -28 122 -28 c 1,30,31
 103 -25 103 -25 79 -17 c 0,32,33
 54 -10 54 -10 34 -3 c 0,34,35
 29 -1 29 -1 25 0 c 0,36,37
 23 1 23 1 22 1 c 0,38,39
 9 6 9 6 3 18 c 0,40,41
 -2 29 -2 29 2 42 c 256,42,43
 6 55 6 55 18 61 c 0,44,45
 29 66 29 66 42 62 c 0,46,47
 49 60 49 60 58 57 c 0,48,49
 59 57 59 57 60 56 c 0,50,51
 80 50 80 50 99 43 c 0,52,53
 119 37 119 37 132 35 c 0,54,55
 189 27 189 27 221 41 c 0,56,57
 251 54 251 54 255 81 c 0,58,59
 258 101 258 101 253 110 c 0,60,61
 249 120 249 120 236 129 c 0,62,63
 207 147 207 147 151 161 c 1,64,65
 151 161 151 161 151 161 c 1,66,67
 149 162 149 162 148 162 c 0,68,69
 123 169 123 169 96 178 c 0,70,71
 70 188 70 188 47 203 c 0,72,73
 23 219 23 219 9 248 c 0,74,75
 -4 278 -4 278 2 314 c 1,76,-1
 34 309 l 1,77,-1
 34 309 l 1,78,-1
 2 314 l 1,79,-1
 2 314 l 1,80,81
 16 378 16 378 74 401 c 0,82,83
 129 424 129 424 198 412 c 0,84,85
 209 411 209 411 230 406 c 0,86,87
 252 402 252 402 264 399 c 0,88,89
 277 395 277 395 284 384 c 0,90,91
 290 373 290 373 287 360 c 0,92,93
 283 347 283 347 272 340 c 0,94,95
 261 334 261 334 248 337 c 0,96,97
 238 340 238 340 218 343 c 0,98,99
 198 347 198 347 188 349 c 1,100,-1
 193 380 l 1,101,-1
 193 380 l 1,102,-1
 188 349 l 1,103,-1
 188 349 l 1,104,105
 131 357 131 357 99 342 c 1,106,-1
 99 343 l 1,0,1
EndSplineSet
EndChar

StartChar: t
Encoding: 84 84 41
AltUni2: 000074.ffffffff.0 000074.ffffffff.0
Width: 384
GlyphClass: 1
Flags: W
LayerCount: 2
Fore
SplineSet
32 416 m 2,0,1
 18 416 18 416 9 407 c 1,2,-1
 9 407 l 1,3,-1
 9 407 l 1,4,5
 0 398 0 398 0 384 c 256,6,7
 0 370 0 370 9 361 c 256,8,9
 18 352 18 352 32 352 c 2,10,-1
 160 352 l 1,11,-1
 160 352 l 1,12,-1
 160 0 l 1,13,-1
 160 0 l 1,14,15
 160 -14 160 -14 169 -23 c 256,16,17
 178 -32 178 -32 192 -32 c 256,18,19
 206 -32 206 -32 215 -23 c 256,20,21
 224 -14 224 -14 224 0 c 2,22,-1
 224 352 l 1,23,-1
 224 352 l 1,24,-1
 352 352 l 1,25,-1
 352 352 l 1,26,27
 366 352 366 352 375 361 c 256,28,29
 384 370 384 370 384 384 c 256,30,31
 384 398 384 398 375 407 c 256,32,33
 366 416 366 416 352 416 c 2,34,-1
 192 416 l 1,35,-1
 32 416 l 2,0,1
EndSplineSet
EndChar

StartChar: u
Encoding: 85 85 42
AltUni2: 000075.ffffffff.0 000075.ffffffff.0
Width: 384
GlyphClass: 1
Flags: W
LayerCount: 2
Fore
SplineSet
32 416 m 1,0,1
 46 416 46 416 55 407 c 1,2,-1
 55 407 l 1,3,-1
 55 407 l 1,4,5
 64 398 64 398 64 384 c 2,6,-1
 64 160 l 1,7,-1
 64 160 l 1,8,9
 65 106 65 106 101 69 c 0,10,11
 138 33 138 33 192 32 c 0,12,13
 246 33 246 33 283 69 c 0,14,15
 319 106 319 106 320 160 c 2,16,-1
 320 384 l 1,17,-1
 320 384 l 1,18,19
 320 398 320 398 329 407 c 256,20,21
 338 416 338 416 352 416 c 256,22,23
 366 416 366 416 375 407 c 256,24,25
 384 398 384 398 384 384 c 2,26,-1
 384 160 l 1,27,-1
 384 160 l 1,28,29
 382 78 382 78 328 24 c 256,30,31
 274 -30 274 -30 192 -32 c 0,32,33
 110 -30 110 -30 56 24 c 256,34,35
 2 78 2 78 0 160 c 2,36,-1
 0 384 l 1,37,-1
 0 384 l 1,38,39
 0 398 0 398 9 407 c 256,40,41
 18 416 18 416 32 416 c 1,42,-1
 32 416 l 1,0,1
EndSplineSet
EndChar

StartChar: v
Encoding: 86 86 43
AltUni2: 000076.ffffffff.0 000076.ffffffff.0
Width: 384
GlyphClass: 1
Flags: W
LayerCount: 2
Fore
SplineSet
20 413 m 1,0,1
 32 418 32 418 44 414 c 1,2,-1
 44 414 l 1,3,-1
 44 414 l 1,4,5
 56 409 56 409 62 396 c 2,6,-1
 192 83 l 1,7,-1
 192 83 l 1,8,-1
 323 396 l 1,9,-1
 323 396 l 1,10,11
 328 409 328 409 340 414 c 0,12,13
 352 418 352 418 364 413 c 0,14,15
 377 408 377 408 382 396 c 0,16,17
 386 384 386 384 382 372 c 2,18,-1
 222 -12 l 1,19,-1
 222 -12 l 1,20,21
 213 -31 213 -31 192 -32 c 0,22,23
 171 -31 171 -31 163 -12 c 2,24,-1
 3 372 l 1,25,-1
 3 372 l 1,26,27
 -2 384 -2 384 2 396 c 0,28,29
 7 408 7 408 20 413 c 1,30,-1
 20 413 l 1,0,1
EndSplineSet
EndChar

StartChar: w
Encoding: 87 87 44
AltUni2: 000077.ffffffff.0 000077.ffffffff.0
Width: 576
GlyphClass: 1
Flags: W
LayerCount: 2
Fore
SplineSet
21 414 m 1,0,1
 34 418 34 418 45 413 c 1,2,-1
 45 413 l 1,3,-1
 45 413 l 1,4,5
 57 408 57 408 62 395 c 2,6,-1
 172 101 l 1,7,-1
 172 101 l 1,8,-1
 257 393 l 1,9,-1
 257 393 l 1,10,11
 265 415 265 415 288 416 c 0,12,13
 311 415 311 415 319 393 c 2,14,-1
 404 101 l 1,15,-1
 404 101 l 1,16,-1
 514 395 l 1,17,-1
 514 395 l 1,18,19
 519 408 519 408 531 413 c 0,20,21
 542 418 542 418 555 414 c 0,22,23
 568 409 568 409 573 397 c 0,24,25
 578 386 578 386 574 373 c 2,26,-1
 430 -11 l 1,27,-1
 430 -11 l 1,28,29
 421 -32 421 -32 399 -32 c 0,30,31
 376 -30 376 -30 369 -9 c 2,32,-1
 288 270 l 1,33,-1
 288 270 l 1,34,-1
 207 -9 l 1,35,-1
 207 -9 l 1,36,37
 199 -30 199 -30 177 -32 c 0,38,39
 155 -32 155 -32 146 -11 c 2,40,-1
 2 373 l 1,41,-1
 2 373 l 1,42,43
 -2 386 -2 386 3 397 c 0,44,45
 8 409 8 409 21 414 c 1,46,-1
 21 414 l 1,0,1
EndSplineSet
EndChar

StartChar: x
Encoding: 88 88 45
AltUni2: 000078.ffffffff.0 000078.ffffffff.0
Width: 384
GlyphClass: 1
Flags: W
LayerCount: 2
Fore
SplineSet
377 363 m 1,0,1
 385 374 385 374 384 387 c 1,2,-1
 384 387 l 1,3,-1
 384 387 l 1,4,5
 383 400 383 400 373 409 c 0,6,7
 362 417 362 417 349 416 c 256,8,9
 336 415 336 415 327 404 c 2,10,-1
 192 242 l 1,11,-1
 192 242 l 1,12,-1
 57 404 l 1,13,-1
 57 404 l 1,14,15
 48 415 48 415 35 416 c 256,16,17
 22 417 22 417 12 409 c 0,18,19
 1 400 1 400 0 387 c 256,20,21
 -1 374 -1 374 7 363 c 2,22,-1
 150 192 l 1,23,-1
 150 192 l 1,24,-1
 7 20 l 1,25,-1
 7 20 l 1,26,27
 -1 10 -1 10 0 -3 c 256,28,29
 1 -16 1 -16 12 -25 c 0,30,31
 22 -33 22 -33 35 -32 c 256,32,33
 48 -31 48 -31 57 -21 c 2,34,-1
 192 142 l 1,35,-1
 192 142 l 1,36,-1
 327 -21 l 1,37,-1
 327 -21 l 1,38,39
 336 -31 336 -31 349 -32 c 256,40,41
 362 -33 362 -33 373 -25 c 0,42,43
 383 -16 383 -16 384 -3 c 256,44,45
 385 10 385 10 377 20 c 2,46,-1
 234 192 l 1,47,-1
 234 192 l 1,48,-1
 377 363 l 1,49,-1
 377 363 l 1,0,1
EndSplineSet
EndChar

StartChar: y
Encoding: 89 89 46
AltUni2: 000079.ffffffff.0 000079.ffffffff.0
Width: 384
GlyphClass: 1
Flags: W
LayerCount: 2
Fore
SplineSet
58 403 m 1,0,1
 50 413 50 413 37 416 c 1,2,-1
 37 416 l 1,3,-1
 37 416 l 1,4,5
 25 418 25 418 13 410 c 0,6,7
 3 402 3 402 0 389 c 0,8,9
 -2 377 -2 377 6 365 c 2,10,-1
 160 150 l 1,11,-1
 160 150 l 1,12,-1
 160 0 l 1,13,-1
 160 0 l 1,14,15
 160 -14 160 -14 169 -23 c 256,16,17
 178 -32 178 -32 192 -32 c 256,18,19
 206 -32 206 -32 215 -23 c 256,20,21
 224 -14 224 -14 224 0 c 2,22,-1
 224 150 l 1,23,-1
 224 150 l 1,24,-1
 378 365 l 1,25,-1
 378 365 l 1,26,27
 386 377 386 377 384 389 c 0,28,29
 381 402 381 402 371 410 c 0,30,31
 359 418 359 418 347 416 c 0,32,33
 334 413 334 413 326 403 c 2,34,-1
 192 215 l 1,35,-1
 192 215 l 1,36,-1
 58 403 l 1,37,-1
 58 403 l 1,0,1
EndSplineSet
EndChar

StartChar: z
Encoding: 90 90 47
AltUni2: 00007a.ffffffff.0 00007a.ffffffff.0
Width: 384
GlyphClass: 1
Flags: W
LayerCount: 2
Fore
SplineSet
0 384 m 1,0,1
 0 398 0 398 9 407 c 1,2,-1
 9 407 l 1,3,-1
 9 407 l 1,4,5
 18 416 18 416 32 416 c 2,6,-1
 352 416 l 1,7,-1
 352 416 l 1,8,9
 372 415 372 415 381 398 c 0,10,11
 389 379 389 379 377 363 c 2,12,-1
 100 32 l 1,13,-1
 100 32 l 1,14,-1
 352 32 l 1,15,-1
 352 32 l 1,16,17
 366 32 366 32 375 23 c 256,18,19
 384 14 384 14 384 0 c 256,20,21
 384 -14 384 -14 375 -23 c 256,22,23
 366 -32 366 -32 352 -32 c 2,24,-1
 32 -32 l 1,25,-1
 32 -32 l 1,26,27
 12 -31 12 -31 3 -14 c 0,28,29
 -5 5 -5 5 7 20 c 2,30,-1
 284 352 l 1,31,-1
 284 352 l 1,32,-1
 32 352 l 1,33,-1
 32 352 l 1,34,35
 18 352 18 352 9 361 c 256,36,37
 0 370 0 370 0 384 c 1,38,-1
 0 384 l 1,0,1
EndSplineSet
EndChar

StartChar: faucet
Encoding: 57349 57349 48
Width: 512
GlyphClass: 1
Flags: W
LayerCount: 2
Fore
SplineSet
192 352 m 1,0,-1
 192 340 l 1,1,-1
 192 352 l 1,2,-1
 192 340 l 1,3,-1
 96 352 l 1,4,-1
 96 352 l 1,5,6
 82 352 82 352 73 343 c 256,7,8
 64 334 64 334 64 320 c 256,9,10
 64 306 64 306 73 297 c 256,11,12
 82 288 82 288 96 288 c 2,13,-1
 192 300 l 1,14,-1
 192 300 l 1,15,-1
 223 304 l 1,16,-1
 223 304 l 1,17,-1
 224 304 l 1,18,-1
 225 304 l 1,19,-1
 256 300 l 1,20,-1
 256 300 l 1,21,-1
 352 288 l 1,22,-1
 352 288 l 1,23,24
 366 288 366 288 375 297 c 256,25,26
 384 306 384 306 384 320 c 256,27,28
 384 334 384 334 375 343 c 256,29,30
 366 352 366 352 352 352 c 2,31,-1
 256 340 l 1,32,-1
 256 340 l 1,33,-1
 256 352 l 1,34,-1
 256 352 l 1,35,36
 256 366 256 366 247 375 c 256,37,38
 238 384 238 384 224 384 c 256,39,40
 210 384 210 384 201 375 c 256,41,42
 192 366 192 366 192 352 c 1,43,-1
 192 352 l 1,0,-1
32 192 m 1,44,45
 18 192 18 192 9 183 c 1,46,-1
 9 183 l 1,47,-1
 9 183 l 1,48,49
 0 174 0 174 0 160 c 2,50,-1
 0 96 l 1,51,-1
 0 96 l 1,52,53
 0 82 0 82 9 73 c 256,54,55
 18 64 18 64 32 64 c 2,56,-1
 132 64 l 1,57,-1
 132 64 l 1,58,59
 165 18 165 18 224 16 c 0,60,61
 283 18 283 18 316 64 c 1,62,-1
 352 64 l 1,63,-1
 352 64 l 1,64,65
 366 64 366 64 375 55 c 256,66,67
 384 46 384 46 384 32 c 256,68,69
 384 18 384 18 393 9 c 256,70,71
 402 0 402 0 416 0 c 2,72,-1
 480 0 l 1,73,-1
 480 0 l 1,74,75
 494 0 494 0 503 9 c 256,76,77
 512 18 512 18 512 32 c 0,78,79
 510 100 510 100 465 145 c 256,80,81
 420 190 420 190 352 192 c 2,82,-1
 320 192 l 1,83,-1
 320 192 l 1,84,-1
 297 215 l 1,85,-1
 297 215 l 1,86,87
 288 224 288 224 275 224 c 2,88,-1
 256 224 l 1,89,-1
 256 224 l 1,90,-1
 256 268 l 1,91,-1
 256 268 l 1,92,-1
 224 272 l 1,93,-1
 224 272 l 1,94,-1
 192 268 l 1,95,-1
 192 268 l 1,96,-1
 192 224 l 1,97,-1
 192 224 l 1,98,-1
 173 224 l 1,99,-1
 173 224 l 1,100,101
 160 224 160 224 151 215 c 2,102,-1
 128 192 l 1,103,-1
 128 192 l 1,104,-1
 32 192 l 1,105,-1
 32 192 l 1,44,45
EndSplineSet
EndChar

StartChar: faucet-drip
Encoding: 57350 57350 49
AltUni2: 01f6b0.ffffffff.0 01f6b0.ffffffff.0
Width: 512
GlyphClass: 1
Flags: W
LayerCount: 2
Fore
SplineSet
224 448 m 1,0,1
 238 448 238 448 247 439 c 1,2,-1
 247 439 l 1,3,-1
 247 439 l 1,4,5
 256 430 256 430 256 416 c 2,6,-1
 256 404 l 1,7,-1
 256 404 l 1,8,-1
 352 416 l 1,9,-1
 352 416 l 1,10,11
 366 416 366 416 375 407 c 256,12,13
 384 398 384 398 384 384 c 256,14,15
 384 370 384 370 375 361 c 256,16,17
 366 352 366 352 352 352 c 2,18,-1
 256 364 l 1,19,-1
 256 364 l 1,20,-1
 225 368 l 1,21,-1
 225 368 l 1,22,-1
 224 368 l 1,23,-1
 223 368 l 1,24,-1
 192 364 l 1,25,-1
 192 364 l 1,26,-1
 96 352 l 1,27,-1
 96 352 l 1,28,29
 82 352 82 352 73 361 c 256,30,31
 64 370 64 370 64 384 c 256,32,33
 64 398 64 398 73 407 c 256,34,35
 82 416 82 416 96 416 c 2,36,-1
 192 404 l 1,37,-1
 192 404 l 1,38,-1
 192 416 l 1,39,-1
 192 416 l 1,40,41
 192 430 192 430 201 439 c 256,42,43
 210 448 210 448 224 448 c 1,44,-1
 224 448 l 1,0,1
0 224 m 1,45,46
 0 238 0 238 9 247 c 1,47,-1
 9 247 l 1,48,-1
 9 247 l 1,49,50
 18 256 18 256 32 256 c 2,51,-1
 128 256 l 1,52,-1
 128 256 l 1,53,-1
 151 279 l 1,54,-1
 151 279 l 1,55,56
 160 288 160 288 173 288 c 2,57,-1
 192 288 l 1,58,-1
 192 288 l 1,59,-1
 192 332 l 1,60,-1
 192 332 l 1,61,-1
 224 336 l 1,62,-1
 224 336 l 1,63,-1
 256 332 l 1,64,-1
 256 332 l 1,65,-1
 256 288 l 1,66,-1
 256 288 l 1,67,-1
 275 288 l 1,68,-1
 275 288 l 1,69,70
 288 288 288 288 297 279 c 2,71,-1
 320 256 l 1,72,-1
 320 256 l 1,73,-1
 352 256 l 1,74,-1
 352 256 l 1,75,76
 420 254 420 254 465 209 c 256,77,78
 510 164 510 164 512 96 c 0,79,80
 512 82 512 82 503 73 c 256,81,82
 494 64 494 64 480 64 c 2,83,-1
 416 64 l 1,84,-1
 416 64 l 1,85,86
 402 64 402 64 393 73 c 256,87,88
 384 82 384 82 384 96 c 256,89,90
 384 110 384 110 375 119 c 256,91,92
 366 128 366 128 352 128 c 2,93,-1
 316 128 l 1,94,-1
 316 128 l 1,95,96
 283 82 283 82 224 80 c 0,97,98
 165 82 165 82 132 128 c 1,99,-1
 32 128 l 1,100,-1
 32 128 l 1,101,102
 18 128 18 128 9 137 c 256,103,104
 0 146 0 146 0 160 c 2,105,-1
 0 224 l 1,106,-1
 0 224 l 1,45,46
437 25 m 1,107,108
 440 32 440 32 448 32 c 256,109,110
 456 32 456 32 459 25 c 2,111,-1
 477 -18 l 1,112,-1
 477 -18 l 1,113,114
 480 -24 480 -24 480 -31 c 2,115,-1
 480 -32 l 1,116,-1
 480 -32 l 1,117,118
 480 -46 480 -46 471 -55 c 256,119,120
 462 -64 462 -64 448 -64 c 256,121,122
 434 -64 434 -64 425 -55 c 256,123,124
 416 -46 416 -46 416 -32 c 2,125,-1
 416 -31 l 1,126,-1
 416 -31 l 1,127,128
 416 -24 416 -24 419 -18 c 2,129,-1
 437 25 l 1,130,-1
 437 25 l 1,107,108
EndSplineSet
EndChar

StartChar: house-chimney-window
Encoding: 57357 57357 50
Width: 576
GlyphClass: 1
Flags: W
LayerCount: 2
Fore
SplineSet
576 192 m 2,0,1
 575 179 575 179 566 170 c 1,2,-1
 566 170 l 1,3,-1
 566 170 l 1,4,5
 557 161 557 161 544 160 c 2,6,-1
 512 160 l 1,7,-1
 512 160 l 1,8,-1
 513 0 l 1,9,-1
 513 0 l 1,10,11
 512 -27 512 -27 494 -45 c 256,12,13
 476 -63 476 -63 449 -64 c 2,14,-1
 128 -64 l 1,15,-1
 128 -64 l 1,16,17
 101 -63 101 -63 83 -45 c 256,18,19
 65 -27 65 -27 64 0 c 2,20,-1
 64 160 l 1,21,-1
 64 160 l 1,22,-1
 32 160 l 1,23,-1
 32 160 l 1,24,25
 18 161 18 161 9 170 c 256,26,27
 0 179 0 179 0 192 c 0,28,29
 0 206 0 206 10 216 c 2,30,-1
 266 440 l 1,31,-1
 266 440 l 1,32,33
 277 449 277 449 288 448 c 0,34,35
 300 448 300 448 309 441 c 2,36,-1
 416 347 l 1,37,-1
 416 347 l 1,38,-1
 416 384 l 1,39,-1
 416 384 l 1,40,41
 416 398 416 398 425 407 c 256,42,43
 434 416 434 416 448 416 c 2,44,-1
 480 416 l 1,45,-1
 480 416 l 1,46,47
 494 416 494 416 503 407 c 256,48,49
 512 398 512 398 512 384 c 2,50,-1
 512 263 l 1,51,-1
 512 263 l 1,52,-1
 565 217 l 1,53,-1
 565 217 l 1,54,55
 577 206 577 206 576 193 c 2,56,-1
 576 192 l 2,0,1
248 256 m 1,57,58
 226 254 226 254 224 232 c 2,59,-1
 224 152 l 1,60,-1
 224 152 l 1,61,62
 226 130 226 130 248 128 c 2,63,-1
 328 128 l 1,64,-1
 328 128 l 1,65,66
 350 130 350 130 352 152 c 2,67,-1
 352 232 l 1,68,-1
 352 232 l 1,69,70
 350 254 350 254 328 256 c 2,71,-1
 248 256 l 1,72,-1
 248 256 l 1,57,58
EndSplineSet
EndChar

StartChar: house-signal
Encoding: 57362 57362 51
Width: 576
GlyphClass: 1
Flags: W
LayerCount: 2
Fore
SplineSet
358 439 m 1,0,1
 348 448 348 448 336 448 c 1,2,-1
 336 448 l 1,3,-1
 336 448 l 1,4,5
 324 448 324 448 314 439 c 2,6,-1
 106 247 l 1,7,-1
 106 247 l 1,8,9
 92 233 92 233 98 213 c 1,10,11
 164 194 164 194 211 146 c 0,12,13
 259 98 259 98 278 32 c 1,14,-1
 464 32 l 1,15,-1
 464 32 l 1,16,17
 484 33 484 33 498 46 c 0,18,19
 511 60 511 60 512 80 c 2,20,-1
 512 192 l 1,21,-1
 512 192 l 1,22,-1
 544 192 l 1,23,-1
 544 192 l 1,24,25
 565 193 565 193 574 212 c 0,26,27
 581 232 581 232 566 247 c 2,28,-1
 358 439 l 1,29,-1
 358 439 l 1,0,1
288 240 m 1,30,31
 289 255 289 255 304 256 c 2,32,-1
 368 256 l 1,33,-1
 368 256 l 1,34,35
 383 255 383 255 384 240 c 2,36,-1
 384 176 l 1,37,-1
 384 176 l 1,38,39
 383 161 383 161 368 160 c 2,40,-1
 304 160 l 1,41,-1
 304 160 l 1,42,43
 289 161 289 161 288 176 c 2,44,-1
 288 240 l 1,45,-1
 288 240 l 1,30,31
24 192 m 1,46,47
 2 190 2 190 0 168 c 0,48,49
 2 146 2 146 24 144 c 0,50,51
 102 142 102 142 154 90 c 256,52,53
 206 38 206 38 208 -40 c 0,54,55
 210 -62 210 -62 232 -64 c 0,56,57
 254 -62 254 -62 256 -40 c 0,58,59
 255 25 255 25 224 77 c 256,60,61
 193 129 193 129 141 160 c 256,62,63
 89 191 89 191 24 192 c 1,64,-1
 24 192 l 1,46,47
32 -64 m 1,65,66
 46 -64 46 -64 55 -55 c 1,67,-1
 55 -55 l 1,68,-1
 55 -55 l 1,69,70
 64 -46 64 -46 64 -32 c 256,71,72
 64 -18 64 -18 55 -9 c 256,73,74
 46 0 46 0 32 0 c 256,75,76
 18 0 18 0 9 -9 c 256,77,78
 0 -18 0 -18 0 -32 c 256,79,80
 0 -46 0 -46 9 -55 c 256,81,82
 18 -64 18 -64 32 -64 c 1,83,-1
 32 -64 l 1,65,66
0 72 m 1,84,85
 2 50 2 50 24 48 c 0,86,87
 61 47 61 47 86 22 c 256,88,89
 111 -3 111 -3 112 -40 c 0,90,91
 114 -62 114 -62 136 -64 c 0,92,93
 158 -62 158 -62 160 -40 c 0,94,95
 159 18 159 18 120 56 c 0,96,97
 82 95 82 95 24 96 c 0,98,99
 2 94 2 94 0 72 c 1,100,-1
 0 72 l 1,84,85
EndSplineSet
EndChar

StartChar: temperature-arrow-down
Encoding: 57407 57407 52
Width: 576
GlyphClass: 1
Flags: W
LayerCount: 2
Fore
SplineSet
128 336 m 1,0,1
 129 356 129 356 142 370 c 1,2,-1
 142 370 l 1,3,-1
 142 370 l 1,4,5
 156 383 156 383 176 384 c 0,6,7
 196 383 196 383 210 370 c 0,8,9
 223 356 223 356 224 336 c 2,10,-1
 224 171 l 1,11,-1
 224 171 l 1,12,13
 226 145 226 145 239 129 c 0,14,15
 256 108 256 108 256 80 c 0,16,17
 255 46 255 46 233 23 c 0,18,19
 210 1 210 1 176 0 c 0,20,21
 142 1 142 1 119 23 c 0,22,23
 97 46 97 46 96 80 c 0,24,25
 96 108 96 108 113 129 c 0,26,27
 126 145 126 145 128 171 c 2,28,-1
 128 336 l 1,29,-1
 128 336 l 1,0,1
176 448 m 1,30,31
 128 447 128 447 97 415 c 1,32,-1
 97 415 l 1,33,-1
 97 415 l 1,34,35
 65 384 65 384 64 336 c 2,36,-1
 64 172 l 1,37,-1
 64 172 l 1,38,39
 64 172 64 172 64 171 c 1,40,41
 64 171 64 171 64 171 c 1,42,43
 63 170 63 170 62 168 c 0,44,45
 33 131 33 131 32 80 c 0,46,47
 34 19 34 19 74 -22 c 0,48,49
 115 -62 115 -62 176 -64 c 0,50,51
 237 -62 237 -62 278 -22 c 0,52,53
 318 19 318 19 320 80 c 0,54,55
 319 131 319 131 290 168 c 0,56,57
 289 170 289 170 288 171 c 1,58,59
 288 171 288 171 288 171 c 257,60,61
 288 171 288 171 288 171 c 1,62,-1
 288 336 l 1,63,-1
 288 336 l 1,64,65
 287 384 287 384 255 415 c 0,66,67
 224 447 224 447 176 448 c 1,68,-1
 176 448 l 1,30,31
176 32 m 1,69,70
 196 33 196 33 210 46 c 1,71,-1
 210 46 l 1,72,-1
 210 46 l 1,73,74
 223 60 223 60 224 80 c 0,75,76
 222 113 222 113 192 125 c 1,77,-1
 192 176 l 1,78,-1
 192 176 l 1,79,80
 191 191 191 191 176 192 c 0,81,82
 161 191 161 191 160 176 c 2,83,-1
 160 125 l 1,84,-1
 160 125 l 1,85,86
 130 113 130 113 128 80 c 0,87,88
 129 60 129 60 142 46 c 0,89,90
 156 33 156 33 176 32 c 1,91,-1
 176 32 l 1,69,70
512 96 m 1,92,-1
 480 96 l 1,93,-1
 512 96 l 1,94,-1
 480 96 l 1,95,-1
 480 384 l 1,96,-1
 480 384 l 1,97,98
 480 398 480 398 471 407 c 256,99,100
 462 416 462 416 448 416 c 256,101,102
 434 416 434 416 425 407 c 256,103,104
 416 398 416 398 416 384 c 2,105,-1
 416 96 l 1,106,-1
 416 96 l 1,107,-1
 384 96 l 1,108,-1
 384 96 l 1,109,110
 363 95 363 95 354 76 c 0,111,112
 347 57 347 57 361 41 c 2,113,-1
 425 -23 l 1,114,-1
 425 -23 l 1,115,116
 435 -32 435 -32 448 -32 c 256,117,118
 461 -32 461 -32 471 -23 c 2,119,-1
 535 41 l 1,120,-1
 535 41 l 1,121,122
 549 57 549 57 541 76 c 256,123,124
 533 95 533 95 512 96 c 1,125,-1
 512 96 l 1,92,-1
EndSplineSet
EndChar

StartChar: temperature-arrow-up
Encoding: 57408 57408 53
Width: 576
GlyphClass: 1
Flags: W
LayerCount: 2
Fore
SplineSet
128 336 m 1,0,1
 129 356 129 356 142 370 c 1,2,-1
 142 370 l 1,3,-1
 142 370 l 1,4,5
 156 383 156 383 176 384 c 0,6,7
 196 383 196 383 210 370 c 0,8,9
 223 356 223 356 224 336 c 2,10,-1
 224 171 l 1,11,-1
 224 171 l 1,12,13
 226 145 226 145 239 129 c 0,14,15
 256 108 256 108 256 80 c 0,16,17
 255 46 255 46 233 23 c 0,18,19
 210 1 210 1 176 0 c 0,20,21
 142 1 142 1 119 23 c 0,22,23
 97 46 97 46 96 80 c 0,24,25
 96 108 96 108 113 129 c 0,26,27
 126 145 126 145 128 171 c 2,28,-1
 128 336 l 1,29,-1
 128 336 l 1,0,1
176 448 m 1,30,31
 128 447 128 447 97 415 c 1,32,-1
 97 415 l 1,33,-1
 97 415 l 1,34,35
 65 384 65 384 64 336 c 2,36,-1
 64 172 l 1,37,-1
 64 172 l 1,38,39
 64 172 64 172 64 171 c 1,40,41
 64 171 64 171 64 171 c 1,42,43
 63 170 63 170 62 168 c 0,44,45
 33 131 33 131 32 80 c 0,46,47
 34 19 34 19 74 -22 c 0,48,49
 115 -62 115 -62 176 -64 c 0,50,51
 237 -62 237 -62 278 -22 c 0,52,53
 318 19 318 19 320 80 c 0,54,55
 319 131 319 131 290 168 c 0,56,57
 289 170 289 170 288 171 c 1,58,59
 288 171 288 171 288 171 c 257,60,61
 288 171 288 171 288 171 c 1,62,-1
 288 336 l 1,63,-1
 288 336 l 1,64,65
 287 384 287 384 255 415 c 0,66,67
 224 447 224 447 176 448 c 1,68,-1
 176 448 l 1,30,31
176 32 m 1,69,70
 196 33 196 33 210 46 c 1,71,-1
 210 46 l 1,72,-1
 210 46 l 1,73,74
 223 60 223 60 224 80 c 0,75,76
 222 113 222 113 192 125 c 1,77,-1
 192 336 l 1,78,-1
 192 336 l 1,79,80
 191 351 191 351 176 352 c 0,81,82
 161 351 161 351 160 336 c 2,83,-1
 160 125 l 1,84,-1
 160 125 l 1,85,86
 130 113 130 113 128 80 c 0,87,88
 129 60 129 60 142 46 c 0,89,90
 156 33 156 33 176 32 c 1,91,-1
 176 32 l 1,69,70
480 288 m 1,92,-1
 512 288 l 1,93,-1
 480 288 l 1,94,-1
 512 288 l 2,95,96
 533 289 533 289 542 308 c 0,97,98
 549 327 549 327 535 343 c 2,99,-1
 471 407 l 1,100,-1
 471 407 l 1,101,102
 461 416 461 416 448 416 c 256,103,104
 435 416 435 416 425 407 c 2,105,-1
 361 343 l 1,106,-1
 361 343 l 1,107,108
 347 327 347 327 354 308 c 0,109,110
 363 289 363 289 384 288 c 2,111,-1
 416 288 l 1,112,-1
 416 288 l 1,113,-1
 416 0 l 1,114,-1
 416 0 l 1,115,116
 416 -14 416 -14 425 -23 c 256,117,118
 434 -32 434 -32 448 -32 c 256,119,120
 462 -32 462 -32 471 -23 c 256,121,122
 480 -14 480 -14 480 0 c 2,123,-1
 480 288 l 1,124,-1
 480 288 l 1,92,-1
EndSplineSet
EndChar

StartChar: trailer
Encoding: 57409 57409 54
Width: 640
GlyphClass: 1
Flags: W
LayerCount: 2
Fore
SplineSet
48 416 m 1,0,1
 28 415 28 415 14 402 c 1,2,-1
 14 402 l 1,3,-1
 14 402 l 1,4,5
 1 388 1 388 0 368 c 2,6,-1
 0 112 l 1,7,-1
 0 112 l 1,8,9
 1 92 1 92 14 78 c 0,10,11
 28 65 28 65 48 64 c 2,12,-1
 65 64 l 1,13,-1
 65 64 l 1,14,15
 72 106 72 106 102 132 c 0,16,17
 133 159 133 159 176 160 c 0,18,19
 219 159 219 159 250 132 c 0,20,21
 280 106 280 106 287 64 c 1,22,-1
 488 64 l 1,23,-1
 608 64 l 2,24,25
 622 64 622 64 631 73 c 256,26,27
 640 82 640 82 640 96 c 256,28,29
 640 110 640 110 631 119 c 256,30,31
 622 128 622 128 608 128 c 2,32,-1
 544 128 l 1,33,-1
 544 128 l 1,34,-1
 544 368 l 1,35,-1
 544 368 l 1,36,37
 543 388 543 388 530 402 c 0,38,39
 516 415 516 415 496 416 c 2,40,-1
 48 416 l 1,41,-1
 48 416 l 1,0,1
80 352 m 1,42,43
 95 351 95 351 96 336 c 2,44,-1
 96 205 l 1,45,-1
 96 205 l 1,46,47
 79 196 79 196 64 184 c 1,48,-1
 64 336 l 1,49,-1
 64 336 l 1,50,51
 65 351 65 351 80 352 c 1,52,-1
 80 352 l 1,42,43
176 224 m 1,53,54
 168 224 168 224 160 223 c 1,55,-1
 160 336 l 1,56,-1
 160 336 l 1,57,58
 161 351 161 351 176 352 c 0,59,60
 191 351 191 351 192 336 c 2,61,-1
 192 223 l 1,62,-1
 192 223 l 1,63,64
 184 224 184 224 176 224 c 1,65,-1
 176 224 l 1,53,54
256 205 m 1,66,-1
 256 336 l 1,67,-1
 256 205 l 1,68,-1
 256 336 l 2,69,70
 257 351 257 351 272 352 c 0,71,72
 287 351 287 351 288 336 c 2,73,-1
 288 184 l 1,74,-1
 288 184 l 1,75,76
 273 196 273 196 256 205 c 1,77,-1
 256 205 l 1,66,-1
368 352 m 1,78,79
 383 351 383 351 384 336 c 2,80,-1
 384 144 l 1,81,-1
 384 144 l 1,82,83
 383 129 383 129 368 128 c 0,84,85
 353 129 353 129 352 144 c 2,86,-1
 352 336 l 1,87,-1
 352 336 l 1,88,89
 353 351 353 351 368 352 c 1,90,-1
 368 352 l 1,78,79
480 336 m 1,91,-1
 480 144 l 1,92,-1
 480 336 l 1,93,-1
 480 144 l 2,94,95
 479 129 479 129 464 128 c 0,96,97
 449 129 449 129 448 144 c 2,98,-1
 448 336 l 1,99,-1
 448 336 l 1,100,101
 449 351 449 351 464 352 c 0,102,103
 479 351 479 351 480 336 c 1,104,-1
 480 336 l 1,91,-1
176 -32 m 1,105,106
 221 -31 221 -31 245 8 c 0,107,108
 267 48 267 48 245 88 c 0,109,110
 221 127 221 127 176 128 c 0,111,112
 131 127 131 127 107 88 c 0,113,114
 85 48 85 48 107 8 c 0,115,116
 131 -31 131 -31 176 -32 c 1,117,-1
 176 -32 l 1,105,106
176 80 m 1,118,119
 190 80 190 80 199 71 c 1,120,-1
 199 71 l 1,121,-1
 199 71 l 1,122,123
 208 62 208 62 208 48 c 256,124,125
 208 34 208 34 199 25 c 256,126,127
 190 16 190 16 176 16 c 256,128,129
 162 16 162 16 153 25 c 256,130,131
 144 34 144 34 144 48 c 256,132,133
 144 62 144 62 153 71 c 256,134,135
 162 80 162 80 176 80 c 1,136,-1
 176 80 l 1,118,119
EndSplineSet
EndChar

StartChar: bacteria
Encoding: 57433 57433 55
Width: 640
GlyphClass: 1
Flags: W
LayerCount: 2
Fore
SplineSet
305 447 m 1,0,1
 289 450 289 450 283 435 c 2,2,-1
 278 420 l 1,3,-1
 278 420 l 1,4,5
 266 421 266 421 253 418 c 0,6,7
 242 415 242 415 232 412 c 1,8,-1
 227 425 l 1,9,-1
 227 425 l 1,10,11
 219 440 219 440 203 435 c 0,12,13
 188 427 188 427 193 411 c 2,14,-1
 198 400 l 1,15,-1
 198 400 l 1,16,17
 173 390 173 390 152 378 c 1,18,-1
 147 386 l 1,19,-1
 147 386 l 1,20,21
 137 399 137 399 122 391 c 0,22,23
 109 381 109 381 117 366 c 2,24,-1
 123 357 l 1,25,-1
 123 357 l 1,26,27
 103 340 103 340 87 322 c 1,28,-1
 77 330 l 1,29,-1
 77 330 l 1,30,31
 63 339 63 339 52 327 c 0,32,33
 43 313 43 313 55 302 c 2,34,-1
 66 293 l 1,35,-1
 66 293 l 1,36,37
 63 289 63 289 61 284 c 0,38,39
 51 267 51 267 45 251 c 1,40,-1
 37 255 l 1,41,-1
 37 255 l 1,42,43
 21 259 21 259 13 245 c 1,44,45
 9 229 9 229 23 221 c 2,46,-1
 34 217 l 1,47,-1
 34 217 l 1,48,49
 34 217 34 217 34 217 c 1,50,51
 33 216 33 216 33 215 c 0,52,53
 30 201 30 201 29 191 c 0,54,55
 29 188 29 188 29 185 c 0,56,57
 28 184 28 184 28 184 c 2,58,59
 28 183 28 183 28 182 c 256,60,61
 28 181 28 181 28 181 c 1,62,-1
 28 180 l 1,63,-1
 28 180 l 1,64,-1
 28 179 l 1,65,-1
 28 179 l 1,66,-1
 28 179 l 1,67,-1
 28 179 l 1,68,-1
 28 179 l 1,69,-1
 28 179 l 1,70,71
 27 179 27 179 32 179 c 0,72,73
 36 179 36 179 57 178 c 1,74,75
 57 178 57 178 57 178 c 1,76,-1
 28 179 l 1,77,-1
 28 179 l 1,78,79
 28 174 28 174 28 170 c 2,80,-1
 13 165 l 1,81,-1
 13 165 l 1,82,83
 -2 159 -2 159 1 143 c 0,84,85
 7 128 7 128 23 131 c 2,86,-1
 39 135 l 1,87,-1
 39 135 l 1,88,89
 50 114 50 114 71 103 c 1,90,-1
 67 87 l 1,91,-1
 67 87 l 1,92,93
 64 71 64 71 79 65 c 0,94,95
 95 62 95 62 101 77 c 2,96,-1
 106 92 l 1,97,-1
 106 92 l 1,98,99
 107 92 107 92 109 92 c 0,100,101
 133 92 133 92 152 102 c 1,102,-1
 161 93 l 1,103,-1
 161 93 l 1,104,105
 174 83 174 83 187 93 c 1,106,107
 197 106 197 106 187 119 c 2,108,-1
 180 126 l 1,109,-1
 180 126 l 1,110,111
 194 145 194 145 196 171 c 1,112,-1
 203 168 l 1,113,-1
 203 168 l 1,114,115
 219 162 219 162 227 177 c 0,116,117
 232 193 232 193 217 201 c 2,118,-1
 209 204 l 1,119,-1
 209 204 l 1,120,121
 217 220 217 220 245 238 c 1,122,-1
 247 233 l 1,123,-1
 247 233 l 1,124,125
 253 218 253 218 269 221 c 0,126,127
 284 227 284 227 281 243 c 2,128,-1
 279 251 l 1,129,-1
 279 251 l 1,130,131
 285 253 285 253 291 254 c 0,132,133
 309 259 309 259 322 269 c 1,134,-1
 329 262 l 1,135,-1
 329 262 l 1,136,137
 342 251 342 251 355 262 c 0,138,139
 365 274 365 274 355 287 c 2,140,-1
 346 296 l 1,141,-1
 346 296 l 1,142,143
 357 317 357 317 356 343 c 1,144,-1
 371 347 l 1,145,-1
 371 347 l 1,146,147
 387 353 387 353 384 369 c 1,148,149
 377 384 377 384 361 381 c 2,150,-1
 345 377 l 1,151,-1
 345 377 l 1,152,153
 333 398 333 398 313 409 c 1,154,-1
 317 425 l 1,155,-1
 317 425 l 1,156,157
 320 441 320 441 305 447 c 1,158,-1
 305 447 l 1,0,1
112 176 m 1,159,-1
 64 177 l 1,160,-1
 112 176 l 1,161,-1
 64 177 l 1,162,163
 64 177 64 177 64 177 c 257,164,165
 64 177 64 177 64 177 c 1,166,167
 72 177 72 177 83 177 c 0,168,169
 96 176 96 176 112 176 c 1,170,-1
 112 176 l 1,159,-1
128 256 m 1,171,172
 142 256 142 256 151 247 c 1,173,-1
 151 247 l 1,174,-1
 151 247 l 1,175,176
 160 238 160 238 160 224 c 256,177,178
 160 210 160 210 151 201 c 256,179,180
 142 192 142 192 128 192 c 256,181,182
 114 192 114 192 105 201 c 256,183,184
 96 210 96 210 96 224 c 256,185,186
 96 238 96 238 105 247 c 256,187,188
 114 256 114 256 128 256 c 1,189,-1
 128 256 l 1,171,172
192 304 m 1,190,191
 193 319 193 319 208 320 c 0,192,193
 223 319 223 319 224 304 c 0,194,195
 223 289 223 289 208 288 c 0,196,197
 193 289 193 289 192 304 c 1,198,-1
 192 304 l 1,190,191
323 -41 m 1,199,200
 320 -57 320 -57 335 -63 c 0,201,202
 351 -66 351 -66 357 -51 c 2,203,-1
 362 -36 l 1,204,-1
 362 -36 l 1,205,206
 374 -37 374 -37 387 -34 c 0,207,208
 398 -31 398 -31 408 -28 c 1,209,-1
 413 -41 l 1,210,-1
 413 -41 l 1,211,212
 421 -56 421 -56 437 -51 c 0,213,214
 452 -43 452 -43 447 -27 c 2,215,-1
 442 -17 l 1,216,-1
 442 -17 l 1,217,218
 467 -6 467 -6 488 6 c 1,219,-1
 493 -2 l 1,220,-1
 493 -2 l 1,221,222
 503 -15 503 -15 518 -7 c 0,223,224
 531 3 531 3 523 18 c 2,225,-1
 517 27 l 1,226,-1
 517 27 l 1,227,228
 537 44 537 44 553 62 c 1,229,-1
 563 54 l 1,230,-1
 563 54 l 1,231,232
 577 45 577 45 588 57 c 0,233,234
 597 71 597 71 585 82 c 2,235,-1
 574 91 l 1,236,-1
 574 91 l 1,237,238
 577 95 577 95 579 99 c 0,239,240
 589 117 589 117 595 132 c 1,241,-1
 603 129 l 1,242,-1
 603 129 l 1,243,244
 619 125 619 125 627 139 c 1,245,246
 631 155 631 155 617 163 c 2,247,-1
 606 167 l 1,248,-1
 606 167 l 1,249,250
 606 167 606 167 606 167 c 1,251,252
 607 168 607 168 607 169 c 0,253,254
 610 183 610 183 611 193 c 0,255,256
 611 196 611 196 611 199 c 0,257,258
 612 200 612 200 612 200 c 2,259,260
 612 201 612 201 612 202 c 256,261,262
 612 203 612 203 612 203 c 1,263,-1
 612 204 l 1,264,-1
 612 204 l 1,265,-1
 612 205 l 1,266,-1
 612 205 l 1,267,-1
 612 205 l 1,268,-1
 612 205 l 1,269,-1
 612 205 l 1,270,-1
 612 205 l 1,271,272
 613 205 613 205 608 205 c 0,273,274
 604 205 604 205 583 206 c 1,275,276
 583 206 583 206 583 206 c 1,277,-1
 612 205 l 1,278,-1
 612 205 l 1,279,280
 612 210 612 210 612 214 c 2,281,-1
 627 219 l 1,282,-1
 627 219 l 1,283,284
 642 225 642 225 639 241 c 0,285,286
 633 256 633 256 617 253 c 2,287,-1
 601 249 l 1,288,-1
 601 249 l 1,289,290
 590 270 590 270 569 281 c 1,291,-1
 573 297 l 1,292,-1
 573 297 l 1,293,294
 576 313 576 313 561 319 c 0,295,296
 545 322 545 322 539 307 c 2,297,-1
 534 292 l 1,298,-1
 534 292 l 1,299,300
 533 292 533 292 531 292 c 0,301,302
 507 292 507 292 488 282 c 1,303,-1
 479 291 l 1,304,-1
 479 291 l 1,305,306
 466 301 466 301 453 291 c 1,307,308
 443 278 443 278 453 265 c 2,309,-1
 461 258 l 1,310,-1
 461 258 l 1,311,312
 446 239 446 239 444 214 c 1,313,-1
 437 217 l 1,314,-1
 437 217 l 1,315,316
 421 222 421 222 414 207 c 0,317,318
 408 191 408 191 423 183 c 2,319,-1
 432 180 l 1,320,-1
 432 180 l 1,321,322
 423 164 423 164 395 146 c 1,323,-1
 393 151 l 1,324,-1
 393 151 l 1,325,326
 387 166 387 166 371 163 c 0,327,328
 356 157 356 157 359 141 c 2,329,-1
 361 133 l 1,330,-1
 361 133 l 1,331,332
 355 131 355 131 349 130 c 0,333,334
 332 125 332 125 318 115 c 1,335,-1
 311 123 l 1,336,-1
 311 123 l 1,337,338
 298 133 298 133 285 123 c 1,339,340
 275 110 275 110 285 97 c 2,341,-1
 294 88 l 1,342,-1
 294 88 l 1,343,344
 283 67 283 67 284 41 c 1,345,-1
 269 37 l 1,346,-1
 269 37 l 1,347,348
 254 31 254 31 257 15 c 0,349,350
 263 0 263 0 279 3 c 2,351,-1
 295 7 l 1,352,-1
 295 7 l 1,353,354
 306 -14 306 -14 327 -26 c 1,355,-1
 323 -41 l 1,356,-1
 323 -41 l 1,199,200
576 206 m 1,357,358
 576 206 576 206 576 206 c 1,359,-1
 576 206 l 1,360,-1
 576 206 l 1,361,362
 576 206 576 206 576 206 c 1,363,364
 568 207 568 207 557 207 c 0,365,366
 544 208 544 208 528 208 c 1,367,-1
 576 207 l 1,368,-1
 576 206 l 1,357,358
448 64 m 1,369,370
 448 50 448 50 439 41 c 1,371,-1
 439 41 l 1,372,-1
 439 41 l 1,373,374
 430 32 430 32 416 32 c 256,375,376
 402 32 402 32 393 41 c 256,377,378
 384 50 384 50 384 64 c 256,379,380
 384 78 384 78 393 87 c 256,381,382
 402 96 402 96 416 96 c 256,383,384
 430 96 430 96 439 87 c 256,385,386
 448 78 448 78 448 64 c 1,387,-1
 448 64 l 1,369,370
EndSplineSet
EndChar

StartChar: bacterium
Encoding: 57434 57434 56
Width: 512
GlyphClass: 1
Flags: W
LayerCount: 2
Fore
SplineSet
423 417 m 1,0,1
 427 439 427 439 407 447 c 1,2,3
 385 451 385 451 377 431 c 2,4,-1
 373 416 l 1,5,-1
 373 416 l 1,6,7
 358 417 358 417 343 413 c 0,8,9
 325 409 325 409 308 404 c 1,10,-1
 302 417 l 1,11,-1
 302 417 l 1,12,13
 292 437 292 437 271 430 c 0,14,15
 251 420 251 420 258 399 c 2,16,-1
 263 387 l 1,17,-1
 263 387 l 1,18,19
 230 373 230 373 203 355 c 1,20,-1
 196 365 l 1,21,-1
 196 365 l 1,22,23
 182 382 182 382 163 372 c 1,24,25
 146 358 146 358 156 339 c 2,26,-1
 164 327 l 1,27,-1
 164 327 l 1,28,29
 137 305 137 305 117 280 c 1,30,-1
 103 291 l 1,31,-1
 103 291 l 1,32,33
 85 303 85 303 69 287 c 1,34,35
 57 269 57 269 73 253 c 2,36,-1
 88 241 l 1,37,-1
 88 241 l 1,38,39
 85 236 85 236 82 232 c 0,40,41
 68 208 68 208 59 186 c 1,42,-1
 49 190 l 1,43,-1
 49 190 l 1,44,45
 28 196 28 196 18 177 c 1,46,47
 12 156 12 156 31 146 c 2,48,-1
 43 141 l 1,49,-1
 43 141 l 1,50,51
 42 139 42 139 42 138 c 1,52,53
 42 138 42 138 42 138 c 1,54,55
 37 119 37 119 35 107 c 0,56,57
 34 100 34 100 33 96 c 0,58,59
 33 95 33 95 33 93 c 1,60,61
 33 93 33 93 33 93 c 1,62,-1
 33 91 l 1,63,-1
 33 91 l 1,64,-1
 33 91 l 1,65,-1
 33 91 l 1,66,-1
 33 90 l 1,67,-1
 33 90 l 1,68,-1
 33 90 l 1,69,-1
 33 90 l 1,70,71
 31 90 31 90 37 90 c 0,72,73
 44 89 44 89 72 87 c 1,74,75
 72 87 72 87 72 87 c 1,76,-1
 33 90 l 1,77,-1
 33 90 l 1,78,79
 32 83 32 83 32 75 c 1,80,-1
 17 71 l 1,81,-1
 17 71 l 1,82,83
 -3 63 -3 63 1 41 c 1,84,85
 9 21 9 21 31 25 c 2,86,-1
 44 29 l 1,87,-1
 44 29 l 1,88,89
 61 -3 61 -3 93 -20 c 1,90,-1
 89 -33 l 1,91,-1
 89 -33 l 1,92,93
 85 -55 85 -55 106 -63 c 0,94,95
 127 -67 127 -67 135 -47 c 2,96,-1
 139 -32 l 1,97,-1
 139 -32 l 1,98,99
 176 -33 176 -33 205 -14 c 1,100,-1
 215 -25 l 1,101,-1
 215 -25 l 1,102,103
 232 -39 232 -39 249 -25 c 1,104,105
 263 -8 263 -8 249 9 c 2,106,-1
 238 19 l 1,107,-1
 238 19 l 1,108,109
 252 41 252 41 255 68 c 2,110,-1
 255 69 l 1,111,-1
 255 69 l 1,112,113
 256 71 256 71 258 78 c 2,114,-1
 258 79 l 1,115,-1
 258 79 l 1,116,-1
 271 74 l 1,117,-1
 271 74 l 1,118,119
 292 67 292 67 302 86 c 0,120,121
 309 107 309 107 289 118 c 2,122,-1
 278 123 l 1,123,-1
 278 123 l 1,124,125
 292 146 292 146 327 169 c 1,126,-1
 329 161 l 1,127,-1
 329 161 l 1,128,129
 337 141 337 141 359 145 c 1,130,131
 379 153 379 153 375 174 c 2,132,-1
 371 189 l 1,133,-1
 371 189 l 1,134,135
 381 192 381 192 393 195 c 0,136,137
 413 199 413 199 428 210 c 1,138,-1
 439 199 l 1,139,-1
 439 199 l 1,140,141
 456 185 456 185 473 199 c 1,142,143
 487 216 487 216 473 233 c 2,144,-1
 462 243 l 1,145,-1
 462 243 l 1,146,147
 481 273 481 273 480 309 c 1,148,-1
 495 313 l 1,149,-1
 495 313 l 1,150,151
 515 321 515 321 511 342 c 0,152,153
 503 363 503 363 481 359 c 2,154,-1
 468 355 l 1,155,-1
 468 355 l 1,156,157
 451 387 451 387 419 404 c 1,158,-1
 423 417 l 1,159,-1
 423 417 l 1,0,1
92 85 m 1,160,161
 92 85 92 85 92 85 c 1,162,-1
 92 85 l 1,163,-1
 92 85 l 1,164,165
 92 85 92 85 92 85 c 1,166,-1
 144 80 l 1,167,-1
 144 80 l 1,168,-1
 92 85 l 1,169,-1
 92 85 l 1,160,161
112 128 m 1,170,171
 113 155 113 155 136 170 c 0,172,173
 160 182 160 182 184 170 c 0,174,175
 207 155 207 155 208 128 c 0,176,177
 207 101 207 101 184 86 c 0,178,179
 160 74 160 74 136 86 c 0,180,181
 113 101 113 101 112 128 c 1,182,-1
 112 128 l 1,170,171
240 264 m 1,183,184
 262 262 262 262 264 240 c 0,185,186
 262 218 262 218 240 216 c 0,187,188
 218 218 218 218 216 240 c 0,189,190
 218 262 218 262 240 264 c 1,191,-1
 240 264 l 1,183,184
EndSplineSet
EndChar

StartChar: box-tissue
Encoding: 57435 57435 57
Width: 512
GlyphClass: 1
Flags: W
LayerCount: 2
Fore
SplineSet
93 448 m 1,0,-1
 208 448 l 1,1,-1
 93 448 l 1,2,-1
 208 448 l 2,3,4
 237 447 237 447 251 433 c 0,5,6
 264 419 264 419 272 400 c 256,7,8
 280 381 280 381 294 367 c 0,9,10
 307 353 307 353 336 352 c 2,11,-1
 421 352 l 1,12,-1
 421 352 l 1,13,14
 433 352 433 352 440 344 c 0,15,16
 448 337 448 337 448 325 c 0,17,18
 448 320 448 320 446 315 c 2,19,-1
 410 224 l 1,20,-1
 410 224 l 1,21,-1
 384 160 l 1,22,-1
 384 160 l 1,23,-1
 128 160 l 1,24,-1
 128 160 l 1,25,-1
 112 224 l 1,26,-1
 112 224 l 1,27,-1
 65 413 l 1,28,-1
 65 413 l 1,29,30
 64 416 64 416 64 419 c 0,31,32
 64 432 64 432 72 440 c 256,33,34
 80 448 80 448 93 448 c 1,35,-1
 93 448 l 1,0,-1
79 224 m 1,36,-1
 95 160 l 1,37,-1
 79 224 l 1,38,-1
 95 160 l 1,39,-1
 80 160 l 1,40,-1
 80 160 l 1,41,42
 65 159 65 159 64 144 c 0,43,44
 65 129 65 129 80 128 c 2,45,-1
 128 128 l 1,46,-1
 432 128 l 2,47,48
 447 129 447 129 448 144 c 0,49,50
 447 159 447 159 432 160 c 2,51,-1
 419 160 l 1,52,-1
 419 160 l 1,53,-1
 444 224 l 1,54,-1
 444 224 l 1,55,-1
 464 224 l 1,56,-1
 464 224 l 1,57,58
 484 223 484 223 498 210 c 0,59,60
 511 196 511 196 512 176 c 2,61,-1
 512 64 l 1,62,-1
 512 64 l 1,63,-1
 0 64 l 1,64,-1
 0 64 l 1,65,-1
 0 176 l 1,66,-1
 0 176 l 1,67,68
 1 196 1 196 14 210 c 0,69,70
 28 223 28 223 48 224 c 2,71,-1
 79 224 l 1,72,-1
 79 224 l 1,36,-1
0 32 m 1,73,-1
 512 32 l 1,74,-1
 0 32 l 1,75,-1
 512 32 l 1,76,-1
 512 -16 l 1,77,-1
 512 -16 l 1,78,79
 511 -36 511 -36 498 -50 c 0,80,81
 484 -63 484 -63 464 -64 c 2,82,-1
 48 -64 l 1,83,-1
 48 -64 l 1,84,85
 28 -63 28 -63 14 -50 c 0,86,87
 1 -36 1 -36 0 -16 c 2,88,-1
 0 32 l 1,89,-1
 0 32 l 1,73,-1
EndSplineSet
EndChar

StartChar: hand-holding-medical
Encoding: 57436 57436 58
Width: 576
GlyphClass: 1
Flags: W
LayerCount: 2
Fore
SplineSet
224 424 m 1,0,-1
 224 368 l 1,1,-1
 224 424 l 1,2,-1
 224 368 l 1,3,-1
 168 368 l 1,4,-1
 168 368 l 1,5,6
 146 366 146 366 144 344 c 2,7,-1
 144 296 l 1,8,-1
 144 296 l 1,9,10
 146 274 146 274 168 272 c 2,11,-1
 224 272 l 1,12,-1
 224 272 l 1,13,-1
 224 216 l 1,14,-1
 224 216 l 1,15,16
 226 194 226 194 248 192 c 2,17,-1
 296 192 l 1,18,-1
 296 192 l 1,19,20
 318 194 318 194 320 216 c 2,21,-1
 320 272 l 1,22,-1
 320 272 l 1,23,-1
 376 272 l 1,24,-1
 376 272 l 1,25,26
 398 274 398 274 400 296 c 2,27,-1
 400 344 l 1,28,-1
 400 344 l 1,29,30
 398 366 398 366 376 368 c 2,31,-1
 320 368 l 1,32,-1
 320 368 l 1,33,-1
 320 424 l 1,34,-1
 320 424 l 1,35,36
 318 446 318 446 296 448 c 2,37,-1
 248 448 l 1,38,-1
 248 448 l 1,39,40
 226 446 226 446 224 424 c 1,41,-1
 224 424 l 1,0,-1
560 56 m 1,42,43
 573 66 573 66 576 82 c 1,44,-1
 576 82 l 1,45,-1
 576 82 l 1,46,47
 578 98 578 98 568 112 c 0,48,49
 558 125 558 125 542 128 c 0,50,51
 526 130 526 130 512 120 c 2,52,-1
 393 32 l 1,53,-1
 393 32 l 1,54,-1
 272 32 l 1,55,-1
 272 32 l 1,56,57
 257 33 257 33 256 48 c 0,58,59
 257 63 257 63 272 64 c 2,60,-1
 288 64 l 1,61,-1
 352 64 l 2,62,63
 366 64 366 64 375 73 c 256,64,65
 384 82 384 82 384 96 c 256,66,67
 384 110 384 110 375 119 c 256,68,69
 366 128 366 128 352 128 c 2,70,-1
 288 128 l 1,71,-1
 194 128 l 2,72,73
 149 128 149 128 114 100 c 2,74,-1
 69 64 l 1,75,-1
 69 64 l 1,76,-1
 32 64 l 1,77,-1
 32 64 l 1,78,79
 18 64 18 64 9 55 c 256,80,81
 0 46 0 46 0 32 c 2,82,-1
 0 -32 l 1,83,-1
 0 -32 l 1,84,85
 0 -46 0 -46 9 -55 c 256,86,87
 18 -64 18 -64 32 -64 c 2,88,-1
 192 -64 l 1,89,-1
 353 -64 l 2,90,91
 397 -64 397 -64 433 -38 c 2,92,-1
 560 56 l 1,93,-1
 560 56 l 1,42,43
193 64 m 1,94,-1
 194 64 l 1,95,-1
 193 64 l 1,96,-1
 194 64 l 1,97,98
 194 64 194 64 194 64 c 257,99,100
 194 64 194 64 194 64 c 1,101,102
 193 64 193 64 193 64 c 257,103,104
 193 64 193 64 193 64 c 1,105,-1
 193 64 l 1,94,-1
EndSplineSet
EndChar

StartChar: hand-sparkles
Encoding: 57437 57437 59
Width: 640
GlyphClass: 1
Flags: W
LayerCount: 2
Fore
SplineSet
320 448 m 1,0,1
 334 448 334 448 343 439 c 1,2,-1
 343 439 l 1,3,-1
 343 439 l 1,4,5
 352 430 352 430 352 416 c 2,6,-1
 352 208 l 1,7,-1
 352 208 l 1,8,9
 353 193 353 193 368 192 c 0,10,11
 383 193 383 193 384 208 c 2,12,-1
 384 384 l 1,13,-1
 384 384 l 1,14,15
 384 398 384 398 393 407 c 256,16,17
 402 416 402 416 416 416 c 256,18,19
 430 416 430 416 439 407 c 256,20,21
 448 398 448 398 448 384 c 2,22,-1
 448 208 l 1,23,-1
 448 208 l 1,24,25
 449 193 449 193 464 192 c 0,26,27
 479 193 479 193 480 208 c 2,28,-1
 480 320 l 1,29,-1
 480 320 l 1,30,31
 480 334 480 334 489 343 c 256,32,33
 498 352 498 352 512 352 c 256,34,35
 526 352 526 352 535 343 c 256,36,37
 544 334 544 334 544 320 c 2,38,-1
 544 125 l 1,39,-1
 544 125 l 1,40,41
 525 117 525 117 519 97 c 2,42,-1
 510 66 l 1,43,-1
 510 66 l 1,44,-1
 479 57 l 1,45,-1
 479 57 l 1,46,47
 450 47 450 47 448 16 c 0,48,49
 450 -15 450 -15 479 -25 c 1,50,51
 432 -63 432 -63 368 -64 c 2,52,-1
 349 -64 l 1,53,-1
 349 -64 l 1,54,55
 256 -63 256 -63 189 0 c 2,56,-1
 76 107 l 1,57,-1
 76 107 l 1,58,59
 64 119 64 119 64 135 c 256,60,61
 64 151 64 151 75 164 c 0,62,63
 87 176 87 176 103 176 c 256,64,65
 119 176 119 176 132 165 c 2,66,-1
 192 107 l 1,67,-1
 192 107 l 1,68,69
 192 109 192 109 192 110 c 256,70,71
 192 111 192 111 192 112 c 2,72,-1
 192 384 l 1,73,-1
 192 384 l 1,74,75
 192 398 192 398 201 407 c 256,76,77
 210 416 210 416 224 416 c 256,78,79
 238 416 238 416 247 407 c 256,80,81
 256 398 256 398 256 384 c 2,82,-1
 256 208 l 1,83,-1
 256 208 l 1,84,85
 257 193 257 193 272 192 c 0,86,87
 287 193 287 193 288 208 c 2,88,-1
 288 416 l 1,89,-1
 288 416 l 1,90,91
 288 430 288 430 297 439 c 256,92,93
 306 448 306 448 320 448 c 1,94,-1
 320 448 l 1,0,1
313 121 m 1,95,96
 311 128 311 128 304 128 c 256,97,98
 297 128 297 128 295 121 c 2,99,-1
 288 96 l 1,100,-1
 288 96 l 1,101,-1
 263 89 l 1,102,-1
 263 89 l 1,103,104
 256 87 256 87 256 80 c 256,105,106
 256 73 256 73 263 71 c 2,107,-1
 288 64 l 1,108,-1
 288 64 l 1,109,-1
 295 39 l 1,110,-1
 295 39 l 1,111,112
 297 32 297 32 304 32 c 256,113,114
 311 32 311 32 313 39 c 2,115,-1
 320 64 l 1,116,-1
 320 64 l 1,117,-1
 345 71 l 1,118,-1
 345 71 l 1,119,120
 352 73 352 73 352 80 c 256,121,122
 352 87 352 87 345 89 c 2,123,-1
 320 96 l 1,124,-1
 320 96 l 1,125,-1
 313 121 l 1,126,-1
 313 121 l 1,95,96
104 328 m 1,127,-1
 152 314 l 1,128,-1
 104 328 l 1,129,-1
 152 314 l 2,130,131
 160 312 160 312 160 304 c 256,132,133
 160 296 160 296 152 294 c 2,134,-1
 104 280 l 1,135,-1
 104 280 l 1,136,-1
 90 232 l 1,137,-1
 90 232 l 1,138,139
 88 224 88 224 80 224 c 256,140,141
 72 224 72 224 70 232 c 2,142,-1
 56 280 l 1,143,-1
 56 280 l 1,144,-1
 8 294 l 1,145,-1
 8 294 l 1,146,147
 0 296 0 296 0 304 c 256,148,149
 0 312 0 312 8 314 c 2,150,-1
 56 328 l 1,151,-1
 56 328 l 1,152,-1
 70 376 l 1,153,-1
 70 376 l 1,154,155
 72 384 72 384 80 384 c 256,156,157
 88 384 88 384 90 376 c 2,158,-1
 104 328 l 1,159,-1
 104 328 l 1,127,-1
584 40 m 1,160,-1
 632 26 l 1,161,-1
 584 40 l 1,162,-1
 632 26 l 2,163,164
 640 24 640 24 640 16 c 256,165,166
 640 8 640 8 632 6 c 2,167,-1
 584 -8 l 1,168,-1
 584 -8 l 1,169,-1
 570 -56 l 1,170,-1
 570 -56 l 1,171,172
 568 -64 568 -64 560 -64 c 256,173,174
 552 -64 552 -64 550 -56 c 2,175,-1
 536 -8 l 1,176,-1
 536 -8 l 1,177,-1
 488 6 l 1,178,-1
 488 6 l 1,179,180
 480 8 480 8 480 16 c 256,181,182
 480 24 480 24 488 26 c 2,183,-1
 536 40 l 1,184,-1
 536 40 l 1,185,-1
 550 88 l 1,186,-1
 550 88 l 1,187,188
 552 96 552 96 560 96 c 256,189,190
 568 96 568 96 570 88 c 2,191,-1
 584 40 l 1,192,-1
 584 40 l 1,160,-1
EndSplineSet
EndChar

StartChar: hands-bubbles
Encoding: 57438 57438 60
Width: 576
GlyphClass: 1
Flags: W
LayerCount: 2
Fore
SplineSet
416 384 m 1,0,1
 430 384 430 384 439 393 c 1,2,-1
 439 393 l 1,3,-1
 439 393 l 1,4,5
 448 402 448 402 448 416 c 256,6,7
 448 430 448 430 439 439 c 256,8,9
 430 448 430 448 416 448 c 256,10,11
 402 448 402 448 393 439 c 256,12,13
 384 430 384 430 384 416 c 256,14,15
 384 402 384 402 393 393 c 256,16,17
 402 384 402 384 416 384 c 1,18,-1
 416 384 l 1,0,1
512 256 m 1,19,20
 526 256 526 256 535 265 c 1,21,-1
 535 265 l 1,22,-1
 535 265 l 1,23,24
 544 274 544 274 544 288 c 256,25,26
 544 302 544 302 535 311 c 256,27,28
 526 320 526 320 512 320 c 256,29,30
 498 320 498 320 489 311 c 256,31,32
 480 302 480 302 480 288 c 256,33,34
 480 274 480 274 489 265 c 256,35,36
 498 256 498 256 512 256 c 1,37,-1
 512 256 l 1,19,20
160 -16 m 1,38,39
 159 11 159 11 136 26 c 0,40,41
 112 38 112 38 88 26 c 0,42,43
 65 11 65 11 64 -16 c 0,44,45
 65 -43 65 -43 88 -58 c 0,46,47
 112 -70 112 -70 136 -58 c 0,48,49
 159 -43 159 -43 160 -16 c 1,50,-1
 160 -16 l 1,38,39
32 288 m 1,51,-1
 32 215 l 1,52,-1
 32 288 l 1,53,-1
 32 215 l 2,54,55
 32 176 32 176 49 141 c 0,56,57
 66 107 66 107 96 82 c 1,58,59
 96 85 96 85 96 88 c 1,60,61
 96 88 96 88 96 88 c 1,62,-1
 96 96 l 1,63,-1
 96 96 l 1,64,65
 96 151 96 151 122 197 c 256,66,67
 148 243 148 243 194 273 c 2,68,-1
 254 310 l 1,69,-1
 254 310 l 1,70,71
 267 318 267 318 281 320 c 1,72,-1
 327 399 l 1,73,-1
 327 399 l 1,74,75
 336 419 336 419 319 432 c 1,76,77
 298 441 298 441 286 423 c 2,78,-1
 208 288 l 1,79,-1
 208 288 l 1,80,81
 201 279 201 279 191 284 c 0,82,83
 182 290 182 290 187 300 c 2,84,-1
 249 407 l 1,85,-1
 249 407 l 1,86,87
 258 428 258 428 240 440 c 0,88,89
 220 449 220 449 207 431 c 2,90,-1
 139 314 l 1,91,-1
 139 314 l 1,92,93
 139 314 139 314 139 314 c 257,94,95
 139 314 139 314 139 314 c 257,96,97
 139 314 139 314 139 314 c 257,98,99
 139 314 139 314 139 314 c 1,100,-1
 96 239 l 1,101,-1
 96 239 l 1,102,-1
 96 288 l 1,103,-1
 96 288 l 1,104,105
 96 302 96 302 87 311 c 256,106,107
 78 320 78 320 64 320 c 256,108,109
 50 320 50 320 41 311 c 256,110,111
 32 302 32 302 32 288 c 1,112,-1
 32 288 l 1,51,-1
332 359 m 1,113,-1
 308 317 l 1,114,-1
 332 359 l 1,115,-1
 308 317 l 1,116,117
 329 310 329 310 342 290 c 1,118,119
 342 290 342 290 343 289 c 0,120,121
 344 287 344 287 345 286 c 1,122,-1
 374 336 l 1,123,-1
 374 336 l 1,124,125
 383 356 383 356 365 368 c 0,126,127
 345 378 345 378 332 360 c 1,128,-1
 332 359 l 1,113,-1
379 296 m 1,129,-1
 352 249 l 1,130,-1
 379 296 l 1,131,-1
 352 249 l 2,132,133
 351 240 351 240 347 232 c 1,134,-1
 352 232 l 1,135,-1
 365 232 l 1,136,137
 365 232 365 232 365 232 c 257,138,139
 365 232 365 232 365 232 c 1,140,-1
 397 232 l 1,141,-1
 397 232 l 1,142,-1
 420 272 l 1,143,-1
 420 272 l 1,144,145
 429 292 429 292 411 305 c 1,146,147
 391 314 391 314 379 296 c 1,148,-1
 379 296 l 1,129,-1
315 273 m 1,149,150
 308 284 308 284 295 287 c 1,151,-1
 295 287 l 1,152,-1
 295 287 l 1,153,154
 283 290 283 290 271 283 c 2,155,-1
 211 246 l 1,156,-1
 211 246 l 1,157,158
 172 221 172 221 150 181 c 0,159,160
 128 142 128 142 128 96 c 2,161,-1
 128 88 l 1,162,-1
 128 88 l 1,163,164
 128 75 128 75 130 62 c 1,165,166
 157 55 157 55 174 34 c 256,167,168
 191 13 191 13 192 -16 c 0,169,170
 192 -25 192 -25 190 -34 c 1,171,172
 229 -63 229 -63 280 -64 c 2,173,-1
 456 -64 l 1,174,-1
 456 -64 l 1,175,176
 478 -62 478 -62 480 -40 c 0,177,178
 478 -18 478 -18 456 -16 c 2,179,-1
 364 -16 l 1,180,-1
 364 -16 l 1,181,182
 353 -15 353 -15 352 -4 c 0,183,184
 353 7 353 7 364 8 c 2,185,-1
 488 8 l 1,186,-1
 488 8 l 1,187,188
 510 10 510 10 512 32 c 0,189,190
 510 54 510 54 488 56 c 2,191,-1
 364 56 l 1,192,-1
 364 56 l 1,193,194
 353 57 353 57 352 68 c 0,195,196
 353 79 353 79 364 80 c 2,197,-1
 520 80 l 1,198,-1
 520 80 l 1,199,200
 542 82 542 82 544 104 c 0,201,202
 542 126 542 126 520 128 c 2,203,-1
 364 128 l 1,204,-1
 364 128 l 1,205,206
 353 129 353 129 352 140 c 0,207,208
 353 151 353 151 364 152 c 2,209,-1
 488 152 l 1,210,-1
 488 152 l 1,211,212
 510 154 510 154 512 176 c 0,213,214
 510 198 510 198 488 200 c 2,215,-1
 352 200 l 1,216,-1
 352 200 l 1,217,218
 352 200 352 200 352 200 c 257,219,220
 352 200 352 200 352 200 c 257,221,222
 352 200 352 200 352 200 c 257,223,224
 352 200 352 200 352 200 c 1,225,-1
 259 200 l 1,226,-1
 259 200 l 1,227,-1
 305 229 l 1,228,-1
 305 229 l 1,229,230
 316 236 316 236 319 249 c 0,231,232
 322 261 322 261 315 273 c 1,233,-1
 315 273 l 1,149,150
EndSplineSet
EndChar

StartChar: handshake-simple-slash
Encoding: 57439 57439 61
Width: 640
GlyphClass: 1
Flags: W
LayerCount: 2
Fore
SplineSet
39 443 m 1,0,1
 20 455 20 455 5 439 c 1,2,3
 -7 420 -7 420 9 405 c 2,4,-1
 601 -59 l 1,5,-1
 601 -59 l 1,6,7
 620 -71 620 -71 635 -55 c 1,8,9
 647 -36 647 -36 631 -21 c 2,10,-1
 496 85 l 1,11,-1
 496 85 l 1,12,13
 494 102 494 102 481 115 c 2,14,-1
 346 238 l 1,15,-1
 346 238 l 1,16,-1
 323 220 l 1,17,-1
 323 220 l 1,18,-1
 297 241 l 1,19,-1
 297 241 l 1,20,-1
 374 301 l 1,21,-1
 374 301 l 1,22,23
 386 308 386 308 397 298 c 1,24,25
 405 285 405 285 394 275 c 2,26,-1
 373 259 l 1,27,-1
 373 259 l 1,28,-1
 550 96 l 1,29,-1
 550 96 l 1,30,-1
 592 96 l 1,31,-1
 592 96 l 1,32,33
 612 97 612 97 626 110 c 0,34,35
 639 124 639 124 640 144 c 2,36,-1
 640 272 l 1,37,-1
 640 272 l 1,38,39
 639 292 639 292 626 306 c 0,40,41
 612 319 612 319 592 320 c 2,42,-1
 516 320 l 1,43,-1
 511 320 l 1,44,-1
 507 322 l 1,45,-1
 507 322 l 1,46,-1
 435 369 l 1,47,-1
 435 369 l 1,48,49
 411 384 411 384 383 384 c 0,50,51
 350 384 350 384 323 363 c 2,52,-1
 234 290 l 1,53,-1
 234 290 l 1,54,-1
 208 311 l 1,55,-1
 208 311 l 1,56,-1
 290 377 l 1,57,-1
 290 377 l 1,58,59
 272 384 272 384 253 384 c 0,60,61
 224 384 224 384 200 368 c 2,62,-1
 165 344 l 1,63,-1
 165 344 l 1,64,-1
 39 443 l 1,65,-1
 39 443 l 1,0,1
0 272 m 1,66,-1
 0 144 l 1,67,-1
 0 272 l 1,68,-1
 0 144 l 2,69,70
 1 124 1 124 14 110 c 0,71,72
 28 97 28 97 48 96 c 2,73,-1
 156 96 l 1,74,-1
 156 96 l 1,75,-1
 248 13 l 1,76,-1
 248 13 l 1,77,78
 263 -1 263 -1 282 0 c 256,79,80
 301 1 301 1 315 16 c 0,81,82
 324 25 324 25 327 36 c 1,83,-1
 344 21 l 1,84,-1
 344 21 l 1,85,86
 359 7 359 7 378 8 c 256,87,88
 397 9 397 9 411 24 c 0,89,90
 412 25 412 25 414 26 c 1,91,-1
 41 319 l 1,92,-1
 41 319 l 1,93,94
 23 317 23 317 12 304 c 0,95,96
 0 291 0 291 0 272 c 1,97,-1
 0 272 l 1,66,-1
EndSplineSet
EndChar

StartChar: handshake-slash
Encoding: 57440 57440 62
Width: 640
GlyphClass: 1
Flags: W
LayerCount: 2
Fore
SplineSet
39 443 m 1,0,1
 20 455 20 455 5 439 c 1,2,3
 -7 420 -7 420 9 405 c 2,4,-1
 601 -59 l 1,5,-1
 601 -59 l 1,6,7
 620 -71 620 -71 635 -55 c 1,8,9
 647 -36 647 -36 631 -21 c 2,10,-1
 496 85 l 1,11,-1
 496 85 l 1,12,13
 494 102 494 102 481 115 c 2,14,-1
 346 238 l 1,15,-1
 346 238 l 1,16,-1
 323 220 l 1,17,-1
 323 220 l 1,18,-1
 297 241 l 1,19,-1
 297 241 l 1,20,-1
 374 301 l 1,21,-1
 374 301 l 1,22,23
 386 308 386 308 397 298 c 1,24,25
 405 285 405 285 394 275 c 2,26,-1
 373 259 l 1,27,-1
 373 259 l 1,28,-1
 512 131 l 1,29,-1
 512 131 l 1,30,-1
 512 320 l 1,31,-1
 512 320 l 1,32,-1
 511 320 l 1,33,-1
 511 320 l 1,34,-1
 507 322 l 1,35,-1
 507 322 l 1,36,-1
 435 369 l 1,37,-1
 435 369 l 1,38,39
 411 384 411 384 383 384 c 0,40,41
 350 384 350 384 323 363 c 2,42,-1
 234 290 l 1,43,-1
 234 290 l 1,44,-1
 208 311 l 1,45,-1
 208 311 l 1,46,-1
 290 377 l 1,47,-1
 290 377 l 1,48,49
 272 384 272 384 253 384 c 0,50,51
 224 384 224 384 200 368 c 2,52,-1
 165 344 l 1,53,-1
 165 344 l 1,54,-1
 39 443 l 1,55,-1
 39 443 l 1,0,1
96 276 m 1,56,-1
 41 320 l 1,57,-1
 96 276 l 1,58,-1
 41 320 l 1,59,-1
 0 320 l 1,60,-1
 0 320 l 1,61,-1
 0 96 l 1,62,-1
 0 96 l 1,63,64
 0 82 0 82 9 73 c 256,65,66
 18 64 18 64 32 64 c 2,67,-1
 64 64 l 1,68,-1
 64 64 l 1,69,70
 78 64 78 64 87 73 c 256,71,72
 96 82 96 82 96 96 c 2,73,-1
 96 276 l 1,74,-1
 96 276 l 1,56,-1
414 26 m 1,75,-1
 128 251 l 1,76,-1
 414 26 l 1,77,-1
 128 251 l 1,78,-1
 128 96 l 1,79,-1
 128 96 l 1,80,-1
 156 96 l 1,81,-1
 156 96 l 1,82,-1
 248 13 l 1,83,-1
 248 13 l 1,84,85
 263 -1 263 -1 282 0 c 256,86,87
 301 1 301 1 315 16 c 0,88,89
 324 25 324 25 327 36 c 1,90,-1
 344 21 l 1,91,-1
 344 21 l 1,92,93
 359 7 359 7 378 8 c 256,94,95
 397 9 397 9 411 24 c 0,96,97
 412 25 412 25 414 26 c 1,98,-1
 414 26 l 1,75,-1
48 128 m 1,99,100
 63 127 63 127 64 112 c 0,101,102
 63 97 63 97 48 96 c 0,103,104
 33 97 33 97 32 112 c 0,105,106
 33 127 33 127 48 128 c 1,107,-1
 48 128 l 1,99,100
544 320 m 1,108,-1
 544 96 l 1,109,-1
 544 320 l 1,110,-1
 544 96 l 2,111,112
 544 82 544 82 553 73 c 256,113,114
 562 64 562 64 576 64 c 2,115,-1
 608 64 l 1,116,-1
 608 64 l 1,117,118
 622 64 622 64 631 73 c 256,119,120
 640 82 640 82 640 96 c 2,121,-1
 640 320 l 1,122,-1
 640 320 l 1,123,-1
 544 320 l 1,124,-1
 544 320 l 1,108,-1
576 112 m 1,125,126
 577 127 577 127 592 128 c 0,127,128
 607 127 607 127 608 112 c 0,129,130
 607 97 607 97 592 96 c 0,131,132
 577 97 577 97 576 112 c 1,133,-1
 576 112 l 1,125,126
EndSplineSet
EndChar

StartChar: head-side-cough
Encoding: 57441 57441 63
Width: 640
GlyphClass: 1
Flags: W
LayerCount: 2
Fore
SplineSet
0 224 m 1,0,1
 1 286 1 286 31 337 c 1,2,-1
 31 337 l 1,3,-1
 31 337 l 1,4,5
 60 387 60 387 111 417 c 1,6,-1
 111 417 l 1,7,-1
 111 417 l 1,8,9
 161 447 161 447 224 448 c 2,10,-1
 248 448 l 1,11,-1
 248 448 l 1,12,13
 321 447 321 447 376 402 c 256,14,15
 431 357 431 357 445 288 c 0,16,17
 448 268 448 268 460 252 c 2,18,-1
 502 199 l 1,19,-1
 502 199 l 1,20,21
 512 187 512 187 512 172 c 0,22,23
 512 153 512 153 499 141 c 0,24,25
 487 128 487 128 468 128 c 2,26,-1
 448 128 l 1,27,-1
 448 128 l 1,28,29
 448 128 448 128 448 128 c 257,30,31
 448 128 448 128 448 128 c 1,32,-1
 448 96 l 1,33,-1
 448 96 l 1,34,-1
 339 82 l 1,35,-1
 339 82 l 1,36,37
 321 79 321 79 320 61 c 0,38,39
 322 41 322 41 341 39 c 2,40,-1
 448 32 l 1,41,-1
 448 32 l 1,42,-1
 448 16 l 1,43,-1
 448 16 l 1,44,45
 447 -4 447 -4 434 -18 c 0,46,47
 420 -31 420 -31 400 -32 c 2,48,-1
 320 -32 l 1,49,-1
 320 -32 l 1,50,-1
 320 -40 l 1,51,-1
 320 -40 l 1,52,53
 318 -62 318 -62 296 -64 c 2,54,-1
 256 -64 l 1,55,-1
 256 -64 l 1,56,57
 256 -64 256 -64 256 -64 c 257,58,59
 256 -64 256 -64 256 -64 c 1,60,-1
 96 -64 l 1,61,-1
 96 -64 l 1,62,63
 82 -64 82 -64 73 -55 c 256,64,65
 64 -46 64 -46 64 -32 c 2,66,-1
 64 41 l 1,67,-1
 64 41 l 1,68,69
 63 66 63 66 47 86 c 0,70,71
 1 147 1 147 0 224 c 1,72,-1
 0 224 l 1,0,1
352 224 m 1,73,74
 366 224 366 224 375 233 c 1,75,-1
 375 233 l 1,76,-1
 375 233 l 1,77,78
 384 242 384 242 384 256 c 256,79,80
 384 270 384 270 375 279 c 256,81,82
 366 288 366 288 352 288 c 256,83,84
 338 288 338 288 329 279 c 256,85,86
 320 270 320 270 320 256 c 256,87,88
 320 242 320 242 329 233 c 256,89,90
 338 224 338 224 352 224 c 1,91,-1
 352 224 l 1,73,74
464 64 m 1,92,93
 466 86 466 86 488 88 c 0,94,95
 510 86 510 86 512 64 c 0,96,97
 510 42 510 42 488 40 c 0,98,99
 466 42 466 42 464 64 c 1,100,-1
 464 64 l 1,92,93
616 88 m 1,101,102
 638 86 638 86 640 64 c 0,103,104
 638 42 638 42 616 40 c 0,105,106
 594 42 594 42 592 64 c 0,107,108
 594 86 594 86 616 88 c 1,109,-1
 616 88 l 1,101,102
592 -32 m 1,110,111
 594 -10 594 -10 616 -8 c 0,112,113
 638 -10 638 -10 640 -32 c 0,114,115
 638 -54 638 -54 616 -56 c 0,116,117
 594 -54 594 -54 592 -32 c 1,118,-1
 592 -32 l 1,110,111
552 136 m 1,119,120
 574 134 574 134 576 112 c 0,121,122
 574 90 574 90 552 88 c 0,123,124
 530 90 530 90 528 112 c 0,125,126
 530 134 530 134 552 136 c 1,127,-1
 552 136 l 1,119,120
592 160 m 1,128,129
 594 182 594 182 616 184 c 0,130,131
 638 182 638 182 640 160 c 0,132,133
 638 138 638 138 616 136 c 0,134,135
 594 138 594 138 592 160 c 1,136,-1
 592 160 l 1,128,129
552 40 m 1,137,138
 574 38 574 38 576 16 c 0,139,140
 574 -6 574 -6 552 -8 c 0,141,142
 530 -6 530 -6 528 16 c 0,143,144
 530 38 530 38 552 40 c 1,145,-1
 552 40 l 1,137,138
EndSplineSet
EndChar

StartChar: head-side-cough-slash
Encoding: 57442 57442 64
Width: 640
GlyphClass: 1
Flags: W
LayerCount: 2
Fore
SplineSet
448 122 m 1,0,-1
 492 88 l 1,1,-1
 448 122 l 1,2,-1
 492 88 l 1,3,4
 505 85 505 85 510 74 c 1,5,-1
 553 40 l 1,6,-1
 553 40 l 1,7,8
 570 38 570 38 575 23 c 1,9,-1
 614 -8 l 1,10,-1
 614 -8 l 1,11,12
 615 -8 615 -8 615 -8 c 2,13,14
 616 -8 616 -8 616 -8 c 2,15,16
 634 -9 634 -9 639 -26 c 1,17,-1
 635 -26 l 1,18,-1
 635 -26 l 1,19,20
 645 -40 645 -40 635 -55 c 0,21,22
 620 -71 620 -71 601 -59 c 2,23,-1
 9 405 l 1,24,-1
 9 405 l 1,25,26
 -7 420 -7 420 5 439 c 1,27,28
 20 455 20 455 39 443 c 2,29,-1
 90 403 l 1,30,-1
 90 403 l 1,31,32
 147 447 147 447 224 448 c 2,33,-1
 248 448 l 1,34,-1
 248 448 l 1,35,36
 321 447 321 447 376 402 c 256,37,38
 431 357 431 357 445 288 c 0,39,40
 448 268 448 268 460 252 c 2,41,-1
 502 199 l 1,42,-1
 502 199 l 1,43,44
 512 187 512 187 512 172 c 0,45,46
 512 153 512 153 499 141 c 0,47,48
 487 128 487 128 468 128 c 2,49,-1
 448 128 l 1,50,-1
 448 128 l 1,51,52
 448 128 448 128 448 128 c 257,53,54
 448 128 448 128 448 128 c 1,55,-1
 448 122 l 1,56,-1
 448 122 l 1,0,-1
0 224 m 1,57,58
 1 282 1 282 27 331 c 1,59,-1
 342 83 l 1,60,-1
 342 83 l 1,61,-1
 339 82 l 1,62,-1
 339 82 l 1,63,64
 321 79 321 79 320 61 c 0,65,66
 322 41 322 41 341 39 c 2,67,-1
 403 35 l 1,68,-1
 403 35 l 1,69,-1
 446 1 l 1,70,-1
 446 1 l 1,71,72
 434 -30 434 -30 400 -32 c 2,73,-1
 320 -32 l 1,74,-1
 320 -32 l 1,75,-1
 320 -40 l 1,76,-1
 320 -40 l 1,77,78
 318 -62 318 -62 296 -64 c 2,79,-1
 256 -64 l 1,80,-1
 256 -64 l 1,81,82
 256 -64 256 -64 256 -64 c 257,83,84
 256 -64 256 -64 256 -64 c 1,85,-1
 96 -64 l 1,86,-1
 96 -64 l 1,87,88
 82 -64 82 -64 73 -55 c 256,89,90
 64 -46 64 -46 64 -32 c 2,91,-1
 64 41 l 1,92,-1
 64 41 l 1,93,94
 63 66 63 66 47 86 c 0,95,96
 1 147 1 147 0 224 c 1,97,-1
 0 224 l 1,57,58
616 88 m 1,98,99
 638 86 638 86 640 64 c 0,100,101
 638 42 638 42 616 40 c 0,102,103
 594 42 594 42 592 64 c 0,104,105
 594 86 594 86 616 88 c 1,106,-1
 616 88 l 1,98,99
552 136 m 1,107,108
 574 134 574 134 576 112 c 0,109,110
 574 90 574 90 552 88 c 0,111,112
 530 90 530 90 528 112 c 0,113,114
 530 134 530 134 552 136 c 1,115,-1
 552 136 l 1,107,108
592 160 m 1,116,117
 594 182 594 182 616 184 c 0,118,119
 638 182 638 182 640 160 c 0,120,121
 638 138 638 138 616 136 c 0,122,123
 594 138 594 138 592 160 c 1,124,-1
 592 160 l 1,116,117
EndSplineSet
EndChar

StartChar: head-side-mask
Encoding: 57443 57443 65
Width: 576
GlyphClass: 1
Flags: W
LayerCount: 2
Fore
SplineSet
32 224 m 1,0,1
 32 257 32 257 41 288 c 1,2,-1
 262 127 l 1,3,-1
 262 127 l 1,4,5
 256 113 256 113 256 96 c 2,6,-1
 256 -64 l 1,7,-1
 256 -64 l 1,8,-1
 128 -64 l 1,9,-1
 128 -64 l 1,10,11
 114 -64 114 -64 105 -55 c 256,12,13
 96 -46 96 -46 96 -32 c 2,14,-1
 96 41 l 1,15,-1
 96 41 l 1,16,17
 95 66 95 66 79 86 c 0,18,19
 33 147 33 147 32 224 c 1,20,-1
 32 224 l 1,0,1
280 153 m 1,21,-1
 53 319 l 1,22,-1
 280 153 l 1,23,-1
 53 319 l 1,24,25
 81 377 81 377 134 412 c 0,26,27
 188 447 188 447 256 448 c 2,28,-1
 280 448 l 1,29,-1
 280 448 l 1,30,31
 353 447 353 447 408 402 c 256,32,33
 463 357 463 357 477 288 c 0,34,35
 480 268 480 268 492 252 c 2,36,-1
 534 199 l 1,37,-1
 534 199 l 1,38,39
 543 189 543 189 544 176 c 1,40,-1
 336 176 l 1,41,-1
 336 176 l 1,42,43
 303 175 303 175 280 153 c 1,44,-1
 280 153 l 1,21,-1
336 144 m 1,45,-1
 534 144 l 1,46,-1
 336 144 l 1,47,-1
 534 144 l 1,48,49
 534 144 534 144 534 144 c 257,50,51
 534 144 534 144 534 144 c 1,52,-1
 544 144 l 1,53,-1
 544 144 l 1,54,-1
 524 80 l 1,55,-1
 524 80 l 1,56,-1
 368 80 l 1,57,-1
 368 80 l 1,58,59
 353 79 353 79 352 64 c 0,60,61
 353 49 353 49 368 48 c 2,62,-1
 515 48 l 1,63,-1
 515 48 l 1,64,-1
 505 16 l 1,65,-1
 505 16 l 1,66,-1
 368 16 l 1,67,-1
 368 16 l 1,68,69
 353 15 353 15 352 0 c 0,70,71
 353 -15 353 -15 368 -16 c 2,72,-1
 495 -16 l 1,73,-1
 495 -16 l 1,74,-1
 494 -19 l 1,75,-1
 494 -19 l 1,76,77
 487 -39 487 -39 471 -51 c 0,78,79
 454 -64 454 -64 433 -64 c 2,80,-1
 288 -64 l 1,81,-1
 288 -64 l 1,82,-1
 288 96 l 1,83,-1
 288 96 l 1,84,85
 289 118 289 118 304 131 c 1,86,87
 304 131 304 131 304 131 c 1,88,89
 317 144 317 144 336 144 c 1,90,-1
 336 144 l 1,45,-1
384 224 m 1,91,92
 398 224 398 224 407 233 c 1,93,-1
 407 233 l 1,94,-1
 407 233 l 1,95,96
 416 242 416 242 416 256 c 256,97,98
 416 270 416 270 407 279 c 256,99,100
 398 288 398 288 384 288 c 256,101,102
 370 288 370 288 361 279 c 256,103,104
 352 270 352 270 352 256 c 256,105,106
 352 242 352 242 361 233 c 256,107,108
 370 224 370 224 384 224 c 1,109,-1
 384 224 l 1,91,92
EndSplineSet
EndChar

StartChar: head-side-virus
Encoding: 57444 57444 66
Width: 512
GlyphClass: 1
Flags: W
LayerCount: 2
Fore
SplineSet
0 224 m 1,0,1
 1 286 1 286 31 337 c 1,2,-1
 31 337 l 1,3,-1
 31 337 l 1,4,5
 60 387 60 387 111 417 c 1,6,-1
 111 417 l 1,7,-1
 111 417 l 1,8,9
 161 447 161 447 224 448 c 2,10,-1
 248 448 l 1,11,-1
 248 448 l 1,12,13
 321 447 321 447 376 402 c 256,14,15
 431 357 431 357 445 288 c 0,16,17
 448 268 448 268 460 252 c 2,18,-1
 502 199 l 1,19,-1
 502 199 l 1,20,21
 512 187 512 187 512 172 c 0,22,23
 512 153 512 153 499 141 c 0,24,25
 487 128 487 128 468 128 c 2,26,-1
 448 128 l 1,27,-1
 448 128 l 1,28,-1
 448 64 l 1,29,-1
 448 64 l 1,30,31
 447 37 447 37 429 19 c 256,32,33
 411 1 411 1 384 0 c 2,34,-1
 320 0 l 1,35,-1
 320 0 l 1,36,-1
 320 -32 l 1,37,-1
 320 -32 l 1,38,39
 320 -46 320 -46 311 -55 c 256,40,41
 302 -64 302 -64 288 -64 c 2,42,-1
 96 -64 l 1,43,-1
 96 -64 l 1,44,45
 82 -64 82 -64 73 -55 c 256,46,47
 64 -46 64 -46 64 -32 c 2,48,-1
 64 41 l 1,49,-1
 64 41 l 1,50,51
 63 66 63 66 47 86 c 0,52,53
 1 147 1 147 0 224 c 1,54,-1
 0 224 l 1,0,1
224 384 m 1,55,56
 209 383 209 383 208 368 c 0,57,58
 206 343 206 343 185 334 c 256,59,60
 164 325 164 325 145 342 c 0,61,62
 134 351 134 351 122 342 c 0,63,64
 113 331 113 331 122 319 c 0,65,66
 139 300 139 300 130 279 c 256,67,68
 121 258 121 258 96 256 c 0,69,70
 81 255 81 255 80 240 c 0,71,72
 81 225 81 225 96 224 c 0,73,74
 121 222 121 222 130 201 c 256,75,76
 139 180 139 180 122 161 c 0,77,78
 113 149 113 149 122 138 c 0,79,80
 134 129 134 129 145 138 c 0,81,82
 164 155 164 155 185 146 c 256,83,84
 206 137 206 137 208 112 c 0,85,86
 209 97 209 97 224 96 c 0,87,88
 239 97 239 97 240 112 c 0,89,90
 242 137 242 137 263 146 c 256,91,92
 284 155 284 155 303 138 c 0,93,94
 315 129 315 129 326 138 c 0,95,96
 335 150 335 150 326 161 c 0,97,98
 309 180 309 180 318 201 c 256,99,100
 327 222 327 222 352 224 c 0,101,102
 367 225 367 225 368 240 c 0,103,104
 367 255 367 255 352 256 c 0,105,106
 327 258 327 258 318 279 c 256,107,108
 309 300 309 300 326 319 c 0,109,110
 335 330 335 330 326 342 c 1,111,112
 314 351 314 351 303 342 c 0,113,114
 284 325 284 325 263 334 c 256,115,116
 242 343 242 343 240 368 c 0,117,118
 239 383 239 383 224 384 c 1,119,-1
 224 384 l 1,55,56
200 288 m 1,120,121
 222 286 222 286 224 264 c 0,122,123
 222 242 222 242 200 240 c 0,124,125
 178 242 178 242 176 264 c 0,126,127
 178 286 178 286 200 288 c 1,128,-1
 200 288 l 1,120,121
240 208 m 1,129,130
 241 223 241 223 256 224 c 0,131,132
 271 223 271 223 272 208 c 0,133,134
 271 193 271 193 256 192 c 0,135,136
 241 193 241 193 240 208 c 1,137,-1
 240 208 l 1,129,130
EndSplineSet
EndChar

StartChar: house-chimney-user
Encoding: 57445 57445 67
Width: 576
GlyphClass: 1
Flags: W
LayerCount: 2
Fore
SplineSet
544 160 m 1,0,1
 557 161 557 161 566 170 c 1,2,-1
 566 170 l 1,3,-1
 566 170 l 1,4,5
 575 179 575 179 576 192 c 0,6,7
 577 206 577 206 565 216 c 2,8,-1
 512 263 l 1,9,-1
 512 263 l 1,10,-1
 512 384 l 1,11,-1
 512 384 l 1,12,13
 512 398 512 398 503 407 c 256,14,15
 494 416 494 416 480 416 c 2,16,-1
 448 416 l 1,17,-1
 448 416 l 1,18,19
 434 416 434 416 425 407 c 256,20,21
 416 398 416 398 416 384 c 2,22,-1
 416 347 l 1,23,-1
 416 347 l 1,24,-1
 310 441 l 1,25,-1
 310 441 l 1,26,27
 300 448 300 448 289 448 c 0,28,29
 278 449 278 449 267 440 c 2,30,-1
 10 216 l 1,31,-1
 10 216 l 1,32,33
 0 206 0 206 0 192 c 0,34,35
 0 179 0 179 9 170 c 256,36,37
 18 161 18 161 32 160 c 2,38,-1
 64 160 l 1,39,-1
 64 160 l 1,40,-1
 64 0 l 1,41,-1
 64 0 l 1,42,43
 65 -27 65 -27 83 -45 c 256,44,45
 101 -63 101 -63 128 -64 c 2,46,-1
 448 -64 l 1,47,-1
 448 -64 l 1,48,49
 476 -63 476 -63 494 -45 c 256,50,51
 512 -27 512 -27 512 0 c 2,52,-1
 512 160 l 1,53,-1
 512 160 l 1,54,-1
 544 160 l 1,55,-1
 544 160 l 1,0,1
288 288 m 1,56,57
 324 287 324 287 343 256 c 0,58,59
 361 224 361 224 343 192 c 0,60,61
 324 161 324 161 288 160 c 0,62,63
 252 161 252 161 233 192 c 0,64,65
 215 224 215 224 233 256 c 0,66,67
 252 287 252 287 288 288 c 1,68,-1
 288 288 l 1,56,57
176 48 m 1,69,70
 177 82 177 82 199 105 c 1,71,-1
 199 105 l 1,72,-1
 199 105 l 1,73,74
 222 127 222 127 256 128 c 2,75,-1
 320 128 l 1,76,-1
 320 128 l 1,77,78
 354 127 354 127 377 105 c 0,79,80
 399 82 399 82 400 48 c 0,81,82
 399 33 399 33 384 32 c 2,83,-1
 192 32 l 1,84,-1
 192 32 l 1,85,86
 177 33 177 33 176 48 c 1,87,-1
 176 48 l 1,69,70
EndSplineSet
EndChar

StartChar: house-laptop
Encoding: 57446 57446 68
Width: 640
GlyphClass: 1
Flags: W
LayerCount: 2
Fore
SplineSet
218 439 m 1,0,1
 228 448 228 448 240 448 c 1,2,-1
 240 448 l 1,3,-1
 240 448 l 1,4,5
 252 448 252 448 262 439 c 2,6,-1
 470 247 l 1,7,-1
 470 247 l 1,8,9
 480 238 480 238 480 224 c 1,10,-1
 336 224 l 1,11,-1
 336 224 l 1,12,13
 306 223 306 223 288 202 c 1,14,-1
 288 240 l 1,15,-1
 288 240 l 1,16,17
 287 255 287 255 272 256 c 2,18,-1
 208 256 l 1,19,-1
 208 256 l 1,20,21
 193 255 193 255 192 240 c 2,22,-1
 192 176 l 1,23,-1
 192 176 l 1,24,25
 193 161 193 161 208 160 c 2,26,-1
 272 160 l 1,27,-1
 272 160 l 1,28,-1
 272 32 l 1,29,-1
 272 32 l 1,30,-1
 112 32 l 1,31,-1
 112 32 l 1,32,33
 92 33 92 33 78 46 c 0,34,35
 65 60 65 60 64 80 c 2,36,-1
 64 192 l 1,37,-1
 64 192 l 1,38,-1
 32 192 l 1,39,-1
 32 192 l 1,40,41
 11 193 11 193 2 212 c 0,42,43
 -5 232 -5 232 10 247 c 2,44,-1
 218 439 l 1,45,-1
 218 439 l 1,0,1
352 144 m 1,46,-1
 352 0 l 1,47,-1
 352 144 l 1,48,-1
 352 0 l 1,49,-1
 544 0 l 1,50,-1
 544 0 l 1,51,-1
 544 144 l 1,52,-1
 544 144 l 1,53,-1
 352 144 l 1,54,-1
 352 144 l 1,46,-1
304 160 m 1,55,56
 304 174 304 174 313 183 c 1,57,-1
 313 183 l 1,58,-1
 313 183 l 1,59,60
 322 192 322 192 336 192 c 2,61,-1
 560 192 l 1,62,-1
 560 192 l 1,63,64
 574 192 574 192 583 183 c 256,65,66
 592 174 592 174 592 160 c 2,67,-1
 592 0 l 1,68,-1
 592 0 l 1,69,-1
 624 0 l 1,70,-1
 624 0 l 1,71,72
 639 -1 639 -1 640 -16 c 0,73,74
 639 -36 639 -36 626 -50 c 0,75,76
 612 -63 612 -63 592 -64 c 2,77,-1
 544 -64 l 1,78,-1
 304 -64 l 2,79,80
 284 -63 284 -63 270 -50 c 0,81,82
 257 -36 257 -36 256 -16 c 0,83,84
 257 -1 257 -1 272 0 c 2,85,-1
 304 0 l 1,86,-1
 304 0 l 1,87,-1
 304 160 l 1,88,-1
 304 160 l 1,55,56
EndSplineSet
EndChar

StartChar: lungs-virus
Encoding: 57447 57447 69
Width: 640
GlyphClass: 1
Flags: W
LayerCount: 2
Fore
SplineSet
320 448 m 1,0,1
 334 448 334 448 343 439 c 1,2,-1
 343 439 l 1,3,-1
 343 439 l 1,4,5
 352 430 352 430 352 416 c 2,6,-1
 352 292 l 1,7,-1
 352 292 l 1,8,9
 339 304 339 304 320 304 c 256,10,11
 301 304 301 304 288 292 c 1,12,-1
 288 416 l 1,13,-1
 288 416 l 1,14,15
 288 430 288 430 297 439 c 256,16,17
 306 448 306 448 320 448 c 1,18,-1
 320 448 l 1,0,1
445 252 m 1,19,20
 432 265 432 265 415 266 c 1,21,-1
 415 266 l 1,22,-1
 415 266 l 1,23,24
 399 268 399 268 384 259 c 1,25,-1
 384 283 l 1,26,-1
 384 283 l 1,27,28
 385 312 385 312 404 332 c 0,29,30
 424 351 424 351 453 352 c 0,31,32
 488 352 488 352 509 323 c 0,33,34
 521 306 521 306 540 276 c 0,35,36
 560 245 560 245 580 206 c 0,37,38
 601 168 601 168 617 124 c 0,39,40
 634 80 634 80 640 36 c 0,41,42
 640 34 640 34 640 32 c 2,43,-1
 640 25 l 1,44,-1
 640 25 l 1,45,46
 639 -13 639 -13 614 -38 c 256,47,48
 589 -63 589 -63 551 -64 c 0,49,50
 540 -64 540 -64 529 -61 c 2,51,-1
 457 -43 l 1,52,-1
 457 -43 l 1,53,54
 425 -35 425 -35 405 -10 c 1,55,56
 427 -13 427 -13 444 4 c 1,57,-1
 422 26 l 1,58,-1
 422 26 l 1,59,-1
 444 4 l 1,60,-1
 444 4 l 1,61,62
 458 18 458 18 458 38 c 0,63,64
 458 57 458 57 444 71 c 0,65,66
 443 73 443 73 443 74 c 256,67,68
 443 75 443 75 443 77 c 0,69,70
 444 79 444 79 445 79 c 1,71,72
 445 79 445 79 445 79 c 1,73,74
 446 80 446 80 448 80 c 0,75,76
 468 81 468 81 482 94 c 0,77,78
 495 108 495 108 496 128 c 0,79,80
 495 148 495 148 482 162 c 0,81,82
 468 175 468 175 448 176 c 0,83,84
 446 176 446 176 445 177 c 0,85,86
 444 177 444 177 443 179 c 0,87,88
 443 181 443 181 443 182 c 256,89,90
 443 183 443 183 444 184 c 0,91,92
 458 199 458 199 458 218 c 0,93,94
 458 238 458 238 444 252 c 1,95,-1
 445 252 l 1,19,20
422 26 m 1,96,97
 410 17 410 17 399 26 c 0,98,99
 380 43 380 43 359 34 c 256,100,101
 338 25 338 25 336 0 c 0,102,103
 335 -15 335 -15 320 -16 c 0,104,105
 305 -15 305 -15 304 0 c 0,106,107
 302 25 302 25 281 34 c 256,108,109
 260 43 260 43 241 26 c 0,110,111
 230 17 230 17 218 26 c 1,112,113
 209 38 209 38 218 49 c 0,114,115
 235 68 235 68 226 89 c 256,116,117
 217 110 217 110 192 112 c 0,118,119
 177 113 177 113 176 128 c 0,120,121
 177 143 177 143 192 144 c 0,122,123
 217 146 217 146 226 167 c 256,124,125
 235 188 235 188 218 207 c 0,126,127
 209 218 209 218 218 230 c 1,128,129
 230 239 230 239 241 230 c 0,130,131
 260 213 260 213 281 222 c 256,132,133
 302 231 302 231 304 256 c 0,134,135
 305 271 305 271 320 272 c 0,136,137
 335 271 335 271 336 256 c 0,138,139
 338 231 338 231 359 222 c 256,140,141
 380 213 380 213 399 230 c 0,142,143
 411 239 411 239 422 230 c 0,144,145
 431 218 431 218 422 207 c 0,146,147
 405 188 405 188 414 167 c 256,148,149
 423 146 423 146 448 144 c 0,150,151
 463 143 463 143 464 128 c 0,152,153
 463 113 463 113 448 112 c 0,154,155
 423 110 423 110 414 89 c 256,156,157
 405 68 405 68 422 49 c 0,158,159
 431 37 431 37 422 26 c 1,160,-1
 422 26 l 1,96,97
183 -43 m 1,161,-1
 111 -61 l 1,162,-1
 183 -43 l 1,163,-1
 111 -61 l 2,164,165
 100 -64 100 -64 89 -64 c 0,166,167
 51 -63 51 -63 26 -38 c 256,168,169
 1 -13 1 -13 0 25 c 2,170,-1
 0 32 l 1,171,-1
 0 32 l 1,172,173
 0 34 0 34 0 36 c 0,174,175
 6 80 6 80 23 124 c 0,176,177
 39 168 39 168 60 206 c 0,178,179
 80 245 80 245 100 276 c 0,180,181
 119 306 119 306 131 323 c 0,182,183
 152 351 152 351 187 352 c 0,184,185
 216 351 216 351 236 332 c 0,186,187
 255 312 255 312 256 283 c 2,188,-1
 256 259 l 1,189,-1
 256 259 l 1,190,191
 242 268 242 268 225 266 c 0,192,193
 208 265 208 265 196 252 c 0,194,195
 181 238 181 238 181 219 c 0,196,197
 181 199 181 199 196 185 c 0,198,199
 197 183 197 183 197 182 c 256,200,201
 197 181 197 181 197 179 c 0,202,203
 196 178 196 178 195 177 c 1,204,205
 195 177 195 177 195 177 c 1,206,207
 194 176 194 176 192 176 c 0,208,209
 172 176 172 176 158 162 c 256,210,211
 144 148 144 148 144 128 c 256,212,213
 144 108 144 108 158 94 c 0,214,215
 172 81 172 81 192 80 c 0,216,217
 194 80 194 80 195 79 c 0,218,219
 196 79 196 79 197 77 c 0,220,221
 197 75 197 75 197 74 c 256,222,223
 197 73 197 73 196 72 c 0,224,225
 181 57 181 57 181 38 c 256,226,227
 181 19 181 19 196 4 c 0,228,229
 213 -12 213 -12 235 -10 c 1,230,231
 215 -35 215 -35 183 -43 c 1,232,-1
 183 -43 l 1,161,-1
296 128 m 1,233,234
 318 130 318 130 320 152 c 0,235,236
 318 174 318 174 296 176 c 0,237,238
 274 174 274 174 272 152 c 0,239,240
 274 130 274 130 296 128 c 1,241,-1
 296 128 l 1,233,234
368 96 m 1,242,243
 367 111 367 111 352 112 c 0,244,245
 337 111 337 111 336 96 c 0,246,247
 337 81 337 81 352 80 c 0,248,249
 367 81 367 81 368 96 c 1,250,-1
 368 96 l 1,242,243
EndSplineSet
EndChar

StartChar: people-arrows
Encoding: 57448 57448 70
Width: 640
GlyphClass: 1
Flags: W
LayerCount: 2
Fore
SplineSet
64 384 m 1,0,1
 65 420 65 420 96 439 c 0,2,3
 128 457 128 457 160 439 c 0,4,5
 191 420 191 420 192 384 c 0,6,7
 191 348 191 348 160 329 c 0,8,9
 128 311 128 311 96 329 c 0,10,11
 65 348 65 348 64 384 c 1,12,-1
 64 384 l 1,0,1
26 215 m 1,13,14
 29 246 29 246 51 267 c 1,15,-1
 51 267 l 1,16,-1
 51 267 l 1,17,18
 74 287 74 287 106 288 c 2,19,-1
 150 288 l 1,20,-1
 150 288 l 1,21,22
 193 286 193 286 216 254 c 1,23,24
 212 251 212 251 208 248 c 2,25,-1
 144 184 l 1,26,-1
 144 184 l 1,27,28
 128 166 128 166 128 144 c 256,29,30
 128 122 128 122 144 104 c 2,31,-1
 192 57 l 1,32,-1
 192 57 l 1,33,-1
 192 -16 l 1,34,-1
 192 -16 l 1,35,36
 191 -36 191 -36 178 -50 c 0,37,38
 164 -63 164 -63 144 -64 c 2,39,-1
 112 -64 l 1,40,-1
 112 -64 l 1,41,42
 92 -63 92 -63 78 -50 c 0,43,44
 65 -36 65 -36 64 -16 c 2,45,-1
 64 100 l 1,46,-1
 64 100 l 1,47,48
 44 107 44 107 32 125 c 256,49,50
 20 143 20 143 22 165 c 2,51,-1
 26 215 l 1,52,-1
 26 215 l 1,13,14
448 384 m 1,53,54
 449 420 449 420 480 439 c 0,55,56
 512 457 512 457 544 439 c 0,57,58
 575 420 575 420 576 384 c 0,59,60
 575 348 575 348 544 329 c 0,61,62
 512 311 512 311 480 329 c 0,63,64
 449 348 449 348 448 384 c 1,65,-1
 448 384 l 1,53,54
432 248 m 1,66,67
 428 251 428 251 424 254 c 1,68,69
 448 286 448 286 490 288 c 2,70,-1
 534 288 l 1,71,-1
 534 288 l 1,72,73
 566 287 566 287 589 267 c 0,74,75
 611 246 611 246 614 215 c 2,76,-1
 618 165 l 1,77,-1
 618 165 l 1,78,79
 620 143 620 143 608 125 c 256,80,81
 596 107 596 107 576 100 c 1,82,-1
 576 -16 l 1,83,-1
 576 -16 l 1,84,85
 575 -36 575 -36 562 -50 c 0,86,87
 548 -63 548 -63 528 -64 c 2,88,-1
 496 -64 l 1,89,-1
 496 -64 l 1,90,91
 476 -63 476 -63 462 -50 c 0,92,93
 449 -36 449 -36 448 -16 c 2,94,-1
 448 57 l 1,95,-1
 448 57 l 1,96,-1
 496 104 l 1,97,-1
 496 104 l 1,98,99
 512 122 512 122 512 144 c 256,100,101
 512 166 512 166 496 184 c 2,102,-1
 432 248 l 1,103,-1
 432 248 l 1,66,67
272 208 m 1,104,-1
 272 176 l 1,105,-1
 272 208 l 1,106,-1
 272 176 l 1,107,-1
 368 176 l 1,108,-1
 368 176 l 1,109,-1
 368 208 l 1,110,-1
 368 208 l 1,111,112
 369 224 369 224 383 230 c 256,113,114
 397 236 397 236 409 225 c 2,115,-1
 473 161 l 1,116,-1
 473 161 l 1,117,118
 487 144 487 144 473 127 c 2,119,-1
 409 63 l 1,120,-1
 409 63 l 1,121,122
 397 53 397 53 383 58 c 0,123,124
 369 64 369 64 368 80 c 2,125,-1
 368 112 l 1,126,-1
 368 112 l 1,127,-1
 272 112 l 1,128,-1
 272 112 l 1,129,-1
 272 80 l 1,130,-1
 272 80 l 1,131,132
 271 64 271 64 257 58 c 0,133,134
 243 53 243 53 231 63 c 2,135,-1
 167 127 l 1,136,-1
 167 127 l 1,137,138
 153 144 153 144 167 161 c 2,139,-1
 231 225 l 1,140,-1
 231 225 l 1,141,142
 243 236 243 236 257 230 c 256,143,144
 271 224 271 224 272 208 c 1,145,-1
 272 208 l 1,104,-1
EndSplineSet
EndChar

StartChar: plane-slash
Encoding: 57449 57449 71
Width: 640
GlyphClass: 1
Flags: W
LayerCount: 2
Fore
SplineSet
514 256 m 1,0,1
 543 255 543 255 574 237 c 1,2,-1
 574 237 l 1,3,-1
 574 237 l 1,4,5
 605 219 605 219 608 192 c 1,6,7
 605 164 605 164 574 146 c 0,8,9
 543 129 543 129 514 128 c 2,10,-1
 441 128 l 1,11,-1
 441 128 l 1,12,-1
 631 -21 l 1,13,-1
 631 -21 l 1,14,15
 647 -36 647 -36 635 -55 c 1,16,17
 620 -71 620 -71 601 -59 c 2,18,-1
 9 405 l 1,19,-1
 9 405 l 1,20,21
 -7 420 -7 420 5 439 c 1,22,23
 20 455 20 455 39 443 c 2,24,-1
 238 287 l 1,25,-1
 238 287 l 1,26,-1
 198 428 l 1,27,-1
 198 428 l 1,28,29
 195 445 195 445 213 448 c 2,30,-1
 269 448 l 1,31,-1
 269 448 l 1,32,33
 288 447 288 447 297 432 c 2,34,-1
 398 256 l 1,35,-1
 398 256 l 1,36,-1
 514 256 l 1,37,-1
 514 256 l 1,0,1
42 319 m 1,38,-1
 363 66 l 1,39,-1
 42 319 l 1,40,-1
 363 66 l 1,41,-1
 297 -48 l 1,42,-1
 297 -48 l 1,43,44
 288 -63 288 -63 269 -64 c 2,45,-1
 213 -64 l 1,46,-1
 213 -64 l 1,47,48
 195 -61 195 -61 198 -44 c 2,49,-1
 247 128 l 1,50,-1
 247 128 l 1,51,-1
 144 128 l 1,52,-1
 144 128 l 1,53,-1
 101 70 l 1,54,-1
 101 70 l 1,55,56
 96 64 96 64 88 64 c 2,57,-1
 46 64 l 1,58,-1
 46 64 l 1,59,60
 33 65 33 65 32 78 c 0,61,62
 32 80 32 80 33 82 c 2,63,-1
 64 192 l 1,64,-1
 64 192 l 1,65,-1
 33 302 l 1,66,-1
 33 302 l 1,67,68
 32 304 32 304 32 306 c 0,69,70
 33 316 33 316 42 319 c 1,71,-1
 42 319 l 1,38,-1
EndSplineSet
EndChar

StartChar: pump-medical
Encoding: 57450 57450 72
Width: 448
GlyphClass: 1
Flags: W
LayerCount: 2
Fore
SplineSet
128 416 m 1,0,-1
 128 320 l 1,1,-1
 128 416 l 1,2,-1
 128 320 l 1,3,-1
 256 320 l 1,4,-1
 256 320 l 1,5,-1
 256 352 l 1,6,-1
 256 352 l 1,7,-1
 316 352 l 1,8,-1
 316 352 l 1,9,10
 323 352 323 352 327 347 c 2,11,-1
 361 313 l 1,12,-1
 361 313 l 1,13,14
 371 304 371 304 384 304 c 256,15,16
 397 304 397 304 407 313 c 0,17,18
 416 323 416 323 416 336 c 256,19,20
 416 349 416 349 407 359 c 2,21,-1
 373 393 l 1,22,-1
 373 393 l 1,23,24
 349 416 349 416 316 416 c 2,25,-1
 256 416 l 1,26,-1
 256 416 l 1,27,28
 256 430 256 430 247 439 c 256,29,30
 238 448 238 448 224 448 c 2,31,-1
 160 448 l 1,32,-1
 160 448 l 1,33,34
 146 448 146 448 137 439 c 256,35,36
 128 430 128 430 128 416 c 1,37,-1
 128 416 l 1,0,-1
117 288 m 1,38,39
 92 287 92 287 74 271 c 1,40,-1
 74 271 l 1,41,-1
 74 271 l 1,42,43
 56 255 56 255 54 229 c 2,44,-1
 35 5 l 1,45,-1
 35 5 l 1,46,47
 33 -24 33 -24 52 -43 c 0,48,49
 70 -63 70 -63 99 -64 c 2,50,-1
 285 -64 l 1,51,-1
 285 -64 l 1,52,53
 314 -63 314 -63 332 -43 c 0,54,55
 351 -24 351 -24 349 5 c 2,56,-1
 330 229 l 1,57,-1
 330 229 l 1,58,59
 328 255 328 255 310 271 c 256,60,61
 292 287 292 287 267 288 c 2,62,-1
 117 288 l 1,63,-1
 117 288 l 1,38,39
216 168 m 1,64,-1
 216 136 l 1,65,-1
 216 168 l 1,66,-1
 216 136 l 1,67,-1
 248 136 l 1,68,-1
 248 136 l 1,69,70
 270 134 270 134 272 112 c 0,71,72
 270 90 270 90 248 88 c 2,73,-1
 216 88 l 1,74,-1
 216 88 l 1,75,-1
 216 56 l 1,76,-1
 216 56 l 1,77,78
 214 34 214 34 192 32 c 0,79,80
 170 34 170 34 168 56 c 2,81,-1
 168 88 l 1,82,-1
 168 88 l 1,83,-1
 136 88 l 1,84,-1
 136 88 l 1,85,86
 114 90 114 90 112 112 c 0,87,88
 114 134 114 134 136 136 c 2,89,-1
 168 136 l 1,90,-1
 168 136 l 1,91,-1
 168 168 l 1,92,-1
 168 168 l 1,93,94
 170 190 170 190 192 192 c 0,95,96
 214 190 214 190 216 168 c 1,97,-1
 216 168 l 1,64,-1
EndSplineSet
EndChar

StartChar: pump-soap
Encoding: 57451 57451 73
Width: 448
GlyphClass: 1
Flags: W
LayerCount: 2
Fore
SplineSet
128 416 m 1,0,-1
 128 320 l 1,1,-1
 128 416 l 1,2,-1
 128 320 l 1,3,-1
 256 320 l 1,4,-1
 256 320 l 1,5,-1
 256 352 l 1,6,-1
 256 352 l 1,7,-1
 316 352 l 1,8,-1
 316 352 l 1,9,10
 323 352 323 352 327 347 c 2,11,-1
 361 313 l 1,12,-1
 361 313 l 1,13,14
 371 304 371 304 384 304 c 256,15,16
 397 304 397 304 407 313 c 0,17,18
 416 323 416 323 416 336 c 256,19,20
 416 349 416 349 407 359 c 2,21,-1
 373 393 l 1,22,-1
 373 393 l 1,23,24
 349 416 349 416 316 416 c 2,25,-1
 256 416 l 1,26,-1
 256 416 l 1,27,28
 256 430 256 430 247 439 c 256,29,30
 238 448 238 448 224 448 c 2,31,-1
 160 448 l 1,32,-1
 160 448 l 1,33,34
 146 448 146 448 137 439 c 256,35,36
 128 430 128 430 128 416 c 1,37,-1
 128 416 l 1,0,-1
117 288 m 1,38,39
 92 287 92 287 74 271 c 1,40,-1
 74 271 l 1,41,-1
 74 271 l 1,42,43
 56 255 56 255 54 229 c 2,44,-1
 35 5 l 1,45,-1
 35 5 l 1,46,47
 33 -24 33 -24 52 -43 c 0,48,49
 70 -63 70 -63 99 -64 c 2,50,-1
 285 -64 l 1,51,-1
 285 -64 l 1,52,53
 314 -63 314 -63 332 -43 c 0,54,55
 351 -24 351 -24 349 5 c 2,56,-1
 330 229 l 1,57,-1
 330 229 l 1,58,59
 328 255 328 255 310 271 c 256,60,61
 292 287 292 287 267 288 c 2,62,-1
 117 288 l 1,63,-1
 117 288 l 1,38,39
256 88 m 1,64,65
 255 61 255 61 237 47 c 1,66,-1
 237 47 l 1,67,-1
 237 47 l 1,68,69
 219 32 219 32 192 32 c 256,70,71
 165 32 165 32 147 47 c 0,72,73
 129 61 129 61 128 88 c 0,74,75
 130 114 130 114 148 143 c 0,76,77
 167 172 167 172 179 186 c 0,78,79
 184 192 184 192 192 192 c 256,80,81
 200 192 200 192 205 186 c 0,82,83
 217 172 217 172 236 143 c 0,84,85
 254 114 254 114 256 88 c 1,86,-1
 256 88 l 1,64,65
EndSplineSet
EndChar

StartChar: shield-virus
Encoding: 57452 57452 74
Width: 512
GlyphClass: 1
Flags: W
LayerCount: 2
Fore
SplineSet
269 445 m 1,0,1
 263 448 263 448 256 448 c 256,2,3
 249 448 249 448 243 445 c 2,4,-1
 54 365 l 1,5,-1
 54 365 l 1,6,7
 37 358 37 358 27 343 c 0,8,9
 16 328 16 328 16 308 c 0,10,11
 15 257 15 257 33 188 c 256,12,13
 51 119 51 119 98 54 c 0,14,15
 144 -12 144 -12 230 -55 c 0,16,17
 256 -67 256 -67 282 -55 c 0,18,19
 368 -12 368 -12 414 54 c 0,20,21
 461 119 461 119 479 188 c 256,22,23
 497 257 497 257 496 308 c 0,24,25
 496 328 496 328 485 343 c 0,26,27
 475 358 475 358 458 365 c 2,28,-1
 269 445 l 1,29,-1
 269 445 l 1,0,1
256 336 m 1,30,31
 271 335 271 335 272 320 c 0,32,33
 274 295 274 295 295 286 c 256,34,35
 316 277 316 277 335 294 c 0,36,37
 347 303 347 303 358 294 c 0,38,39
 367 282 367 282 358 271 c 0,40,41
 341 252 341 252 350 231 c 256,42,43
 359 210 359 210 384 208 c 0,44,45
 399 207 399 207 400 192 c 0,46,47
 399 177 399 177 384 176 c 0,48,49
 359 174 359 174 350 153 c 256,50,51
 341 132 341 132 358 113 c 0,52,53
 367 101 367 101 358 90 c 0,54,55
 346 81 346 81 335 90 c 0,56,57
 316 107 316 107 295 98 c 256,58,59
 274 89 274 89 272 64 c 0,60,61
 271 49 271 49 256 48 c 0,62,63
 241 49 241 49 240 64 c 0,64,65
 238 89 238 89 217 98 c 256,66,67
 196 107 196 107 177 90 c 0,68,69
 166 81 166 81 154 90 c 1,70,71
 145 102 145 102 154 113 c 0,72,73
 171 132 171 132 162 153 c 256,74,75
 153 174 153 174 128 176 c 0,76,77
 113 177 113 177 112 192 c 0,78,79
 113 207 113 207 128 208 c 0,80,81
 153 210 153 210 162 231 c 256,82,83
 171 252 171 252 154 271 c 0,84,85
 145 282 145 282 154 294 c 1,86,87
 166 303 166 303 177 294 c 0,88,89
 196 277 196 277 217 286 c 256,90,91
 238 295 238 295 240 320 c 0,92,93
 241 335 241 335 256 336 c 1,94,-1
 256 336 l 1,30,31
232 192 m 1,95,96
 254 194 254 194 256 216 c 0,97,98
 254 238 254 238 232 240 c 0,99,100
 210 238 210 238 208 216 c 0,101,102
 210 194 210 194 232 192 c 1,103,-1
 232 192 l 1,95,96
304 160 m 1,104,105
 303 175 303 175 288 176 c 0,106,107
 273 175 273 175 272 160 c 0,108,109
 273 145 273 145 288 144 c 0,110,111
 303 145 303 145 304 160 c 1,112,-1
 304 160 l 1,104,105
EndSplineSet
EndChar

StartChar: sink
Encoding: 57453 57453 75
Width: 512
GlyphClass: 1
Flags: W
LayerCount: 2
Fore
SplineSet
288 352 m 1,0,1
 288 366 288 366 297 375 c 1,2,-1
 297 375 l 1,3,-1
 297 375 l 1,4,5
 306 384 306 384 320 384 c 256,6,7
 334 384 334 384 343 375 c 256,8,9
 352 366 352 366 352 352 c 256,10,11
 352 338 352 338 361 329 c 256,12,13
 370 320 370 320 384 320 c 256,14,15
 398 320 398 320 407 329 c 256,16,17
 416 338 416 338 416 352 c 0,18,19
 415 393 415 393 388 420 c 256,20,21
 361 447 361 447 320 448 c 0,22,23
 279 447 279 447 252 420 c 256,24,25
 225 393 225 393 224 352 c 2,26,-1
 224 160 l 1,27,-1
 224 160 l 1,28,-1
 160 160 l 1,29,-1
 160 160 l 1,30,-1
 160 184 l 1,31,-1
 160 184 l 1,32,33
 159 208 159 208 144 224 c 0,34,35
 128 239 128 239 104 240 c 2,36,-1
 56 240 l 1,37,-1
 56 240 l 1,38,39
 34 238 34 238 32 216 c 0,40,41
 34 194 34 194 56 192 c 2,42,-1
 104 192 l 1,43,-1
 104 192 l 1,44,45
 111 191 111 191 112 184 c 2,46,-1
 112 160 l 1,47,-1
 112 160 l 1,48,-1
 32 160 l 1,49,-1
 32 160 l 1,50,51
 18 160 18 160 9 151 c 256,52,53
 0 142 0 142 0 128 c 256,54,55
 0 114 0 114 9 105 c 256,56,57
 18 96 18 96 32 96 c 2,58,-1
 256 96 l 1,59,-1
 480 96 l 2,60,61
 494 96 494 96 503 105 c 256,62,63
 512 114 512 114 512 128 c 256,64,65
 512 142 512 142 503 151 c 256,66,67
 494 160 494 160 480 160 c 2,68,-1
 400 160 l 1,69,-1
 400 160 l 1,70,-1
 400 184 l 1,71,-1
 400 184 l 1,72,73
 401 191 401 191 408 192 c 2,74,-1
 464 192 l 1,75,-1
 464 192 l 1,76,77
 486 194 486 194 488 216 c 0,78,79
 486 238 486 238 464 240 c 2,80,-1
 408 240 l 1,81,-1
 408 240 l 1,82,83
 384 239 384 239 368 224 c 0,84,85
 353 208 353 208 352 184 c 2,86,-1
 352 160 l 1,87,-1
 352 160 l 1,88,-1
 288 160 l 1,89,-1
 288 160 l 1,90,-1
 288 352 l 1,91,-1
 288 352 l 1,0,1
480 32 m 1,92,-1
 480 64 l 1,93,-1
 480 32 l 1,94,-1
 480 64 l 1,95,-1
 32 64 l 1,96,-1
 32 64 l 1,97,-1
 32 32 l 1,98,-1
 32 32 l 1,99,100
 33 -9 33 -9 60 -36 c 256,101,102
 87 -63 87 -63 128 -64 c 2,103,-1
 384 -64 l 1,104,-1
 384 -64 l 1,105,106
 425 -63 425 -63 452 -36 c 256,107,108
 479 -9 479 -9 480 32 c 1,109,-1
 480 32 l 1,92,-1
EndSplineSet
EndChar

StartChar: soap
Encoding: 57454 57454 76
AltUni2: 01f9fc.ffffffff.0 01f9fc.ffffffff.0
Width: 512
GlyphClass: 1
Flags: W
LayerCount: 2
Fore
SplineSet
208 352 m 1,0,1
 235 353 235 353 250 376 c 0,2,3
 262 400 262 400 250 424 c 0,4,5
 235 447 235 447 208 448 c 0,6,7
 181 447 181 447 166 424 c 0,8,9
 154 400 154 400 166 376 c 0,10,11
 181 353 181 353 208 352 c 1,12,-1
 208 352 l 1,0,1
320 192 m 1,13,14
 356 193 356 193 375 224 c 0,15,16
 393 256 393 256 375 288 c 0,17,18
 356 319 356 319 320 320 c 0,19,20
 284 319 284 319 265 288 c 0,21,22
 247 256 247 256 265 224 c 0,23,24
 284 193 284 193 320 192 c 1,25,-1
 320 192 l 1,13,14
416 416 m 1,26,27
 416 430 416 430 407 439 c 1,28,-1
 407 439 l 1,29,-1
 407 439 l 1,30,31
 398 448 398 448 384 448 c 256,32,33
 370 448 370 448 361 439 c 256,34,35
 352 430 352 430 352 416 c 256,36,37
 352 402 352 402 361 393 c 256,38,39
 370 384 370 384 384 384 c 256,40,41
 398 384 398 384 407 393 c 256,42,43
 416 402 416 402 416 416 c 1,44,-1
 416 416 l 1,26,27
416 256 m 1,45,46
 415 213 415 213 386 186 c 1,47,48
 413 175 413 175 430 151 c 0,49,50
 448 127 448 127 448 96 c 0,51,52
 447 55 447 55 420 28 c 256,53,54
 393 1 393 1 352 0 c 2,55,-1
 160 0 l 1,56,-1
 160 0 l 1,57,58
 119 1 119 1 92 28 c 256,59,60
 65 55 65 55 64 96 c 0,61,62
 65 137 65 137 92 164 c 256,63,64
 119 191 119 191 160 192 c 2,65,-1
 248 192 l 1,66,-1
 248 192 l 1,67,68
 225 218 225 218 224 256 c 1,69,-1
 96 256 l 1,70,-1
 96 256 l 1,71,72
 55 255 55 255 28 228 c 256,73,74
 1 201 1 201 0 160 c 2,75,-1
 0 32 l 1,76,-1
 0 32 l 1,77,78
 1 -9 1 -9 28 -36 c 256,79,80
 55 -63 55 -63 96 -64 c 2,81,-1
 416 -64 l 1,82,-1
 416 -64 l 1,83,84
 457 -63 457 -63 484 -36 c 256,85,86
 511 -9 511 -9 512 32 c 2,87,-1
 512 160 l 1,88,-1
 512 160 l 1,89,90
 511 201 511 201 484 228 c 256,91,92
 457 255 457 255 416 256 c 1,93,-1
 416 256 l 1,45,46
160 160 m 2,94,95
 133 159 133 159 115 141 c 1,96,-1
 115 141 l 1,97,-1
 115 141 l 1,98,99
 97 123 97 123 96 96 c 0,100,101
 97 69 97 69 115 51 c 256,102,103
 133 33 133 33 160 32 c 2,104,-1
 352 32 l 1,105,-1
 352 32 l 1,106,107
 379 33 379 33 397 51 c 256,108,109
 415 69 415 69 416 96 c 0,110,111
 415 123 415 123 397 141 c 256,112,113
 379 159 379 159 352 160 c 2,114,-1
 320 160 l 1,115,-1
 160 160 l 2,94,95
EndSplineSet
EndChar

StartChar: stopwatch-20
Encoding: 57455 57455 77
Width: 448
GlyphClass: 1
Flags: W
LayerCount: 2
Fore
SplineSet
176 448 m 1,0,1
 162 448 162 448 153 439 c 1,2,-1
 153 439 l 1,3,-1
 153 439 l 1,4,5
 144 430 144 430 144 416 c 256,6,7
 144 402 144 402 153 393 c 256,8,9
 162 384 162 384 176 384 c 2,10,-1
 192 384 l 1,11,-1
 192 384 l 1,12,-1
 192 350 l 1,13,-1
 192 350 l 1,14,15
 116 336 116 336 67 280 c 256,16,17
 18 224 18 224 16 144 c 0,18,19
 18 56 18 56 77 -3 c 256,20,21
 136 -62 136 -62 224 -64 c 0,22,23
 312 -62 312 -62 371 -3 c 256,24,25
 430 56 430 56 432 144 c 0,26,27
 431 208 431 208 399 257 c 1,28,-1
 423 281 l 1,29,-1
 423 281 l 1,30,31
 432 291 432 291 432 304 c 256,32,33
 432 317 432 317 423 327 c 0,34,35
 413 336 413 336 400 336 c 256,36,37
 387 336 387 336 377 327 c 2,38,-1
 356 305 l 1,39,-1
 356 305 l 1,40,41
 313 340 313 340 256 350 c 1,42,-1
 256 384 l 1,43,-1
 256 384 l 1,44,-1
 272 384 l 1,45,-1
 272 384 l 1,46,47
 286 384 286 384 295 393 c 256,48,49
 304 402 304 402 304 416 c 256,50,51
 304 430 304 430 295 439 c 256,52,53
 286 448 286 448 272 448 c 2,54,-1
 176 448 l 1,55,-1
 176 448 l 1,0,1
288 244 m 1,56,57
 310 243 310 243 325 229 c 1,58,-1
 325 229 l 1,59,-1
 325 229 l 1,60,61
 339 214 339 214 340 192 c 2,62,-1
 340 96 l 1,63,-1
 340 96 l 1,64,65
 339 74 339 74 325 59 c 0,66,67
 310 45 310 45 288 44 c 0,68,69
 266 45 266 45 251 59 c 0,70,71
 237 74 237 74 236 96 c 2,72,-1
 236 192 l 1,73,-1
 236 192 l 1,74,75
 237 214 237 214 251 229 c 0,76,77
 266 243 266 243 288 244 c 1,78,-1
 288 244 l 1,56,57
276 192 m 1,79,-1
 276 96 l 1,80,-1
 276 192 l 1,81,-1
 276 96 l 2,82,83
 277 85 277 85 288 84 c 0,84,85
 299 85 299 85 300 96 c 2,86,-1
 300 192 l 1,87,-1
 300 192 l 1,88,89
 299 203 299 203 288 204 c 0,90,91
 277 203 277 203 276 192 c 1,92,-1
 276 192 l 1,79,-1
160 204 m 1,93,94
 151 204 151 204 148 195 c 1,95,-1
 147 194 l 1,96,-1
 147 194 l 1,97,98
 140 177 140 177 122 181 c 0,99,100
 105 188 105 188 109 206 c 1,101,-1
 110 208 l 1,102,-1
 110 208 l 1,103,104
 123 242 123 242 160 244 c 0,105,106
 182 243 182 243 197 229 c 0,107,108
 211 214 211 214 212 191 c 2,109,-1
 212 189 l 1,110,-1
 212 189 l 1,111,112
 212 169 212 169 198 153 c 2,113,-1
 159 109 l 1,114,-1
 159 109 l 1,115,116
 150 98 150 98 148 84 c 1,117,-1
 192 84 l 1,118,-1
 192 84 l 1,119,120
 210 82 210 82 212 64 c 0,121,122
 210 46 210 46 192 44 c 2,123,-1
 128 44 l 1,124,-1
 128 44 l 1,125,126
 110 46 110 46 108 64 c 2,127,-1
 108 80 l 1,128,-1
 108 80 l 1,129,130
 108 112 108 112 129 136 c 2,131,-1
 168 179 l 1,132,-1
 168 179 l 1,133,134
 172 184 172 184 172 189 c 2,135,-1
 172 191 l 1,136,-1
 172 191 l 1,137,138
 171 203 171 203 160 204 c 1,139,-1
 160 204 l 1,93,94
EndSplineSet
EndChar

StartChar: shop-slash
Encoding: 57456 57456 78
Width: 640
GlyphClass: 1
Flags: W
LayerCount: 2
Fore
SplineSet
39 443 m 1,0,1
 20 455 20 455 5 439 c 1,2,3
 -7 420 -7 420 9 405 c 2,4,-1
 601 -59 l 1,5,-1
 601 -59 l 1,6,7
 620 -71 620 -71 635 -55 c 1,8,9
 647 -36 647 -36 631 -21 c 2,10,-1
 576 22 l 1,11,-1
 576 22 l 1,12,-1
 576 224 l 1,13,-1
 576 224 l 1,14,-1
 512 224 l 1,15,-1
 512 224 l 1,16,-1
 512 72 l 1,17,-1
 512 72 l 1,18,-1
 384 172 l 1,19,-1
 384 172 l 1,20,-1
 384 224 l 1,21,-1
 384 224 l 1,22,-1
 320 224 l 1,23,-1
 320 224 l 1,24,-1
 320 222 l 1,25,-1
 320 222 l 1,26,-1
 277 256 l 1,27,-1
 277 256 l 1,28,-1
 603 256 l 1,29,-1
 603 256 l 1,30,31
 619 256 619 256 629 267 c 0,32,33
 640 277 640 277 640 293 c 0,34,35
 640 304 640 304 634 313 c 2,36,-1
 558 427 l 1,37,-1
 558 427 l 1,38,39
 544 447 544 447 518 448 c 2,40,-1
 122 448 l 1,41,-1
 122 448 l 1,42,43
 96 447 96 447 82 427 c 2,44,-1
 74 415 l 1,45,-1
 74 415 l 1,46,-1
 39 443 l 1,47,-1
 39 443 l 1,0,1
37 256 m 1,48,-1
 122 256 l 1,49,-1
 37 256 l 1,50,-1
 122 256 l 1,51,-1
 21 335 l 1,52,-1
 21 335 l 1,53,-1
 6 313 l 1,54,-1
 6 313 l 1,55,56
 0 304 0 304 0 293 c 0,57,58
 0 277 0 277 11 267 c 0,59,60
 21 256 21 256 37 256 c 1,61,-1
 37 256 l 1,48,-1
320 64 m 1,62,-1
 128 64 l 1,63,-1
 320 64 l 1,64,-1
 128 64 l 1,65,-1
 128 224 l 1,66,-1
 128 224 l 1,67,-1
 64 224 l 1,68,-1
 64 224 l 1,69,-1
 64 64 l 1,70,-1
 64 64 l 1,71,-1
 64 -16 l 1,72,-1
 64 -16 l 1,73,74
 65 -36 65 -36 78 -50 c 0,75,76
 92 -63 92 -63 112 -64 c 2,77,-1
 336 -64 l 1,78,-1
 336 -64 l 1,79,80
 356 -63 356 -63 370 -50 c 0,81,82
 383 -36 383 -36 384 -16 c 2,83,-1
 384 49 l 1,84,-1
 384 49 l 1,85,-1
 320 100 l 1,86,-1
 320 100 l 1,87,-1
 320 64 l 1,88,-1
 320 64 l 1,62,-1
EndSplineSet
EndChar

StartChar: store-slash
Encoding: 57457 57457 79
Width: 640
GlyphClass: 1
Flags: W
LayerCount: 2
Fore
SplineSet
39 443 m 1,0,1
 20 455 20 455 5 439 c 1,2,3
 -7 420 -7 420 9 405 c 2,4,-1
 601 -59 l 1,5,-1
 601 -59 l 1,6,7
 620 -71 620 -71 635 -55 c 1,8,9
 647 -36 647 -36 631 -21 c 2,10,-1
 544 47 l 1,11,-1
 544 47 l 1,12,-1
 544 64 l 1,13,-1
 544 64 l 1,14,-1
 544 195 l 1,15,-1
 544 195 l 1,16,17
 538 194 538 194 532 193 c 1,18,19
 532 193 532 193 532 193 c 1,20,21
 524 192 524 192 515 192 c 0,22,23
 497 192 497 192 480 197 c 1,24,-1
 480 97 l 1,25,-1
 480 97 l 1,26,-1
 301 237 l 1,27,-1
 301 237 l 1,28,29
 312 244 312 244 320 253 c 1,30,31
 345 225 345 225 385 224 c 0,32,33
 426 225 426 225 450 253 c 1,34,35
 475 225 475 225 516 224 c 0,36,37
 522 224 522 224 528 225 c 0,38,39
 570 233 570 233 586 270 c 0,40,41
 601 307 601 307 580 344 c 2,42,-1
 522 435 l 1,43,-1
 522 435 l 1,44,45
 514 448 514 448 498 448 c 2,46,-1
 142 448 l 1,47,-1
 142 448 l 1,48,49
 126 448 126 448 118 435 c 2,50,-1
 95 399 l 1,51,-1
 95 399 l 1,52,-1
 39 443 l 1,53,-1
 39 443 l 1,0,1
112 225 m 1,54,55
 118 224 118 224 124 224 c 0,56,57
 141 224 141 224 155 230 c 1,58,-1
 49 313 l 1,59,-1
 49 313 l 1,60,61
 45 282 45 282 62 256 c 256,62,63
 79 230 79 230 112 225 c 1,64,-1
 112 225 l 1,54,55
160 64 m 1,65,-1
 160 197 l 1,66,-1
 160 64 l 1,67,-1
 160 197 l 1,68,69
 143 192 143 192 124 192 c 0,70,71
 116 192 116 192 108 193 c 1,72,-1
 108 193 l 1,73,-1
 108 193 l 1,74,75
 102 194 102 194 96 195 c 1,76,-1
 96 64 l 1,77,-1
 96 64 l 1,78,-1
 96 0 l 1,79,-1
 96 0 l 1,80,81
 97 -27 97 -27 115 -45 c 256,82,83
 133 -63 133 -63 160 -64 c 2,84,-1
 480 -64 l 1,85,-1
 480 -64 l 1,86,87
 500 -64 500 -64 515 -54 c 1,88,-1
 366 64 l 1,89,-1
 366 64 l 1,90,-1
 160 64 l 1,91,-1
 160 64 l 1,65,-1
EndSplineSet
EndChar

StartChar: toilet-paper-slash
Encoding: 57458 57458 80
Width: 640
GlyphClass: 1
Flags: W
LayerCount: 2
Fore
SplineSet
39 443 m 1,0,1
 20 455 20 455 5 439 c 1,2,3
 -7 420 -7 420 9 405 c 2,4,-1
 601 -59 l 1,5,-1
 601 -59 l 1,6,7
 620 -71 620 -71 635 -55 c 1,8,9
 647 -36 647 -36 631 -21 c 2,10,-1
 521 65 l 1,11,-1
 521 65 l 1,12,13
 559 73 559 73 583 126 c 256,14,15
 607 179 607 179 608 256 c 0,16,17
 607 338 607 338 580 392 c 256,18,19
 553 446 553 446 512 448 c 0,20,21
 471 446 471 446 444 392 c 256,22,23
 417 338 417 338 416 256 c 0,24,25
 417 181 417 181 440 128 c 1,26,-1
 381 174 l 1,27,-1
 381 174 l 1,28,29
 384 212 384 212 384 256 c 0,30,31
 383 306 383 306 396 358 c 0,32,33
 410 409 410 409 444 448 c 1,34,-1
 160 448 l 1,35,-1
 160 448 l 1,36,37
 122 446 122 446 96 398 c 1,38,-1
 39 443 l 1,39,-1
 39 443 l 1,0,1
367 63 m 1,40,-1
 67 300 l 1,41,-1
 367 63 l 1,42,-1
 67 300 l 1,43,44
 64 279 64 279 64 256 c 0,45,46
 64 180 64 180 57 127 c 256,47,48
 50 74 50 74 41 42 c 0,49,50
 34 12 34 12 21 -16 c 0,51,52
 12 -32 12 -32 20 -48 c 0,53,54
 30 -63 30 -63 48 -64 c 2,55,-1
 286 -64 l 1,56,-1
 286 -64 l 1,57,58
 303 -64 303 -64 318 -55 c 256,59,60
 333 -46 333 -46 341 -28 c 0,61,62
 353 -2 353 -2 367 63 c 1,63,-1
 367 63 l 1,40,-1
544 256 m 1,64,65
 544 229 544 229 535 211 c 1,66,-1
 535 211 l 1,67,-1
 535 211 l 1,68,69
 526 193 526 193 512 192 c 0,70,71
 498 193 498 193 489 211 c 256,72,73
 480 229 480 229 480 256 c 256,74,75
 480 283 480 283 489 301 c 256,76,77
 498 319 498 319 512 320 c 0,78,79
 526 319 526 319 535 301 c 256,80,81
 544 283 544 283 544 256 c 1,82,-1
 544 256 l 1,64,65
EndSplineSet
EndChar

StartChar: users-slash
Encoding: 57459 57459 81
Width: 640
GlyphClass: 1
Flags: W
LayerCount: 2
Fore
SplineSet
39 443 m 1,0,1
 20 455 20 455 5 439 c 1,2,3
 -7 420 -7 420 9 405 c 2,4,-1
 601 -59 l 1,5,-1
 601 -59 l 1,6,7
 620 -71 620 -71 635 -55 c 1,8,9
 647 -36 647 -36 631 -21 c 2,10,-1
 441 128 l 1,11,-1
 441 128 l 1,12,-1
 619 128 l 1,13,-1
 619 128 l 1,14,15
 638 130 638 130 640 149 c 0,16,17
 639 195 639 195 609 225 c 256,18,19
 579 255 579 255 533 256 c 2,20,-1
 491 256 l 1,21,-1
 491 256 l 1,22,23
 467 256 467 256 446 246 c 1,24,25
 448 235 448 235 448 224 c 0,26,27
 447 178 447 178 420 144 c 1,28,-1
 395 164 l 1,29,-1
 395 164 l 1,30,31
 415 189 415 189 416 224 c 0,32,33
 415 265 415 265 388 292 c 256,34,35
 361 319 361 319 320 320 c 0,36,37
 272 318 272 318 244 282 c 1,38,-1
 203 314 l 1,39,-1
 203 314 l 1,40,41
 223 336 223 336 224 368 c 0,42,43
 223 402 223 402 201 425 c 0,44,45
 178 447 178 447 144 448 c 0,46,47
 101 446 101 446 78 412 c 1,48,-1
 39 443 l 1,49,-1
 39 443 l 1,0,1
107 256 m 1,50,51
 61 255 61 255 31 225 c 1,52,-1
 31 225 l 1,53,-1
 31 225 l 1,54,55
 1 195 1 195 0 149 c 0,56,57
 2 130 2 130 21 128 c 2,58,-1
 235 128 l 1,59,-1
 235 128 l 1,60,61
 235 128 235 128 235 128 c 257,62,63
 235 128 235 128 235 128 c 1,64,65
 204 156 204 156 195 199 c 1,66,-1
 122 256 l 1,67,-1
 122 256 l 1,68,-1
 107 256 l 1,69,-1
 107 256 l 1,50,51
261 96 m 1,70,71
 205 95 205 95 167 57 c 1,72,-1
 167 57 l 1,73,-1
 167 57 l 1,74,75
 129 19 129 19 128 -37 c 0,76,77
 130 -62 130 -62 155 -64 c 2,78,-1
 485 -64 l 1,79,-1
 485 -64 l 1,80,81
 502 -63 502 -63 509 -49 c 1,82,-1
 325 96 l 1,83,-1
 325 96 l 1,84,-1
 261 96 l 1,85,-1
 261 96 l 1,70,71
512 288 m 1,86,87
 557 289 557 289 581 328 c 0,88,89
 603 368 603 368 581 408 c 0,90,91
 557 447 557 447 512 448 c 0,92,93
 467 447 467 447 443 408 c 0,94,95
 421 368 421 368 443 328 c 0,96,97
 467 289 467 289 512 288 c 1,98,-1
 512 288 l 1,86,87
EndSplineSet
EndChar

StartChar: virus
Encoding: 57460 57460 82
Width: 512
GlyphClass: 1
Flags: W
LayerCount: 2
Fore
SplineSet
288 416 m 1,0,1
 288 430 288 430 279 439 c 1,2,-1
 279 439 l 1,3,-1
 279 439 l 1,4,5
 270 448 270 448 256 448 c 256,6,7
 242 448 242 448 233 439 c 256,8,9
 224 430 224 430 224 416 c 2,10,-1
 224 404 l 1,11,-1
 224 404 l 1,12,13
 221 366 221 366 189 353 c 0,14,15
 158 340 158 340 128 365 c 2,16,-1
 120 373 l 1,17,-1
 120 373 l 1,18,19
 110 382 110 382 98 382 c 0,20,21
 85 382 85 382 75 373 c 0,22,23
 66 363 66 363 66 350 c 0,24,25
 66 338 66 338 75 328 c 2,26,-1
 83 319 l 1,27,-1
 83 319 l 1,28,29
 108 290 108 290 95 259 c 0,30,31
 82 227 82 227 44 224 c 2,32,-1
 32 224 l 1,33,-1
 32 224 l 1,34,35
 18 224 18 224 9 215 c 256,36,37
 0 206 0 206 0 192 c 256,38,39
 0 178 0 178 9 169 c 256,40,41
 18 160 18 160 32 160 c 2,42,-1
 44 160 l 1,43,-1
 44 160 l 1,44,45
 82 157 82 157 95 125 c 0,46,47
 108 94 108 94 83 64 c 2,48,-1
 75 56 l 1,49,-1
 75 56 l 1,50,51
 66 46 66 46 66 34 c 0,52,53
 66 21 66 21 75 11 c 0,54,55
 85 2 85 2 98 2 c 0,56,57
 110 2 110 2 120 11 c 2,58,-1
 129 19 l 1,59,-1
 129 19 l 1,60,61
 158 44 158 44 190 31 c 0,62,63
 221 18 221 18 224 -20 c 2,64,-1
 224 -32 l 1,65,-1
 224 -32 l 1,66,67
 224 -46 224 -46 233 -55 c 256,68,69
 242 -64 242 -64 256 -64 c 256,70,71
 270 -64 270 -64 279 -55 c 256,72,73
 288 -46 288 -46 288 -32 c 2,74,-1
 288 -20 l 1,75,-1
 288 -20 l 1,76,77
 291 18 291 18 323 31 c 256,78,79
 355 44 355 44 384 19 c 2,80,-1
 392 11 l 1,81,-1
 392 11 l 1,82,83
 402 2 402 2 415 2 c 0,84,85
 427 2 427 2 437 11 c 0,86,87
 447 21 447 21 447 34 c 0,88,89
 447 46 447 46 437 56 c 2,90,-1
 429 64 l 1,91,-1
 429 64 l 1,92,93
 404 94 404 94 417 125 c 0,94,95
 430 157 430 157 469 160 c 2,96,-1
 480 160 l 1,97,-1
 480 160 l 1,98,99
 494 160 494 160 503 169 c 256,100,101
 512 178 512 178 512 192 c 256,102,103
 512 206 512 206 503 215 c 256,104,105
 494 224 494 224 480 224 c 2,106,-1
 469 224 l 1,107,-1
 469 224 l 1,108,109
 430 227 430 227 417 259 c 0,110,111
 404 290 404 290 429 320 c 2,112,-1
 437 328 l 1,113,-1
 437 328 l 1,114,115
 447 338 447 338 447 350 c 0,116,117
 447 363 447 363 437 373 c 0,118,119
 427 382 427 382 415 382 c 0,120,121
 402 382 402 382 392 373 c 2,122,-1
 384 365 l 1,123,-1
 384 365 l 1,124,125
 354 340 354 340 323 353 c 0,126,127
 291 366 291 366 288 404 c 2,128,-1
 288 416 l 1,129,-1
 288 416 l 1,0,1
176 224 m 1,130,131
 177 251 177 251 200 266 c 0,132,133
 224 278 224 278 248 266 c 0,134,135
 271 251 271 251 272 224 c 0,136,137
 271 197 271 197 248 182 c 0,138,139
 224 170 224 170 200 182 c 0,140,141
 177 197 177 197 176 224 c 1,142,-1
 176 224 l 1,130,131
304 168 m 1,143,144
 326 166 326 166 328 144 c 0,145,146
 326 122 326 122 304 120 c 0,147,148
 282 122 282 122 280 144 c 0,149,150
 282 166 282 166 304 168 c 1,151,-1
 304 168 l 1,143,144
EndSplineSet
EndChar

StartChar: virus-slash
Encoding: 57461 57461 83
Width: 640
GlyphClass: 1
Flags: W
LayerCount: 2
Fore
SplineSet
39 443 m 1,0,1
 20 455 20 455 5 439 c 1,2,3
 -7 420 -7 420 9 405 c 2,4,-1
 601 -59 l 1,5,-1
 601 -59 l 1,6,7
 620 -71 620 -71 635 -55 c 1,8,9
 647 -36 647 -36 631 -21 c 2,10,-1
 477 100 l 1,11,-1
 477 100 l 1,12,13
 475 123 475 123 491 141 c 0,14,15
 506 159 506 159 533 160 c 2,16,-1
 544 160 l 1,17,-1
 544 160 l 1,18,19
 558 160 558 160 567 169 c 256,20,21
 576 178 576 178 576 192 c 256,22,23
 576 206 576 206 567 215 c 256,24,25
 558 224 558 224 544 224 c 2,26,-1
 533 224 l 1,27,-1
 533 224 l 1,28,29
 494 227 494 227 481 259 c 0,30,31
 468 290 468 290 493 320 c 2,32,-1
 501 328 l 1,33,-1
 501 328 l 1,34,35
 510 338 510 338 510 350 c 0,36,37
 510 363 510 363 501 373 c 0,38,39
 491 382 491 382 478 382 c 0,40,41
 466 382 466 382 456 373 c 2,42,-1
 448 365 l 1,43,-1
 448 365 l 1,44,45
 418 340 418 340 387 353 c 0,46,47
 355 366 355 366 352 404 c 2,48,-1
 352 416 l 1,49,-1
 352 416 l 1,50,51
 352 430 352 430 343 439 c 256,52,53
 334 448 334 448 320 448 c 256,54,55
 306 448 306 448 297 439 c 256,56,57
 288 430 288 430 288 416 c 2,58,-1
 288 404 l 1,59,-1
 288 404 l 1,60,61
 285 366 285 366 253 353 c 0,62,63
 222 340 222 340 192 365 c 2,64,-1
 184 373 l 1,65,-1
 184 373 l 1,66,67
 174 382 174 382 162 382 c 0,68,69
 149 382 149 382 139 373 c 0,70,71
 136 371 136 371 135 368 c 1,72,-1
 39 443 l 1,73,-1
 39 443 l 1,0,1
265 266 m 1,74,75
 275 272 275 272 288 272 c 0,76,77
 308 271 308 271 322 258 c 0,78,79
 335 244 335 244 336 224 c 0,80,81
 336 217 336 217 334 211 c 1,82,-1
 265 266 l 1,83,-1
 265 266 l 1,74,75
402 35 m 1,84,-1
 145 238 l 1,85,-1
 402 35 l 1,86,-1
 145 238 l 1,87,88
 130 225 130 225 108 224 c 2,89,-1
 96 224 l 1,90,-1
 96 224 l 1,91,92
 82 224 82 224 73 215 c 256,93,94
 64 206 64 206 64 192 c 256,95,96
 64 178 64 178 73 169 c 256,97,98
 82 160 82 160 96 160 c 2,99,-1
 108 160 l 1,100,-1
 108 160 l 1,101,102
 146 157 146 157 159 125 c 0,103,104
 172 94 172 94 147 64 c 2,105,-1
 139 56 l 1,106,-1
 139 56 l 1,107,108
 130 46 130 46 130 34 c 0,109,110
 130 21 130 21 139 11 c 0,111,112
 149 2 149 2 162 2 c 0,113,114
 174 2 174 2 184 11 c 2,115,-1
 192 19 l 1,116,-1
 192 19 l 1,117,118
 222 44 222 44 253 31 c 0,119,120
 285 18 285 18 288 -21 c 2,121,-1
 288 -32 l 1,122,-1
 288 -32 l 1,123,124
 288 -46 288 -46 297 -55 c 256,125,126
 306 -64 306 -64 320 -64 c 256,127,128
 334 -64 334 -64 343 -55 c 256,129,130
 352 -46 352 -46 352 -32 c 2,131,-1
 352 -21 l 1,132,-1
 352 -21 l 1,133,134
 353 3 353 3 367 18 c 0,135,136
 382 33 382 33 402 35 c 1,137,-1
 402 35 l 1,84,-1
EndSplineSet
EndChar

StartChar: viruses
Encoding: 57462 57462 84
Width: 640
GlyphClass: 1
Flags: W
LayerCount: 2
Fore
SplineSet
192 448 m 1,0,1
 214 446 214 446 216 424 c 2,2,-1
 216 410 l 1,3,-1
 216 410 l 1,4,5
 218 383 218 383 241 374 c 0,6,7
 263 364 263 364 284 382 c 2,8,-1
 294 392 l 1,9,-1
 294 392 l 1,10,11
 311 406 311 406 328 392 c 1,12,13
 342 375 342 375 328 358 c 2,14,-1
 318 348 l 1,15,-1
 318 348 l 1,16,17
 300 327 300 327 310 305 c 0,18,19
 319 282 319 282 347 280 c 2,20,-1
 360 280 l 1,21,-1
 360 280 l 1,22,23
 382 278 382 278 384 256 c 0,24,25
 382 234 382 234 360 232 c 2,26,-1
 347 232 l 1,27,-1
 347 232 l 1,28,29
 319 230 319 230 310 207 c 0,30,31
 300 185 300 185 318 164 c 2,32,-1
 328 154 l 1,33,-1
 328 154 l 1,34,35
 342 137 342 137 328 120 c 1,36,37
 311 106 311 106 294 120 c 2,38,-1
 284 130 l 1,39,-1
 284 130 l 1,40,41
 263 148 263 148 241 138 c 0,42,43
 218 129 218 129 216 101 c 2,44,-1
 216 88 l 1,45,-1
 216 88 l 1,46,47
 214 66 214 66 192 64 c 0,48,49
 170 66 170 66 168 88 c 2,50,-1
 168 101 l 1,51,-1
 168 101 l 1,52,53
 166 129 166 129 143 138 c 0,54,55
 121 148 121 148 100 130 c 2,56,-1
 90 120 l 1,57,-1
 90 120 l 1,58,59
 73 106 73 106 56 120 c 1,60,61
 42 137 42 137 56 154 c 2,62,-1
 66 164 l 1,63,-1
 66 164 l 1,64,65
 84 185 84 185 74 207 c 0,66,67
 65 230 65 230 38 232 c 2,68,-1
 24 232 l 1,69,-1
 24 232 l 1,70,71
 2 234 2 234 0 256 c 0,72,73
 2 278 2 278 24 280 c 2,74,-1
 38 280 l 1,75,-1
 38 280 l 1,76,77
 65 282 65 282 74 305 c 0,78,79
 84 327 84 327 66 348 c 2,80,-1
 56 358 l 1,81,-1
 56 358 l 1,82,83
 42 375 42 375 56 392 c 1,84,85
 73 406 73 406 90 392 c 2,86,-1
 100 382 l 1,87,-1
 100 382 l 1,88,89
 121 364 121 364 143 374 c 0,90,91
 166 383 166 383 168 410 c 2,92,-1
 168 424 l 1,93,-1
 168 424 l 1,94,95
 170 446 170 446 192 448 c 1,96,-1
 192 448 l 1,0,1
240 224 m 1,97,98
 255 225 255 225 256 240 c 0,99,100
 255 255 255 255 240 256 c 0,101,102
 225 255 225 255 224 240 c 0,103,104
 225 225 225 225 240 224 c 1,105,-1
 240 224 l 1,97,98
192 288 m 1,106,107
 192 302 192 302 183 311 c 1,108,-1
 183 311 l 1,109,-1
 183 311 l 1,110,111
 174 320 174 320 160 320 c 256,112,113
 146 320 146 320 137 311 c 256,114,115
 128 302 128 302 128 288 c 256,116,117
 128 274 128 274 137 265 c 256,118,119
 146 256 146 256 160 256 c 256,120,121
 174 256 174 256 183 265 c 256,122,123
 192 274 192 274 192 288 c 1,124,-1
 192 288 l 1,106,107
512 208 m 1,125,126
 514 183 514 183 535 174 c 1,127,-1
 535 174 l 1,128,-1
 535 174 l 1,129,130
 556 165 556 165 575 182 c 0,131,132
 587 191 587 191 598 182 c 0,133,134
 607 170 607 170 598 159 c 0,135,136
 581 140 581 140 590 119 c 256,137,138
 599 98 599 98 624 96 c 0,139,140
 639 95 639 95 640 80 c 0,141,142
 639 65 639 65 624 64 c 0,143,144
 599 62 599 62 590 41 c 256,145,146
 581 20 581 20 598 1 c 0,147,148
 607 -11 607 -11 598 -22 c 0,149,150
 587 -31 587 -31 575 -22 c 0,151,152
 556 -5 556 -5 535 -14 c 256,153,154
 514 -23 514 -23 512 -48 c 0,155,156
 511 -63 511 -63 496 -64 c 0,157,158
 481 -63 481 -63 480 -48 c 0,159,160
 478 -23 478 -23 457 -14 c 256,161,162
 436 -5 436 -5 417 -22 c 0,163,164
 405 -31 405 -31 394 -22 c 0,165,166
 385 -10 385 -10 394 1 c 0,167,168
 411 20 411 20 402 41 c 256,169,170
 393 62 393 62 368 64 c 0,171,172
 353 65 353 65 352 80 c 0,173,174
 353 95 353 95 368 96 c 0,175,176
 393 98 393 98 402 119 c 256,177,178
 411 140 411 140 394 159 c 0,179,180
 385 171 385 171 394 182 c 0,181,182
 406 191 406 191 417 182 c 0,183,184
 436 165 436 165 457 174 c 256,185,186
 478 183 478 183 480 208 c 0,187,188
 481 223 481 223 496 224 c 0,189,190
 511 223 511 223 512 208 c 1,191,-1
 512 208 l 1,125,126
512 96 m 1,192,193
 512 110 512 110 503 119 c 1,194,-1
 503 119 l 1,195,-1
 503 119 l 1,196,197
 494 128 494 128 480 128 c 256,198,199
 466 128 466 128 457 119 c 256,200,201
 448 110 448 110 448 96 c 256,202,203
 448 82 448 82 457 73 c 256,204,205
 466 64 466 64 480 64 c 256,206,207
 494 64 494 64 503 73 c 256,208,209
 512 82 512 82 512 96 c 1,210,-1
 512 96 l 1,192,193
EndSplineSet
EndChar

StartChar: vest
Encoding: 57477 57477 85
Width: 448
GlyphClass: 1
Flags: W
LayerCount: 2
Fore
SplineSet
207 211 m 1,0,-1
 151 378 l 1,1,-1
 207 211 l 1,2,-1
 151 378 l 1,3,4
 177 362 177 362 224 360 c 0,5,6
 271 362 271 362 297 378 c 1,7,-1
 227 167 l 1,8,-1
 227 167 l 1,9,10
 224 160 224 160 224 152 c 2,11,-1
 224 -16 l 1,12,-1
 224 -16 l 1,13,14
 225 -36 225 -36 238 -50 c 0,15,16
 252 -63 252 -63 272 -64 c 2,17,-1
 400 -64 l 1,18,-1
 400 -64 l 1,19,20
 420 -63 420 -63 434 -50 c 0,21,22
 447 -36 447 -36 448 -16 c 2,23,-1
 448 177 l 1,24,-1
 448 177 l 1,25,26
 448 192 448 192 440 204 c 2,27,-1
 392 276 l 1,28,-1
 392 276 l 1,29,30
 384 288 384 288 384 303 c 2,31,-1
 384 320 l 1,32,-1
 384 320 l 1,33,-1
 384 394 l 1,34,-1
 384 394 l 1,35,-1
 384 400 l 1,36,-1
 384 400 l 1,37,38
 383 420 383 420 370 434 c 0,39,40
 356 447 356 447 336 448 c 2,41,-1
 331 448 l 1,42,-1
 331 448 l 1,43,44
 331 448 331 448 331 448 c 257,45,46
 331 448 331 448 331 448 c 1,47,48
 330 448 330 448 330 448 c 257,49,50
 330 448 330 448 330 448 c 1,51,52
 301 445 301 445 286 429 c 0,53,54
 279 422 279 422 264 415 c 0,55,56
 249 409 249 409 224 408 c 0,57,58
 199 409 199 409 184 415 c 0,59,60
 169 422 169 422 162 429 c 0,61,62
 147 445 147 445 118 448 c 1,63,64
 118 448 118 448 118 448 c 1,65,66
 117 448 117 448 117 448 c 257,67,68
 117 448 117 448 117 448 c 257,69,70
 117 448 117 448 117 448 c 1,71,-1
 112 448 l 1,72,-1
 112 448 l 1,73,74
 92 447 92 447 78 434 c 0,75,76
 65 420 65 420 64 400 c 2,77,-1
 64 394 l 1,78,-1
 64 394 l 1,79,-1
 64 320 l 1,80,-1
 64 320 l 1,81,-1
 64 302 l 1,82,-1
 64 302 l 1,83,84
 64 288 64 288 56 276 c 2,85,-1
 8 204 l 1,86,-1
 8 204 l 1,87,88
 0 192 0 192 0 177 c 2,89,-1
 0 -16 l 1,90,-1
 0 -16 l 1,91,92
 1 -36 1 -36 14 -50 c 0,93,94
 28 -63 28 -63 48 -64 c 2,95,-1
 176 -64 l 1,96,-1
 176 -64 l 1,97,98
 191 -64 191 -64 203 -56 c 1,99,100
 192 -38 192 -38 192 -16 c 2,101,-1
 192 152 l 1,102,-1
 192 152 l 1,103,104
 192 165 192 165 196 177 c 2,105,-1
 207 211 l 1,106,-1
 207 211 l 1,0,-1
347 91 m 1,107,-1
 395 43 l 1,108,-1
 347 91 l 1,109,-1
 395 43 l 2,110,111
 405 32 405 32 395 21 c 0,112,113
 384 11 384 11 373 21 c 2,114,-1
 325 69 l 1,115,-1
 325 69 l 1,116,117
 315 80 315 80 325 91 c 0,118,119
 336 101 336 101 347 91 c 1,120,-1
 347 91 l 1,107,-1
53 43 m 1,121,-1
 101 91 l 1,122,-1
 53 43 l 1,123,-1
 101 91 l 2,124,125
 112 101 112 101 123 91 c 0,126,127
 133 80 133 80 123 69 c 2,128,-1
 75 21 l 1,129,-1
 75 21 l 1,130,131
 64 11 64 11 53 21 c 0,132,133
 43 32 43 32 53 43 c 1,134,-1
 53 43 l 1,121,-1
EndSplineSet
EndChar

StartChar: vest-patches
Encoding: 57478 57478 86
Width: 448
GlyphClass: 1
Flags: W
LayerCount: 2
Fore
SplineSet
151 378 m 1,0,-1
 207 211 l 1,1,-1
 151 378 l 1,2,-1
 207 211 l 1,3,-1
 196 177 l 1,4,-1
 196 177 l 1,5,6
 192 165 192 165 192 152 c 2,7,-1
 192 -16 l 1,8,-1
 192 -16 l 1,9,10
 192 -38 192 -38 203 -56 c 1,11,12
 191 -64 191 -64 176 -64 c 2,13,-1
 48 -64 l 1,14,-1
 48 -64 l 1,15,16
 28 -63 28 -63 14 -50 c 0,17,18
 1 -36 1 -36 0 -16 c 2,19,-1
 0 177 l 1,20,-1
 0 177 l 1,21,22
 0 192 0 192 8 204 c 2,23,-1
 56 276 l 1,24,-1
 56 276 l 1,25,26
 64 288 64 288 64 303 c 2,27,-1
 64 320 l 1,28,-1
 64 320 l 1,29,-1
 64 394 l 1,30,-1
 64 394 l 1,31,-1
 64 400 l 1,32,-1
 64 400 l 1,33,34
 65 420 65 420 78 434 c 0,35,36
 92 447 92 447 112 448 c 2,37,-1
 117 448 l 1,38,-1
 117 448 l 1,39,40
 117 448 117 448 117 448 c 257,41,42
 117 448 117 448 117 448 c 257,43,44
 117 448 117 448 118 448 c 1,45,46
 118 448 118 448 118 448 c 1,47,48
 147 445 147 445 162 429 c 0,49,50
 169 422 169 422 184 415 c 0,51,52
 199 409 199 409 224 408 c 0,53,54
 249 409 249 409 264 415 c 0,55,56
 279 422 279 422 286 429 c 0,57,58
 301 445 301 445 330 448 c 1,59,60
 330 448 330 448 330 448 c 1,61,62
 331 448 331 448 331 448 c 257,63,64
 331 448 331 448 331 448 c 257,65,66
 331 448 331 448 332 448 c 2,67,-1
 336 448 l 1,68,-1
 336 448 l 1,69,70
 356 447 356 447 370 434 c 0,71,72
 383 420 383 420 384 400 c 2,73,-1
 384 394 l 1,74,-1
 384 394 l 1,75,-1
 384 320 l 1,76,-1
 384 320 l 1,77,-1
 384 302 l 1,78,-1
 384 302 l 1,79,80
 384 288 384 288 392 276 c 2,81,-1
 440 204 l 1,82,-1
 440 204 l 1,83,84
 448 192 448 192 448 177 c 2,85,-1
 448 -16 l 1,86,-1
 448 -16 l 1,87,88
 447 -36 447 -36 434 -50 c 0,89,90
 420 -63 420 -63 400 -64 c 2,91,-1
 272 -64 l 1,92,-1
 272 -64 l 1,93,94
 252 -63 252 -63 238 -50 c 0,95,96
 225 -36 225 -36 224 -16 c 2,97,-1
 224 152 l 1,98,-1
 224 152 l 1,99,100
 224 160 224 160 227 167 c 2,101,-1
 297 378 l 1,102,-1
 297 378 l 1,103,104
 271 362 271 362 224 360 c 0,105,106
 177 362 177 362 151 378 c 1,107,-1
 151 378 l 1,0,-1
96 -8 m 1,108,109
 119 -7 119 -7 131 12 c 0,110,111
 141 32 141 32 131 52 c 0,112,113
 119 71 119 71 96 72 c 0,114,115
 73 71 73 71 61 52 c 0,116,117
 51 32 51 32 61 12 c 0,118,119
 73 -7 73 -7 96 -8 c 1,120,-1
 96 -8 l 1,108,109
64 192 m 1,121,122
 56 184 56 184 64 175 c 2,123,-1
 79 160 l 1,124,-1
 79 160 l 1,125,-1
 64 144 l 1,126,-1
 64 144 l 1,127,128
 56 136 56 136 64 127 c 0,129,130
 72 120 72 120 81 127 c 2,131,-1
 96 143 l 1,132,-1
 96 143 l 1,133,-1
 112 127 l 1,134,-1
 112 127 l 1,135,136
 120 120 120 120 129 127 c 0,137,138
 136 136 136 136 129 144 c 2,139,-1
 113 160 l 1,140,-1
 113 160 l 1,141,-1
 129 175 l 1,142,-1
 129 175 l 1,143,144
 136 184 136 184 129 192 c 0,145,146
 120 200 120 200 112 192 c 2,147,-1
 96 177 l 1,148,-1
 96 177 l 1,149,-1
 81 192 l 1,150,-1
 81 192 l 1,151,152
 72 200 72 200 64 192 c 1,153,-1
 64 192 l 1,121,122
304 168 m 1,154,-1
 304 160 l 1,155,-1
 304 168 l 1,156,-1
 304 160 l 1,157,-1
 304 128 l 1,158,-1
 304 128 l 1,159,160
 305 113 305 113 320 112 c 2,161,-1
 352 112 l 1,162,-1
 360 112 l 2,163,164
 382 114 382 114 384 136 c 0,165,166
 382 158 382 158 360 160 c 2,167,-1
 352 160 l 1,168,-1
 352 160 l 1,169,-1
 352 168 l 1,170,-1
 352 168 l 1,171,172
 350 190 350 190 328 192 c 0,173,174
 306 190 306 190 304 168 c 1,175,-1
 304 168 l 1,154,-1
EndSplineSet
EndChar

StartChar: arrow-trend-down
Encoding: 57495 57495 87
Width: 576
GlyphClass: 1
Flags: W
LayerCount: 2
Fore
SplineSet
384 96 m 1,0,1
 370 96 370 96 361 87 c 1,2,-1
 361 87 l 1,3,-1
 361 87 l 1,4,5
 352 78 352 78 352 64 c 256,6,7
 352 50 352 50 361 41 c 256,8,9
 370 32 370 32 384 32 c 2,10,-1
 544 32 l 1,11,-1
 544 32 l 1,12,13
 558 32 558 32 567 41 c 256,14,15
 576 50 576 50 576 64 c 2,16,-1
 576 224 l 1,17,-1
 576 224 l 1,18,19
 576 238 576 238 567 247 c 256,20,21
 558 256 558 256 544 256 c 256,22,23
 530 256 530 256 521 247 c 256,24,25
 512 238 512 238 512 224 c 2,26,-1
 512 141 l 1,27,-1
 512 141 l 1,28,-1
 343 311 l 1,29,-1
 343 311 l 1,30,31
 333 320 333 320 320 320 c 256,32,33
 307 320 307 320 297 311 c 2,34,-1
 192 205 l 1,35,-1
 192 205 l 1,36,-1
 55 343 l 1,37,-1
 55 343 l 1,38,39
 45 352 45 352 32 352 c 256,40,41
 19 352 19 352 9 343 c 0,42,43
 0 333 0 333 0 320 c 256,44,45
 0 307 0 307 9 297 c 2,46,-1
 169 137 l 1,47,-1
 169 137 l 1,48,49
 179 128 179 128 192 128 c 256,50,51
 205 128 205 128 215 137 c 2,52,-1
 320 243 l 1,53,-1
 320 243 l 1,54,-1
 467 96 l 1,55,-1
 467 96 l 1,56,-1
 384 96 l 1,57,-1
 384 96 l 1,0,1
EndSplineSet
EndChar

StartChar: arrow-trend-up
Encoding: 57496 57496 88
Width: 576
GlyphClass: 1
Flags: W
LayerCount: 2
Fore
SplineSet
384 288 m 1,0,1
 370 288 370 288 361 297 c 1,2,-1
 361 297 l 1,3,-1
 361 297 l 1,4,5
 352 306 352 306 352 320 c 256,6,7
 352 334 352 334 361 343 c 256,8,9
 370 352 370 352 384 352 c 2,10,-1
 544 352 l 1,11,-1
 544 352 l 1,12,13
 558 352 558 352 567 343 c 256,14,15
 576 334 576 334 576 320 c 2,16,-1
 576 160 l 1,17,-1
 576 160 l 1,18,19
 576 146 576 146 567 137 c 256,20,21
 558 128 558 128 544 128 c 256,22,23
 530 128 530 128 521 137 c 256,24,25
 512 146 512 146 512 160 c 2,26,-1
 512 243 l 1,27,-1
 512 243 l 1,28,-1
 343 73 l 1,29,-1
 343 73 l 1,30,31
 333 64 333 64 320 64 c 256,32,33
 307 64 307 64 297 73 c 2,34,-1
 192 179 l 1,35,-1
 192 179 l 1,36,-1
 55 41 l 1,37,-1
 55 41 l 1,38,39
 45 32 45 32 32 32 c 256,40,41
 19 32 19 32 9 41 c 0,42,43
 0 51 0 51 0 64 c 256,44,45
 0 77 0 77 9 87 c 2,46,-1
 169 247 l 1,47,-1
 169 247 l 1,48,49
 179 256 179 256 192 256 c 256,50,51
 205 256 205 256 215 247 c 2,52,-1
 320 141 l 1,53,-1
 320 141 l 1,54,-1
 467 288 l 1,55,-1
 467 288 l 1,56,-1
 384 288 l 1,57,-1
 384 288 l 1,0,1
EndSplineSet
EndChar

StartChar: arrow-up-from-bracket
Encoding: 57498 57498 89
Width: 448
GlyphClass: 1
Flags: W
LayerCount: 2
Fore
SplineSet
247 439 m 1,0,1
 237 448 237 448 224 448 c 1,2,-1
 224 448 l 1,3,-1
 224 448 l 1,4,5
 211 448 211 448 201 439 c 2,6,-1
 73 311 l 1,7,-1
 73 311 l 1,8,9
 64 301 64 301 64 288 c 256,10,11
 64 275 64 275 73 265 c 0,12,13
 83 256 83 256 96 256 c 256,14,15
 109 256 109 256 119 265 c 2,16,-1
 192 339 l 1,17,-1
 192 339 l 1,18,-1
 192 128 l 1,19,-1
 192 128 l 1,20,21
 192 114 192 114 201 105 c 256,22,23
 210 96 210 96 224 96 c 256,24,25
 238 96 238 96 247 105 c 256,26,27
 256 114 256 114 256 128 c 2,28,-1
 256 339 l 1,29,-1
 256 339 l 1,30,-1
 329 265 l 1,31,-1
 329 265 l 1,32,33
 339 256 339 256 352 256 c 256,34,35
 365 256 365 256 375 265 c 0,36,37
 384 275 384 275 384 288 c 256,38,39
 384 301 384 301 375 311 c 2,40,-1
 247 439 l 1,41,-1
 247 439 l 1,0,1
64 96 m 1,42,43
 64 110 64 110 55 119 c 1,44,-1
 55 119 l 1,45,-1
 55 119 l 1,46,47
 46 128 46 128 32 128 c 256,48,49
 18 128 18 128 9 119 c 256,50,51
 0 110 0 110 0 96 c 2,52,-1
 0 32 l 1,53,-1
 0 32 l 1,54,55
 1 -9 1 -9 28 -36 c 256,56,57
 55 -63 55 -63 96 -64 c 2,58,-1
 352 -64 l 1,59,-1
 352 -64 l 1,60,61
 393 -63 393 -63 420 -36 c 256,62,63
 447 -9 447 -9 448 32 c 2,64,-1
 448 96 l 1,65,-1
 448 96 l 1,66,67
 448 110 448 110 439 119 c 256,68,69
 430 128 430 128 416 128 c 256,70,71
 402 128 402 128 393 119 c 256,72,73
 384 110 384 110 384 96 c 2,74,-1
 384 32 l 1,75,-1
 384 32 l 1,76,77
 384 18 384 18 375 9 c 256,78,79
 366 0 366 0 352 0 c 2,80,-1
 96 0 l 1,81,-1
 96 0 l 1,82,83
 82 0 82 0 73 9 c 256,84,85
 64 18 64 18 64 32 c 2,86,-1
 64 96 l 1,87,-1
 64 96 l 1,42,43
EndSplineSet
EndChar

StartChar: austral-sign
Encoding: 57513 57513 90
Width: 448
GlyphClass: 1
Flags: W
LayerCount: 2
Fore
SplineSet
254 396 m 1,0,1
 245 415 245 415 224 416 c 0,2,3
 203 415 203 415 195 396 c 2,4,-1
 123 224 l 1,5,-1
 123 224 l 1,6,-1
 32 224 l 1,7,-1
 32 224 l 1,8,9
 18 224 18 224 9 215 c 256,10,11
 0 206 0 206 0 192 c 256,12,13
 0 178 0 178 9 169 c 256,14,15
 18 160 18 160 32 160 c 2,16,-1
 96 160 l 1,17,-1
 96 160 l 1,18,-1
 83 128 l 1,19,-1
 83 128 l 1,20,-1
 32 128 l 1,21,-1
 32 128 l 1,22,23
 18 128 18 128 9 119 c 256,24,25
 0 110 0 110 0 96 c 256,26,27
 0 82 0 82 9 73 c 256,28,29
 18 64 18 64 32 64 c 2,30,-1
 56 64 l 1,31,-1
 56 64 l 1,32,-1
 35 12 l 1,33,-1
 35 12 l 1,34,35
 30 0 30 0 34 -12 c 0,36,37
 39 -24 39 -24 52 -30 c 0,38,39
 64 -34 64 -34 76 -30 c 0,40,41
 88 -25 88 -25 94 -12 c 2,42,-1
 125 64 l 1,43,-1
 125 64 l 1,44,-1
 323 64 l 1,45,-1
 323 64 l 1,46,-1
 354 -12 l 1,47,-1
 354 -12 l 1,48,49
 360 -25 360 -25 372 -30 c 0,50,51
 384 -34 384 -34 396 -30 c 0,52,53
 409 -24 409 -24 413 -12 c 0,54,55
 418 0 418 0 413 12 c 2,56,-1
 392 64 l 1,57,-1
 392 64 l 1,58,-1
 416 64 l 1,59,-1
 416 64 l 1,60,61
 430 64 430 64 439 73 c 256,62,63
 448 82 448 82 448 96 c 256,64,65
 448 110 448 110 439 119 c 256,66,67
 430 128 430 128 416 128 c 2,68,-1
 365 128 l 1,69,-1
 365 128 l 1,70,-1
 352 160 l 1,71,-1
 352 160 l 1,72,-1
 416 160 l 1,73,-1
 416 160 l 1,74,75
 430 160 430 160 439 169 c 256,76,77
 448 178 448 178 448 192 c 256,78,79
 448 206 448 206 439 215 c 256,80,81
 430 224 430 224 416 224 c 2,82,-1
 325 224 l 1,83,-1
 325 224 l 1,84,-1
 254 396 l 1,85,-1
 254 396 l 1,0,1
256 224 m 1,86,-1
 192 224 l 1,87,-1
 256 224 l 1,88,-1
 192 224 l 1,89,-1
 224 301 l 1,90,-1
 224 301 l 1,91,-1
 256 224 l 1,92,-1
 256 224 l 1,86,-1
165 160 m 1,93,-1
 283 160 l 1,94,-1
 165 160 l 1,95,-1
 283 160 l 1,96,-1
 296 128 l 1,97,-1
 296 128 l 1,98,-1
 152 128 l 1,99,-1
 152 128 l 1,100,-1
 165 160 l 1,101,-1
 165 160 l 1,93,-1
EndSplineSet
EndChar

StartChar: baht-sign
Encoding: 57516 57516 91
Width: 320
GlyphClass: 1
Flags: W
LayerCount: 2
Fore
SplineSet
144 448 m 1,0,1
 130 448 130 448 121 439 c 1,2,-1
 121 439 l 1,3,-1
 121 439 l 1,4,5
 112 430 112 430 112 416 c 2,6,-1
 112 384 l 1,7,-1
 112 384 l 1,8,-1
 38 384 l 1,9,-1
 38 384 l 1,10,11
 22 384 22 384 11 373 c 256,12,13
 0 362 0 362 0 346 c 2,14,-1
 0 224 l 1,15,-1
 0 224 l 1,16,-1
 0 182 l 1,17,-1
 0 182 l 1,18,-1
 0 160 l 1,19,-1
 0 160 l 1,20,-1
 0 42 l 1,21,-1
 0 42 l 1,22,23
 0 24 0 24 12 12 c 256,24,25
 24 0 24 0 42 0 c 2,26,-1
 112 0 l 1,27,-1
 112 0 l 1,28,-1
 112 -32 l 1,29,-1
 112 -32 l 1,30,31
 112 -46 112 -46 121 -55 c 256,32,33
 130 -64 130 -64 144 -64 c 256,34,35
 158 -64 158 -64 167 -55 c 256,36,37
 176 -46 176 -46 176 -32 c 2,38,-1
 176 0 l 1,39,-1
 176 0 l 1,40,-1
 208 0 l 1,41,-1
 208 0 l 1,42,43
 256 1 256 1 287 33 c 0,44,45
 319 64 319 64 320 112 c 0,46,47
 320 142 320 142 306 167 c 0,48,49
 291 192 291 192 267 207 c 1,50,51
 287 235 287 235 288 272 c 0,52,53
 287 320 287 320 255 351 c 0,54,55
 224 383 224 383 176 384 c 1,56,-1
 176 416 l 1,57,-1
 176 416 l 1,58,59
 176 430 176 430 167 439 c 256,60,61
 158 448 158 448 144 448 c 1,62,-1
 144 448 l 1,0,1
112 320 m 1,63,-1
 112 224 l 1,64,-1
 112 320 l 1,65,-1
 112 224 l 1,66,-1
 64 224 l 1,67,-1
 64 224 l 1,68,-1
 64 320 l 1,69,-1
 64 320 l 1,70,-1
 112 320 l 1,71,-1
 112 320 l 1,63,-1
176 224 m 1,72,-1
 176 320 l 1,73,-1
 176 224 l 1,74,-1
 176 320 l 1,75,76
 196 319 196 319 210 306 c 0,77,78
 223 292 223 292 224 272 c 0,79,80
 223 252 223 252 210 238 c 0,81,82
 196 225 196 225 176 224 c 1,83,-1
 176 224 l 1,72,-1
112 160 m 1,84,-1
 112 64 l 1,85,-1
 112 160 l 1,86,-1
 112 64 l 1,87,-1
 64 64 l 1,88,-1
 64 64 l 1,89,-1
 64 160 l 1,90,-1
 64 160 l 1,91,-1
 112 160 l 1,92,-1
 112 160 l 1,84,-1
176 64 m 1,93,-1
 176 160 l 1,94,-1
 176 64 l 1,95,-1
 176 160 l 1,96,-1
 208 160 l 1,97,-1
 208 160 l 1,98,99
 228 159 228 159 242 146 c 0,100,101
 255 132 255 132 256 112 c 0,102,103
 255 92 255 92 242 78 c 0,104,105
 228 65 228 65 208 64 c 2,106,-1
 176 64 l 1,107,-1
 176 64 l 1,93,-1
EndSplineSet
EndChar

StartChar: bitcoin-sign
Encoding: 57524 57524 92
Width: 320
GlyphClass: 1
Flags: W
LayerCount: 2
Fore
SplineSet
48 416 m 1,0,1
 48 430 48 430 57 439 c 1,2,-1
 57 439 l 1,3,-1
 57 439 l 1,4,5
 66 448 66 448 80 448 c 256,6,7
 94 448 94 448 103 439 c 256,8,9
 112 430 112 430 112 416 c 2,10,-1
 112 384 l 1,11,-1
 112 384 l 1,12,-1
 144 384 l 1,13,-1
 144 384 l 1,14,-1
 144 416 l 1,15,-1
 144 416 l 1,16,17
 144 430 144 430 153 439 c 256,18,19
 162 448 162 448 176 448 c 256,20,21
 190 448 190 448 199 439 c 256,22,23
 208 430 208 430 208 416 c 2,24,-1
 208 384 l 1,25,-1
 208 384 l 1,26,27
 208 382 208 382 208 379 c 0,28,29
 243 369 243 369 265 340 c 256,30,31
 287 311 287 311 288 272 c 0,32,33
 287 235 287 235 267 207 c 1,34,35
 291 192 291 192 306 167 c 0,36,37
 320 142 320 142 320 112 c 0,38,39
 319 64 319 64 287 33 c 0,40,41
 256 1 256 1 208 0 c 1,42,-1
 208 -32 l 1,43,-1
 208 -32 l 1,44,45
 208 -46 208 -46 199 -55 c 256,46,47
 190 -64 190 -64 176 -64 c 256,48,49
 162 -64 162 -64 153 -55 c 256,50,51
 144 -46 144 -46 144 -32 c 2,52,-1
 144 0 l 1,53,-1
 144 0 l 1,54,-1
 112 0 l 1,55,-1
 112 0 l 1,56,-1
 112 -32 l 1,57,-1
 112 -32 l 1,58,59
 112 -46 112 -46 103 -55 c 256,60,61
 94 -64 94 -64 80 -64 c 256,62,63
 66 -64 66 -64 57 -55 c 256,64,65
 48 -46 48 -46 48 -32 c 2,66,-1
 48 0 l 1,67,-1
 48 0 l 1,68,-1
 42 0 l 1,69,-1
 42 0 l 1,70,71
 24 0 24 0 12 12 c 256,72,73
 0 24 0 24 0 42 c 2,74,-1
 0 160 l 1,75,-1
 0 160 l 1,76,-1
 0 182 l 1,77,-1
 0 182 l 1,78,-1
 0 224 l 1,79,-1
 0 224 l 1,80,-1
 0 346 l 1,81,-1
 0 346 l 1,82,83
 0 362 0 362 11 373 c 256,84,85
 22 384 22 384 38 384 c 2,86,-1
 48 384 l 1,87,-1
 48 384 l 1,88,-1
 48 416 l 1,89,-1
 48 416 l 1,0,1
64 224 m 1,90,-1
 176 224 l 1,91,-1
 64 224 l 1,92,-1
 176 224 l 2,93,94
 196 225 196 225 210 238 c 0,95,96
 223 252 223 252 224 272 c 0,97,98
 223 292 223 292 210 306 c 0,99,100
 196 319 196 319 176 320 c 2,101,-1
 64 320 l 1,102,-1
 64 320 l 1,103,-1
 64 224 l 1,104,-1
 64 224 l 1,90,-1
176 160 m 1,105,-1
 64 160 l 1,106,-1
 176 160 l 1,107,-1
 64 160 l 1,108,-1
 64 64 l 1,109,-1
 64 64 l 1,110,-1
 208 64 l 1,111,-1
 208 64 l 1,112,113
 228 65 228 65 242 78 c 0,114,115
 255 92 255 92 256 112 c 0,116,117
 255 132 255 132 242 146 c 0,118,119
 228 159 228 159 208 160 c 2,120,-1
 176 160 l 1,121,-1
 176 160 l 1,105,-1
EndSplineSet
EndChar

StartChar: bolt-lightning
Encoding: 57527 57527 93
Width: 384
GlyphClass: 1
Flags: W
LayerCount: 2
Fore
SplineSet
0 192 m 1,0,-1
 29 420 l 1,1,-1
 0 192 l 1,2,-1
 29 420 l 2,3,4
 34 446 34 446 60 448 c 2,5,-1
 229 448 l 1,6,-1
 229 448 l 1,7,8
 240 448 240 448 248 440 c 256,9,10
 256 432 256 432 256 421 c 0,11,12
 256 416 256 416 254 411 c 2,13,-1
 208 288 l 1,14,-1
 208 288 l 1,15,-1
 347 288 l 1,16,-1
 347 288 l 1,17,18
 363 288 363 288 373 277 c 0,19,20
 384 267 384 267 384 251 c 0,21,22
 384 240 384 240 378 231 c 2,23,-1
 185 -50 l 1,24,-1
 185 -50 l 1,25,26
 176 -64 176 -64 160 -64 c 2,27,-1
 157 -64 l 1,28,-1
 157 -64 l 1,29,30
 145 -64 145 -64 136 -56 c 0,31,32
 128 -48 128 -48 128 -36 c 0,33,34
 128 -32 128 -32 129 -29 c 2,35,-1
 176 160 l 1,36,-1
 176 160 l 1,37,-1
 32 160 l 1,38,-1
 32 160 l 1,39,40
 18 160 18 160 9 169 c 256,41,42
 0 178 0 178 0 192 c 1,43,-1
 0 192 l 1,0,-1
EndSplineSet
EndChar

StartChar: book-bookmark
Encoding: 57531 57531 94
Width: 448
GlyphClass: 1
Flags: W
LayerCount: 2
Fore
SplineSet
0 352 m 1,0,1
 1 393 1 393 28 420 c 1,2,-1
 28 420 l 1,3,-1
 28 420 l 1,4,5
 55 447 55 447 96 448 c 2,6,-1
 192 448 l 1,7,-1
 192 448 l 1,8,-1
 192 257 l 1,9,-1
 192 257 l 1,10,11
 193 247 193 247 201 243 c 256,12,13
 209 239 209 239 218 245 c 2,14,-1
 272 288 l 1,15,-1
 272 288 l 1,16,-1
 326 245 l 1,17,-1
 326 245 l 1,18,19
 335 239 335 239 343 243 c 256,20,21
 351 247 351 247 352 257 c 2,22,-1
 352 448 l 1,23,-1
 352 448 l 1,24,-1
 384 448 l 1,25,-1
 416 448 l 2,26,27
 430 448 430 448 439 439 c 256,28,29
 448 430 448 430 448 416 c 2,30,-1
 448 96 l 1,31,-1
 448 96 l 1,32,33
 448 82 448 82 439 73 c 256,34,35
 430 64 430 64 416 64 c 1,36,-1
 416 0 l 1,37,-1
 416 0 l 1,38,39
 430 0 430 0 439 -9 c 256,40,41
 448 -18 448 -18 448 -32 c 256,42,43
 448 -46 448 -46 439 -55 c 256,44,45
 430 -64 430 -64 416 -64 c 2,46,-1
 384 -64 l 1,47,-1
 96 -64 l 2,48,49
 55 -63 55 -63 28 -36 c 256,50,51
 1 -9 1 -9 0 32 c 2,52,-1
 0 352 l 1,53,-1
 0 352 l 1,0,1
64 32 m 1,54,55
 64 18 64 18 73 9 c 1,56,-1
 73 9 l 1,57,-1
 73 9 l 1,58,59
 82 0 82 0 96 0 c 2,60,-1
 352 0 l 1,61,-1
 352 0 l 1,62,-1
 352 64 l 1,63,-1
 352 64 l 1,64,-1
 96 64 l 1,65,-1
 96 64 l 1,66,67
 82 64 82 64 73 55 c 256,68,69
 64 46 64 46 64 32 c 1,70,-1
 64 32 l 1,54,55
EndSplineSet
EndChar

StartChar: camera-rotate
Encoding: 57560 57560 95
Width: 640
GlyphClass: 1
Flags: W
LayerCount: 2
Fore
SplineSet
213 383 m 1,0,-1
 203 352 l 1,1,-1
 213 383 l 1,2,-1
 203 352 l 1,3,-1
 128 352 l 1,4,-1
 128 352 l 1,5,6
 101 351 101 351 83 333 c 256,7,8
 65 315 65 315 64 288 c 2,9,-1
 64 32 l 1,10,-1
 64 32 l 1,11,12
 65 5 65 5 83 -13 c 256,13,14
 101 -31 101 -31 128 -32 c 2,15,-1
 512 -32 l 1,16,-1
 512 -32 l 1,17,18
 539 -31 539 -31 557 -13 c 256,19,20
 575 5 575 5 576 32 c 2,21,-1
 576 288 l 1,22,-1
 576 288 l 1,23,24
 575 315 575 315 557 333 c 256,25,26
 539 351 539 351 512 352 c 2,27,-1
 437 352 l 1,28,-1
 437 352 l 1,29,-1
 427 383 l 1,30,-1
 427 383 l 1,31,32
 415 414 415 414 381 416 c 2,33,-1
 259 416 l 1,34,-1
 259 416 l 1,35,36
 225 414 225 414 213 383 c 1,37,-1
 213 383 l 1,0,-1
448 192 m 1,38,39
 447 177 447 177 432 176 c 2,40,-1
 355 176 l 1,41,-1
 355 176 l 1,42,43
 345 177 345 177 344 187 c 0,44,45
 344 192 344 192 347 195 c 2,46,-1
 371 219 l 1,47,-1
 371 219 l 1,48,49
 350 240 350 240 320 240 c 256,50,51
 290 240 290 240 269 219 c 2,52,-1
 249 199 l 1,53,-1
 249 199 l 1,54,55
 232 185 232 185 215 199 c 1,56,57
 201 216 201 216 215 233 c 2,58,-1
 235 253 l 1,59,-1
 235 253 l 1,60,61
 270 287 270 287 320 288 c 0,62,63
 369 287 369 287 405 253 c 1,64,-1
 429 277 l 1,65,-1
 429 277 l 1,66,67
 432 280 432 280 437 280 c 0,68,69
 447 279 447 279 448 269 c 2,70,-1
 448 192 l 1,71,-1
 448 192 l 1,38,39
192 128 m 1,72,73
 193 143 193 143 208 144 c 2,74,-1
 285 144 l 1,75,-1
 285 144 l 1,76,77
 295 143 295 143 296 133 c 0,78,79
 296 128 296 128 293 125 c 2,80,-1
 269 101 l 1,81,-1
 269 101 l 1,82,83
 290 80 290 80 320 80 c 256,84,85
 350 80 350 80 371 101 c 2,86,-1
 391 121 l 1,87,-1
 391 121 l 1,88,89
 408 135 408 135 425 121 c 1,90,91
 439 104 439 104 425 87 c 2,92,-1
 405 67 l 1,93,-1
 405 67 l 1,94,95
 370 33 370 33 320 32 c 0,96,97
 271 33 271 33 235 67 c 1,98,-1
 211 43 l 1,99,-1
 211 43 l 1,100,101
 208 40 208 40 203 40 c 0,102,103
 193 41 193 41 192 51 c 2,104,-1
 192 128 l 1,105,-1
 192 128 l 1,72,73
EndSplineSet
EndChar

StartChar: cedi-sign
Encoding: 57567 57567 96
Width: 384
GlyphClass: 1
Flags: W
LayerCount: 2
Fore
SplineSet
256 416 m 1,0,1
 256 430 256 430 247 439 c 1,2,-1
 247 439 l 1,3,-1
 247 439 l 1,4,5
 238 448 238 448 224 448 c 256,6,7
 210 448 210 448 201 439 c 256,8,9
 192 430 192 430 192 416 c 2,10,-1
 192 381 l 1,11,-1
 192 381 l 1,12,13
 122 368 122 368 78 317 c 0,14,15
 33 265 33 265 32 192 c 0,16,17
 33 119 33 119 78 67 c 0,18,19
 122 16 122 16 192 3 c 1,20,-1
 192 -32 l 1,21,-1
 192 -32 l 1,22,23
 192 -46 192 -46 201 -55 c 256,24,25
 210 -64 210 -64 224 -64 c 256,26,27
 238 -64 238 -64 247 -55 c 256,28,29
 256 -46 256 -46 256 -32 c 2,30,-1
 256 3 l 1,31,-1
 256 3 l 1,32,33
 303 11 303 11 339 38 c 0,34,35
 350 47 350 47 352 60 c 0,36,37
 353 72 353 72 346 83 c 0,38,39
 337 94 337 94 325 96 c 0,40,41
 312 98 312 98 301 90 c 0,42,43
 281 75 281 75 256 68 c 1,44,-1
 256 316 l 1,45,-1
 256 316 l 1,46,47
 281 310 281 310 301 294 c 0,48,49
 312 287 312 287 325 288 c 0,50,51
 337 290 337 290 346 301 c 0,52,53
 353 312 353 312 352 325 c 0,54,55
 350 337 350 337 339 346 c 0,56,57
 303 373 303 373 256 381 c 1,58,-1
 256 416 l 1,59,-1
 256 416 l 1,0,1
192 316 m 1,60,-1
 192 68 l 1,61,-1
 192 316 l 1,62,-1
 192 68 l 1,63,64
 150 79 150 79 123 113 c 0,65,66
 97 146 97 146 96 192 c 0,67,68
 97 238 97 238 123 271 c 0,69,70
 150 305 150 305 192 316 c 1,71,-1
 192 316 l 1,60,-1
EndSplineSet
EndChar

StartChar: chart-column
Encoding: 57571 57571 97
Width: 512
GlyphClass: 1
Flags: W
LayerCount: 2
Fore
SplineSet
32 416 m 1,0,1
 46 416 46 416 55 407 c 1,2,-1
 55 407 l 1,3,-1
 55 407 l 1,4,5
 64 398 64 398 64 384 c 2,6,-1
 64 48 l 1,7,-1
 64 48 l 1,8,9
 65 33 65 33 80 32 c 2,10,-1
 480 32 l 1,11,-1
 480 32 l 1,12,13
 494 32 494 32 503 23 c 256,14,15
 512 14 512 14 512 0 c 256,16,17
 512 -14 512 -14 503 -23 c 256,18,19
 494 -32 494 -32 480 -32 c 2,20,-1
 80 -32 l 1,21,-1
 80 -32 l 1,22,23
 46 -31 46 -31 23 -9 c 0,24,25
 1 14 1 14 0 48 c 2,26,-1
 0 384 l 1,27,-1
 0 384 l 1,28,29
 0 398 0 398 9 407 c 256,30,31
 18 416 18 416 32 416 c 1,32,-1
 32 416 l 1,0,1
160 224 m 1,33,34
 174 224 174 224 183 215 c 1,35,-1
 183 215 l 1,36,-1
 183 215 l 1,37,38
 192 206 192 206 192 192 c 2,39,-1
 192 128 l 1,40,-1
 192 128 l 1,41,42
 192 114 192 114 183 105 c 256,43,44
 174 96 174 96 160 96 c 256,45,46
 146 96 146 96 137 105 c 256,47,48
 128 114 128 114 128 128 c 2,49,-1
 128 192 l 1,50,-1
 128 192 l 1,51,52
 128 206 128 206 137 215 c 256,53,54
 146 224 146 224 160 224 c 1,55,-1
 160 224 l 1,33,34
288 288 m 1,56,-1
 288 128 l 1,57,-1
 288 288 l 1,58,-1
 288 128 l 2,59,60
 288 114 288 114 279 105 c 256,61,62
 270 96 270 96 256 96 c 256,63,64
 242 96 242 96 233 105 c 256,65,66
 224 114 224 114 224 128 c 2,67,-1
 224 288 l 1,68,-1
 224 288 l 1,69,70
 224 302 224 302 233 311 c 256,71,72
 242 320 242 320 256 320 c 256,73,74
 270 320 270 320 279 311 c 256,75,76
 288 302 288 302 288 288 c 1,77,-1
 288 288 l 1,56,-1
352 256 m 1,78,79
 366 256 366 256 375 247 c 1,80,-1
 375 247 l 1,81,-1
 375 247 l 1,82,83
 384 238 384 238 384 224 c 2,84,-1
 384 128 l 1,85,-1
 384 128 l 1,86,87
 384 114 384 114 375 105 c 256,88,89
 366 96 366 96 352 96 c 256,90,91
 338 96 338 96 329 105 c 256,92,93
 320 114 320 114 320 128 c 2,94,-1
 320 224 l 1,95,-1
 320 224 l 1,96,97
 320 238 320 238 329 247 c 256,98,99
 338 256 338 256 352 256 c 1,100,-1
 352 256 l 1,78,79
480 352 m 1,101,-1
 480 128 l 1,102,-1
 480 352 l 1,103,-1
 480 128 l 2,104,105
 480 114 480 114 471 105 c 256,106,107
 462 96 462 96 448 96 c 256,108,109
 434 96 434 96 425 105 c 256,110,111
 416 114 416 114 416 128 c 2,112,-1
 416 352 l 1,113,-1
 416 352 l 1,114,115
 416 366 416 366 425 375 c 256,116,117
 434 384 434 384 448 384 c 256,118,119
 462 384 462 384 471 375 c 256,120,121
 480 366 480 366 480 352 c 1,122,-1
 480 352 l 1,101,-1
EndSplineSet
EndChar

StartChar: chart-gantt
Encoding: 57572 57572 98
Width: 512
GlyphClass: 1
Flags: W
LayerCount: 2
Fore
SplineSet
32 416 m 1,0,1
 46 416 46 416 55 407 c 1,2,-1
 55 407 l 1,3,-1
 55 407 l 1,4,5
 64 398 64 398 64 384 c 2,6,-1
 64 48 l 1,7,-1
 64 48 l 1,8,9
 65 33 65 33 80 32 c 2,10,-1
 480 32 l 1,11,-1
 480 32 l 1,12,13
 494 32 494 32 503 23 c 256,14,15
 512 14 512 14 512 0 c 256,16,17
 512 -14 512 -14 503 -23 c 256,18,19
 494 -32 494 -32 480 -32 c 2,20,-1
 80 -32 l 1,21,-1
 80 -32 l 1,22,23
 46 -31 46 -31 23 -9 c 0,24,25
 1 14 1 14 0 48 c 2,26,-1
 0 384 l 1,27,-1
 0 384 l 1,28,29
 0 398 0 398 9 407 c 256,30,31
 18 416 18 416 32 416 c 1,32,-1
 32 416 l 1,0,1
128 320 m 1,33,34
 128 334 128 334 137 343 c 1,35,-1
 137 343 l 1,36,-1
 137 343 l 1,37,38
 146 352 146 352 160 352 c 2,39,-1
 256 352 l 1,40,-1
 256 352 l 1,41,42
 270 352 270 352 279 343 c 256,43,44
 288 334 288 334 288 320 c 256,45,46
 288 306 288 306 279 297 c 256,47,48
 270 288 270 288 256 288 c 2,49,-1
 160 288 l 1,50,-1
 160 288 l 1,51,52
 146 288 146 288 137 297 c 256,53,54
 128 306 128 306 128 320 c 1,55,-1
 128 320 l 1,33,34
224 256 m 1,56,-1
 352 256 l 1,57,-1
 224 256 l 1,58,-1
 352 256 l 2,59,60
 366 256 366 256 375 247 c 256,61,62
 384 238 384 238 384 224 c 256,63,64
 384 210 384 210 375 201 c 256,65,66
 366 192 366 192 352 192 c 2,67,-1
 224 192 l 1,68,-1
 224 192 l 1,69,70
 210 192 210 192 201 201 c 256,71,72
 192 210 192 210 192 224 c 256,73,74
 192 238 192 238 201 247 c 256,75,76
 210 256 210 256 224 256 c 1,77,-1
 224 256 l 1,56,-1
384 160 m 1,78,-1
 448 160 l 1,79,-1
 384 160 l 1,80,-1
 448 160 l 2,81,82
 462 160 462 160 471 151 c 256,83,84
 480 142 480 142 480 128 c 256,85,86
 480 114 480 114 471 105 c 256,87,88
 462 96 462 96 448 96 c 2,89,-1
 384 96 l 1,90,-1
 384 96 l 1,91,92
 370 96 370 96 361 105 c 256,93,94
 352 114 352 114 352 128 c 256,95,96
 352 142 352 142 361 151 c 256,97,98
 370 160 370 160 384 160 c 1,99,-1
 384 160 l 1,78,-1
EndSplineSet
EndChar

StartChar: clapperboard
Encoding: 57649 57649 99
Width: 512
GlyphClass: 1
Flags: W
LayerCount: 2
Fore
SplineSet
448 416 m 1,0,-1
 362 416 l 1,1,-1
 448 416 l 1,2,-1
 362 416 l 1,3,-1
 361 415 l 1,4,-1
 361 415 l 1,5,-1
 234 288 l 1,6,-1
 234 288 l 1,7,-1
 326 288 l 1,8,-1
 326 288 l 1,9,-1
 327 289 l 1,10,-1
 327 289 l 1,11,-1
 454 416 l 1,12,-1
 454 416 l 1,13,14
 451 416 451 416 448 416 c 1,15,-1
 448 416 l 1,0,-1
512 288 m 1,16,-1
 512 352 l 1,17,-1
 512 288 l 1,18,-1
 512 352 l 2,19,20
 512 375 512 375 498 392 c 1,21,-1
 394 288 l 1,22,-1
 394 288 l 1,23,-1
 512 288 l 1,24,-1
 512 288 l 1,16,-1
294 416 m 1,25,-1
 202 416 l 1,26,-1
 294 416 l 1,27,-1
 202 416 l 1,28,-1
 201 415 l 1,29,-1
 201 415 l 1,30,-1
 74 288 l 1,31,-1
 74 288 l 1,32,-1
 166 288 l 1,33,-1
 166 288 l 1,34,-1
 167 289 l 1,35,-1
 167 289 l 1,36,-1
 294 416 l 1,37,-1
 294 416 l 1,25,-1
64 416 m 1,38,39
 37 415 37 415 19 397 c 1,40,-1
 19 397 l 1,41,-1
 19 397 l 1,42,43
 1 379 1 379 0 352 c 2,44,-1
 0 288 l 1,45,-1
 0 288 l 1,46,-1
 6 288 l 1,47,-1
 6 288 l 1,48,-1
 7 289 l 1,49,-1
 7 289 l 1,50,-1
 134 416 l 1,51,-1
 134 416 l 1,52,-1
 64 416 l 1,53,-1
 64 416 l 1,38,39
512 256 m 1,54,-1
 0 256 l 1,55,-1
 512 256 l 1,56,-1
 0 256 l 1,57,-1
 0 32 l 1,58,-1
 0 32 l 1,59,60
 1 5 1 5 19 -13 c 256,61,62
 37 -31 37 -31 64 -32 c 2,63,-1
 448 -32 l 1,64,-1
 448 -32 l 1,65,66
 475 -31 475 -31 493 -13 c 256,67,68
 511 5 511 5 512 32 c 2,69,-1
 512 256 l 1,70,-1
 512 256 l 1,54,-1
EndSplineSet
EndChar

StartChar: clover
Encoding: 57657 57657 100
Width: 448
GlyphClass: 1
Flags: W
LayerCount: 2
Fore
SplineSet
217 398 m 1,0,1
 198 416 198 416 173 416 c 0,2,3
 147 415 147 415 130 398 c 256,4,5
 113 381 113 381 112 355 c 2,6,-1
 112 350 l 1,7,-1
 112 350 l 1,8,9
 112 332 112 332 121 316 c 2,10,-1
 140 284 l 1,11,-1
 140 284 l 1,12,13
 142 282 142 282 141 280 c 0,14,15
 141 278 141 278 139 277 c 0,16,17
 137 275 137 275 136 275 c 0,18,19
 134 274 134 274 131 276 c 2,20,-1
 100 294 l 1,21,-1
 100 294 l 1,22,23
 84 304 84 304 66 304 c 2,24,-1
 61 304 l 1,25,-1
 61 304 l 1,26,27
 35 303 35 303 18 286 c 256,28,29
 1 269 1 269 0 243 c 0,30,31
 0 218 0 218 18 199 c 2,32,-1
 19 198 l 1,33,-1
 19 198 l 1,34,35
 24 192 24 192 19 186 c 2,36,-1
 18 185 l 1,37,-1
 18 185 l 1,38,39
 0 166 0 166 0 141 c 0,40,41
 1 115 1 115 18 98 c 256,42,43
 35 81 35 81 61 80 c 2,44,-1
 66 80 l 1,45,-1
 66 80 l 1,46,47
 84 80 84 80 100 89 c 2,48,-1
 132 108 l 1,49,-1
 132 108 l 1,50,51
 134 110 134 110 136 109 c 0,52,53
 138 109 138 109 139 107 c 0,54,55
 141 105 141 105 141 104 c 0,56,57
 142 102 142 102 140 99 c 2,58,-1
 122 68 l 1,59,-1
 122 68 l 1,60,61
 112 52 112 52 112 34 c 2,62,-1
 112 29 l 1,63,-1
 112 29 l 1,64,65
 113 3 113 3 130 -14 c 256,66,67
 147 -31 147 -31 173 -32 c 0,68,69
 199 -32 199 -32 217 -14 c 2,70,-1
 218 -13 l 1,71,-1
 218 -13 l 1,72,73
 224 -8 224 -8 230 -13 c 2,74,-1
 231 -14 l 1,75,-1
 231 -14 l 1,76,77
 250 -32 250 -32 275 -32 c 0,78,79
 301 -31 301 -31 318 -14 c 256,80,81
 335 3 335 3 336 29 c 2,82,-1
 336 34 l 1,83,-1
 336 34 l 1,84,85
 336 52 336 52 327 68 c 2,86,-1
 308 99 l 1,87,-1
 308 99 l 1,88,89
 306 102 306 102 307 104 c 0,90,91
 307 105 307 105 309 107 c 256,92,93
 311 109 311 109 313 109 c 0,94,95
 314 110 314 110 317 108 c 2,96,-1
 348 89 l 1,97,-1
 348 89 l 1,98,99
 364 80 364 80 382 80 c 2,100,-1
 387 80 l 1,101,-1
 387 80 l 1,102,103
 413 81 413 81 430 98 c 0,104,105
 448 115 448 115 448 141 c 0,106,107
 448 166 448 166 430 185 c 2,108,-1
 429 186 l 1,109,-1
 429 186 l 1,110,111
 424 192 424 192 429 198 c 2,112,-1
 430 199 l 1,113,-1
 430 199 l 1,114,115
 448 218 448 218 448 243 c 0,116,117
 448 269 448 269 430 286 c 0,118,119
 413 303 413 303 387 304 c 2,120,-1
 382 304 l 1,121,-1
 382 304 l 1,122,123
 364 304 364 304 348 295 c 2,124,-1
 317 276 l 1,125,-1
 317 276 l 1,126,127
 314 274 314 274 313 275 c 0,128,129
 311 275 311 275 309 277 c 256,130,131
 307 279 307 279 307 280 c 0,132,133
 306 282 306 282 308 285 c 2,134,-1
 327 316 l 1,135,-1
 327 316 l 1,136,137
 336 332 336 332 336 350 c 2,138,-1
 336 355 l 1,139,-1
 336 355 l 1,140,141
 335 381 335 381 318 398 c 256,142,143
 301 415 301 415 275 416 c 0,144,145
 250 416 250 416 231 398 c 2,146,-1
 230 397 l 1,147,-1
 230 397 l 1,148,149
 224 392 224 392 218 397 c 2,150,-1
 217 398 l 1,151,-1
 217 398 l 1,0,1
EndSplineSet
EndChar

StartChar: code-compare
Encoding: 57658 57658 101
Width: 512
GlyphClass: 1
Flags: W
LayerCount: 2
Fore
SplineSet
320 -40 m 1,0,1
 319 -55 319 -55 306 -62 c 0,2,3
 292 -67 292 -67 280 -58 c 2,4,-1
 200 14 l 1,5,-1
 200 14 l 1,6,7
 192 21 192 21 192 32 c 256,8,9
 192 43 192 43 200 50 c 2,10,-1
 280 122 l 1,11,-1
 280 122 l 1,12,13
 292 131 292 131 306 126 c 0,14,15
 319 119 319 119 320 104 c 2,16,-1
 320 64 l 1,17,-1
 320 64 l 1,18,-1
 336 64 l 1,19,-1
 336 64 l 1,20,21
 363 65 363 65 381 83 c 256,22,23
 399 101 399 101 400 128 c 2,24,-1
 400 295 l 1,25,-1
 400 295 l 1,26,27
 378 304 378 304 365 324 c 0,28,29
 352 343 352 343 352 368 c 0,30,31
 353 402 353 402 375 425 c 0,32,33
 398 447 398 447 432 448 c 0,34,35
 466 447 466 447 489 425 c 0,36,37
 511 402 511 402 512 368 c 0,38,39
 512 343 512 343 499 324 c 0,40,41
 486 304 486 304 464 295 c 1,42,-1
 464 128 l 1,43,-1
 464 128 l 1,44,45
 463 74 463 74 427 37 c 0,46,47
 390 1 390 1 336 0 c 2,48,-1
 320 0 l 1,49,-1
 320 0 l 1,50,-1
 320 -40 l 1,51,-1
 320 -40 l 1,0,1
456 368 m 1,52,53
 454 390 454 390 432 392 c 0,54,55
 410 390 410 390 408 368 c 0,56,57
 410 346 410 346 432 344 c 0,58,59
 454 346 454 346 456 368 c 1,60,-1
 456 368 l 1,52,53
192 424 m 1,61,62
 193 439 193 439 206 446 c 0,63,64
 220 451 220 451 232 442 c 2,65,-1
 312 370 l 1,66,-1
 312 370 l 1,67,68
 320 363 320 363 320 352 c 256,69,70
 320 341 320 341 312 334 c 2,71,-1
 232 262 l 1,72,-1
 232 262 l 1,73,74
 220 253 220 253 206 258 c 0,75,76
 193 265 193 265 192 280 c 2,77,-1
 192 320 l 1,78,-1
 192 320 l 1,79,-1
 176 320 l 1,80,-1
 176 320 l 1,81,82
 149 319 149 319 131 301 c 256,83,84
 113 283 113 283 112 256 c 2,85,-1
 112 89 l 1,86,-1
 112 89 l 1,87,88
 134 80 134 80 147 60 c 0,89,90
 160 41 160 41 160 16 c 0,91,92
 159 -18 159 -18 137 -41 c 0,93,94
 114 -63 114 -63 80 -64 c 0,95,96
 46 -63 46 -63 23 -41 c 0,97,98
 1 -18 1 -18 0 16 c 0,99,100
 0 41 0 41 13 60 c 0,101,102
 26 80 26 80 48 89 c 1,103,-1
 48 256 l 1,104,-1
 48 256 l 1,105,106
 49 310 49 310 85 347 c 0,107,108
 122 383 122 383 176 384 c 2,109,-1
 192 384 l 1,110,-1
 192 384 l 1,111,-1
 192 424 l 1,112,-1
 192 424 l 1,61,62
56 16 m 1,113,114
 58 -6 58 -6 80 -8 c 0,115,116
 102 -6 102 -6 104 16 c 0,117,118
 102 38 102 38 80 40 c 0,119,120
 58 38 58 38 56 16 c 1,121,-1
 56 16 l 1,113,114
EndSplineSet
EndChar

StartChar: code-fork
Encoding: 57659 57659 102
Width: 448
GlyphClass: 1
Flags: W
LayerCount: 2
Fore
SplineSet
80 344 m 1,0,1
 102 346 102 346 104 368 c 0,2,3
 102 390 102 390 80 392 c 0,4,5
 58 390 58 390 56 368 c 0,6,7
 58 346 58 346 80 344 c 1,8,-1
 80 344 l 1,0,1
160 368 m 1,9,10
 160 343 160 343 147 324 c 1,11,-1
 147 324 l 1,12,-1
 147 324 l 1,13,14
 134 304 134 304 112 295 c 1,15,-1
 112 256 l 1,16,-1
 112 256 l 1,17,18
 112 242 112 242 121 233 c 256,19,20
 130 224 130 224 144 224 c 2,21,-1
 304 224 l 1,22,-1
 304 224 l 1,23,24
 318 224 318 224 327 233 c 256,25,26
 336 242 336 242 336 256 c 2,27,-1
 336 295 l 1,28,-1
 336 295 l 1,29,30
 314 304 314 304 301 324 c 0,31,32
 288 343 288 343 288 368 c 0,33,34
 289 402 289 402 311 425 c 0,35,36
 334 447 334 447 368 448 c 0,37,38
 402 447 402 447 425 425 c 0,39,40
 447 402 447 402 448 368 c 0,41,42
 448 343 448 343 435 324 c 0,43,44
 422 304 422 304 400 295 c 1,45,-1
 400 256 l 1,46,-1
 400 256 l 1,47,48
 399 215 399 215 372 188 c 256,49,50
 345 161 345 161 304 160 c 2,51,-1
 256 160 l 1,52,-1
 256 160 l 1,53,-1
 256 89 l 1,54,-1
 256 89 l 1,55,56
 278 80 278 80 291 60 c 0,57,58
 304 41 304 41 304 16 c 0,59,60
 303 -18 303 -18 281 -41 c 0,61,62
 258 -63 258 -63 224 -64 c 0,63,64
 190 -63 190 -63 167 -41 c 0,65,66
 145 -18 145 -18 144 16 c 0,67,68
 144 41 144 41 157 60 c 0,69,70
 170 80 170 80 192 89 c 1,71,-1
 192 160 l 1,72,-1
 192 160 l 1,73,-1
 144 160 l 1,74,-1
 144 160 l 1,75,76
 103 161 103 161 76 188 c 256,77,78
 49 215 49 215 48 256 c 2,79,-1
 48 295 l 1,80,-1
 48 295 l 1,81,82
 26 304 26 304 13 324 c 0,83,84
 0 343 0 343 0 368 c 0,85,86
 1 402 1 402 23 425 c 0,87,88
 46 447 46 447 80 448 c 0,89,90
 114 447 114 447 137 425 c 0,91,92
 159 402 159 402 160 368 c 1,93,-1
 160 368 l 1,9,10
368 344 m 1,94,95
 390 346 390 346 392 368 c 0,96,97
 390 390 390 390 368 392 c 0,98,99
 346 390 346 390 344 368 c 0,100,101
 346 346 346 346 368 344 c 1,102,-1
 368 344 l 1,94,95
248 16 m 1,103,104
 246 38 246 38 224 40 c 0,105,106
 202 38 202 38 200 16 c 0,107,108
 202 -6 202 -6 224 -8 c 0,109,110
 246 -6 246 -6 248 16 c 1,111,-1
 248 16 l 1,103,104
EndSplineSet
EndChar

StartChar: code-pull-request
Encoding: 57660 57660 103
Width: 512
GlyphClass: 1
Flags: W
LayerCount: 2
Fore
SplineSet
306 446 m 1,0,1
 319 439 319 439 320 424 c 2,2,-1
 320 384 l 1,3,-1
 320 384 l 1,4,-1
 336 384 l 1,5,-1
 336 384 l 1,6,7
 390 383 390 383 427 347 c 0,8,9
 463 310 463 310 464 256 c 2,10,-1
 464 89 l 1,11,-1
 464 89 l 1,12,13
 486 80 486 80 499 60 c 0,14,15
 512 41 512 41 512 16 c 0,16,17
 511 -18 511 -18 489 -41 c 0,18,19
 466 -63 466 -63 432 -64 c 0,20,21
 398 -63 398 -63 375 -41 c 0,22,23
 353 -18 353 -18 352 16 c 0,24,25
 352 41 352 41 365 60 c 0,26,27
 378 80 378 80 400 89 c 1,28,-1
 400 256 l 1,29,-1
 400 256 l 1,30,31
 399 283 399 283 381 301 c 256,32,33
 363 319 363 319 336 320 c 2,34,-1
 320 320 l 1,35,-1
 320 320 l 1,36,-1
 320 280 l 1,37,-1
 320 280 l 1,38,39
 319 265 319 265 306 258 c 0,40,41
 292 253 292 253 280 262 c 2,42,-1
 200 334 l 1,43,-1
 200 334 l 1,44,45
 192 341 192 341 192 352 c 256,46,47
 192 363 192 363 200 370 c 2,48,-1
 280 442 l 1,49,-1
 280 442 l 1,50,51
 292 451 292 451 306 446 c 1,52,-1
 306 446 l 1,0,1
104 368 m 1,53,54
 102 390 102 390 80 392 c 0,55,56
 58 390 58 390 56 368 c 0,57,58
 58 346 58 346 80 344 c 0,59,60
 102 346 102 346 104 368 c 1,61,-1
 104 368 l 1,53,54
112 295 m 1,62,-1
 112 89 l 1,63,-1
 112 295 l 1,64,-1
 112 89 l 1,65,66
 134 80 134 80 147 60 c 0,67,68
 160 41 160 41 160 16 c 0,69,70
 159 -18 159 -18 137 -40 c 0,71,72
 114 -63 114 -63 80 -64 c 0,73,74
 46 -63 46 -63 23 -40 c 0,75,76
 1 -18 1 -18 0 16 c 0,77,78
 0 41 0 41 13 60 c 0,79,80
 26 80 26 80 48 89 c 1,81,-1
 48 295 l 1,82,-1
 48 295 l 1,83,84
 26 304 26 304 13 324 c 0,85,86
 0 343 0 343 0 368 c 0,87,88
 1 402 1 402 23 425 c 0,89,90
 46 447 46 447 80 448 c 0,91,92
 114 447 114 447 137 425 c 0,93,94
 159 402 159 402 160 368 c 0,95,96
 160 343 160 343 147 324 c 0,97,98
 134 304 134 304 112 295 c 1,99,-1
 112 295 l 1,62,-1
104 16 m 1,100,101
 102 38 102 38 80 40 c 0,102,103
 58 38 58 38 56 16 c 0,104,105
 58 -6 58 -6 80 -8 c 0,106,107
 102 -6 102 -6 104 16 c 1,108,-1
 104 16 l 1,100,101
432 -8 m 1,109,110
 454 -6 454 -6 456 16 c 0,111,112
 454 38 454 38 432 40 c 0,113,114
 410 38 410 38 408 16 c 0,115,116
 410 -6 410 -6 432 -8 c 1,117,-1
 432 -8 l 1,109,110
EndSplineSet
EndChar

StartChar: colon-sign
Encoding: 57664 57664 104
Width: 384
GlyphClass: 1
Flags: W
LayerCount: 2
Fore
SplineSet
255 408 m 1,0,1
 258 421 258 421 251 432 c 1,2,-1
 251 432 l 1,3,-1
 251 432 l 1,4,5
 245 443 245 443 232 447 c 0,6,7
 218 450 218 450 207 443 c 0,8,9
 197 437 197 437 193 424 c 2,10,-1
 182 379 l 1,11,-1
 182 379 l 1,12,13
 116 364 116 364 75 313 c 0,14,15
 33 262 33 262 32 192 c 0,16,17
 32 148 32 148 50 111 c 0,18,19
 68 73 68 73 99 47 c 1,20,-1
 81 -24 l 1,21,-1
 81 -24 l 1,22,23
 78 -37 78 -37 85 -48 c 0,24,25
 91 -59 91 -59 104 -63 c 0,26,27
 118 -66 118 -66 129 -59 c 0,28,29
 139 -53 139 -53 143 -40 c 2,30,-1
 156 12 l 1,31,-1
 156 12 l 1,32,33
 170 7 170 7 184 4 c 1,34,-1
 177 -24 l 1,35,-1
 177 -24 l 1,36,37
 174 -37 174 -37 181 -48 c 0,38,39
 187 -59 187 -59 200 -63 c 0,40,41
 214 -66 214 -66 225 -59 c 0,42,43
 235 -53 235 -53 239 -40 c 2,44,-1
 250 2 l 1,45,-1
 250 2 l 1,46,47
 300 9 300 9 339 38 c 0,48,49
 350 47 350 47 352 59 c 0,50,51
 354 72 354 72 346 83 c 0,52,53
 337 94 337 94 325 96 c 0,54,55
 312 97 312 97 301 90 c 0,56,57
 285 78 285 78 267 71 c 1,58,-1
 321 288 l 1,59,-1
 321 288 l 1,60,61
 336 289 336 289 346 301 c 0,62,63
 353 312 353 312 352 325 c 0,64,65
 350 337 350 337 339 346 c 1,66,67
 339 346 339 346 338 346 c 0,68,69
 337 347 337 347 336 348 c 2,70,-1
 351 408 l 1,71,-1
 351 408 l 1,72,73
 354 421 354 421 347 432 c 0,74,75
 341 443 341 443 328 447 c 0,76,77
 314 450 314 450 303 443 c 0,78,79
 293 437 293 437 289 424 c 2,80,-1
 277 376 l 1,81,-1
 277 376 l 1,82,83
 263 380 263 380 249 382 c 1,84,-1
 255 408 l 1,85,-1
 255 408 l 1,0,1
163 305 m 1,86,-1
 117 121 l 1,87,-1
 163 305 l 1,88,-1
 117 121 l 1,89,90
 97 152 97 152 96 192 c 0,91,92
 96 229 96 229 115 258 c 0,93,94
 133 288 133 288 163 305 c 1,95,-1
 163 305 l 1,86,-1
172 75 m 1,96,-1
 233 320 l 1,97,-1
 172 75 l 1,98,-1
 233 320 l 1,99,100
 248 319 248 319 262 315 c 1,101,-1
 200 66 l 1,102,-1
 200 66 l 1,103,104
 185 69 185 69 172 75 c 1,105,-1
 172 75 l 1,96,-1
EndSplineSet
EndChar

StartChar: cruzeiro-sign
Encoding: 57682 57682 105
Width: 448
GlyphClass: 1
Flags: W
LayerCount: 2
Fore
SplineSet
96 192 m 1,0,1
 98 260 98 260 143 305 c 1,2,-1
 143 305 l 1,3,-1
 143 305 l 1,4,5
 188 350 188 350 256 352 c 0,6,7
 319 351 319 351 363 311 c 0,8,9
 373 302 373 302 386 303 c 256,10,11
 399 304 399 304 408 314 c 256,12,13
 417 324 417 324 416 337 c 256,14,15
 415 350 415 350 405 359 c 0,16,17
 344 414 344 414 256 416 c 0,18,19
 193 415 193 415 143 385 c 0,20,21
 92 356 92 356 63 305 c 0,22,23
 33 255 33 255 32 192 c 0,24,25
 33 129 33 129 63 79 c 0,26,27
 92 28 92 28 143 -1 c 0,28,29
 193 -31 193 -31 256 -32 c 0,30,31
 344 -30 344 -30 405 25 c 0,32,33
 415 34 415 34 416 47 c 256,34,35
 417 60 417 60 408 70 c 0,36,37
 398 80 398 80 386 81 c 0,38,39
 373 82 373 82 363 73 c 0,40,41
 319 33 319 33 256 32 c 1,42,-1
 256 128 l 1,43,-1
 256 128 l 1,44,-1
 256 137 l 1,45,-1
 256 137 l 1,46,47
 258 158 258 158 279 160 c 0,48,49
 286 160 286 160 292 156 c 2,50,-1
 302 149 l 1,51,-1
 302 149 l 1,52,53
 314 142 314 142 326 145 c 0,54,55
 339 147 339 147 347 158 c 0,56,57
 354 170 354 170 351 182 c 0,58,59
 349 195 349 195 338 203 c 2,60,-1
 328 209 l 1,61,-1
 328 209 l 1,62,63
 306 224 306 224 279 224 c 0,64,65
 261 224 261 224 244 217 c 1,66,67
 236 224 236 224 224 224 c 0,68,69
 210 224 210 224 201 215 c 256,70,71
 192 206 192 206 192 192 c 2,72,-1
 192 137 l 1,73,-1
 192 137 l 1,74,-1
 192 128 l 1,75,-1
 192 128 l 1,76,-1
 192 45 l 1,77,-1
 192 45 l 1,78,79
 149 65 149 65 123 103 c 0,80,81
 97 142 97 142 96 192 c 1,82,-1
 96 192 l 1,0,1
EndSplineSet
EndChar

StartChar: display
Encoding: 57699 57699 106
Width: 576
GlyphClass: 1
Flags: W
LayerCount: 2
Fore
SplineSet
64 448 m 1,0,1
 37 447 37 447 19 429 c 1,2,-1
 19 429 l 1,3,-1
 19 429 l 1,4,5
 1 411 1 411 0 384 c 2,6,-1
 0 96 l 1,7,-1
 0 96 l 1,8,9
 1 69 1 69 19 51 c 256,10,11
 37 33 37 33 64 32 c 2,12,-1
 240 32 l 1,13,-1
 240 32 l 1,14,-1
 229 0 l 1,15,-1
 229 0 l 1,16,-1
 160 0 l 1,17,-1
 160 0 l 1,18,19
 146 0 146 0 137 -9 c 256,20,21
 128 -18 128 -18 128 -32 c 256,22,23
 128 -46 128 -46 137 -55 c 256,24,25
 146 -64 146 -64 160 -64 c 2,26,-1
 416 -64 l 1,27,-1
 416 -64 l 1,28,29
 430 -64 430 -64 439 -55 c 256,30,31
 448 -46 448 -46 448 -32 c 256,32,33
 448 -18 448 -18 439 -9 c 256,34,35
 430 0 430 0 416 0 c 2,36,-1
 347 0 l 1,37,-1
 347 0 l 1,38,-1
 336 32 l 1,39,-1
 336 32 l 1,40,-1
 512 32 l 1,41,-1
 512 32 l 1,42,43
 539 33 539 33 557 51 c 256,44,45
 575 69 575 69 576 96 c 2,46,-1
 576 384 l 1,47,-1
 576 384 l 1,48,49
 575 411 575 411 557 429 c 256,50,51
 539 447 539 447 512 448 c 2,52,-1
 64 448 l 1,53,-1
 64 448 l 1,0,1
512 384 m 1,54,-1
 512 96 l 1,55,-1
 512 384 l 1,56,-1
 512 96 l 1,57,-1
 64 96 l 1,58,-1
 64 96 l 1,59,-1
 64 384 l 1,60,-1
 64 384 l 1,61,-1
 512 384 l 1,62,-1
 512 384 l 1,54,-1
EndSplineSet
EndChar

StartChar: dong-sign
Encoding: 57705 57705 107
Width: 384
GlyphClass: 1
Flags: W
LayerCount: 2
Fore
SplineSet
288 416 m 1,0,1
 274 416 274 416 265 407 c 1,2,-1
 265 407 l 1,3,-1
 265 407 l 1,4,5
 256 398 256 398 256 384 c 1,6,-1
 224 384 l 1,7,-1
 224 384 l 1,8,9
 210 384 210 384 201 375 c 256,10,11
 192 366 192 366 192 352 c 256,12,13
 192 338 192 338 201 329 c 256,14,15
 210 320 210 320 224 320 c 2,16,-1
 256 320 l 1,17,-1
 256 320 l 1,18,-1
 256 271 l 1,19,-1
 256 271 l 1,20,21
 227 288 227 288 192 288 c 0,22,23
 138 287 138 287 101 251 c 0,24,25
 65 214 65 214 64 160 c 0,26,27
 65 106 65 106 101 69 c 0,28,29
 138 33 138 33 192 32 c 0,30,31
 229 32 229 32 259 51 c 1,32,33
 267 33 267 33 288 32 c 0,34,35
 302 32 302 32 311 41 c 256,36,37
 320 50 320 50 320 64 c 2,38,-1
 320 160 l 1,39,-1
 320 160 l 1,40,-1
 320 320 l 1,41,-1
 320 320 l 1,42,43
 334 320 334 320 343 329 c 256,44,45
 352 338 352 338 352 352 c 256,46,47
 352 366 352 366 343 375 c 256,48,49
 334 384 334 384 320 384 c 1,50,51
 320 398 320 398 311 407 c 256,52,53
 302 416 302 416 288 416 c 1,54,-1
 288 416 l 1,0,1
128 160 m 1,55,56
 129 196 129 196 160 215 c 0,57,58
 192 233 192 233 224 215 c 0,59,60
 255 196 255 196 256 160 c 0,61,62
 255 124 255 124 224 105 c 0,63,64
 192 87 192 87 160 105 c 0,65,66
 129 124 129 124 128 160 c 1,67,-1
 128 160 l 1,55,56
32 0 m 1,68,69
 18 0 18 0 9 -9 c 1,70,-1
 9 -9 l 1,71,-1
 9 -9 l 1,72,73
 0 -18 0 -18 0 -32 c 256,74,75
 0 -46 0 -46 9 -55 c 256,76,77
 18 -64 18 -64 32 -64 c 2,78,-1
 352 -64 l 1,79,-1
 352 -64 l 1,80,81
 366 -64 366 -64 375 -55 c 256,82,83
 384 -46 384 -46 384 -32 c 256,84,85
 384 -18 384 -18 375 -9 c 256,86,87
 366 0 366 0 352 0 c 2,88,-1
 32 0 l 1,89,-1
 32 0 l 1,68,69
EndSplineSet
EndChar

StartChar: elevator
Encoding: 57709 57709 108
Width: 512
GlyphClass: 1
Flags: W
LayerCount: 2
Fore
SplineSet
133 443 m 1,0,-1
 69 379 l 1,1,-1
 133 443 l 1,2,-1
 69 379 l 2,3,4
 62 372 62 372 65 362 c 0,5,6
 70 353 70 353 80 352 c 2,7,-1
 208 352 l 1,8,-1
 208 352 l 1,9,10
 218 352 218 352 223 362 c 0,11,12
 226 372 226 372 219 379 c 2,13,-1
 155 443 l 1,14,-1
 155 443 l 1,15,16
 144 453 144 453 133 443 c 1,17,-1
 133 443 l 1,0,-1
64 320 m 1,18,19
 37 319 37 319 19 301 c 1,20,-1
 19 301 l 1,21,-1
 19 301 l 1,22,23
 1 283 1 283 0 256 c 2,24,-1
 0 0 l 1,25,-1
 0 0 l 1,26,27
 1 -27 1 -27 19 -45 c 256,28,29
 37 -63 37 -63 64 -64 c 2,30,-1
 448 -64 l 1,31,-1
 448 -64 l 1,32,33
 475 -63 475 -63 493 -45 c 256,34,35
 511 -27 511 -27 512 0 c 2,36,-1
 512 256 l 1,37,-1
 512 256 l 1,38,39
 511 283 511 283 493 301 c 256,40,41
 475 319 475 319 448 320 c 2,42,-1
 64 320 l 1,43,-1
 64 320 l 1,18,19
160 224 m 1,44,45
 187 223 187 223 202 200 c 0,46,47
 214 176 214 176 202 152 c 0,48,49
 187 129 187 129 160 128 c 0,50,51
 133 129 133 129 118 152 c 0,52,53
 106 176 106 176 118 200 c 0,54,55
 133 223 133 223 160 224 c 1,56,-1
 160 224 l 1,44,45
80 48 m 1,57,58
 81 68 81 68 94 82 c 1,59,-1
 94 82 l 1,60,-1
 94 82 l 1,61,62
 108 95 108 95 128 96 c 2,63,-1
 192 96 l 1,64,-1
 192 96 l 1,65,66
 212 95 212 95 226 82 c 0,67,68
 239 68 239 68 240 48 c 2,69,-1
 240 32 l 1,70,-1
 240 32 l 1,71,72
 240 18 240 18 231 9 c 256,73,74
 222 0 222 0 208 0 c 2,75,-1
 112 0 l 1,76,-1
 112 0 l 1,77,78
 98 0 98 0 89 9 c 256,79,80
 80 18 80 18 80 32 c 2,81,-1
 80 48 l 1,82,-1
 80 48 l 1,57,58
272 48 m 1,83,84
 273 68 273 68 286 82 c 1,85,-1
 286 82 l 1,86,-1
 286 82 l 1,87,88
 300 95 300 95 320 96 c 2,89,-1
 384 96 l 1,90,-1
 384 96 l 1,91,92
 404 95 404 95 418 82 c 0,93,94
 431 68 431 68 432 48 c 2,95,-1
 432 32 l 1,96,-1
 432 32 l 1,97,98
 432 18 432 18 423 9 c 256,99,100
 414 0 414 0 400 0 c 2,101,-1
 304 0 l 1,102,-1
 304 0 l 1,103,104
 290 0 290 0 281 9 c 256,105,106
 272 18 272 18 272 32 c 2,107,-1
 272 48 l 1,108,-1
 272 48 l 1,83,84
304 176 m 1,109,110
 305 203 305 203 328 218 c 0,111,112
 352 230 352 230 376 218 c 0,113,114
 399 203 399 203 400 176 c 0,115,116
 399 149 399 149 376 134 c 0,117,118
 352 122 352 122 328 134 c 0,119,120
 305 149 305 149 304 176 c 1,121,-1
 304 176 l 1,109,110
357 357 m 1,122,123
 368 347 368 347 379 357 c 2,124,-1
 443 421 l 1,125,-1
 443 421 l 1,126,127
 450 428 450 428 447 438 c 0,128,129
 442 447 442 447 432 448 c 2,130,-1
 304 448 l 1,131,-1
 304 448 l 1,132,133
 294 448 294 448 289 438 c 0,134,135
 286 428 286 428 293 421 c 2,136,-1
 357 357 l 1,137,-1
 357 357 l 1,122,123
EndSplineSet
EndChar

StartChar: filter-circle-xmark
Encoding: 57723 57723 109
Width: 576
GlyphClass: 1
Flags: W
LayerCount: 2
Fore
SplineSet
4 425 m 1,0,1
 15 447 15 447 40 448 c 2,2,-1
 472 448 l 1,3,-1
 472 448 l 1,4,5
 497 447 497 447 508 425 c 0,6,7
 518 402 518 402 503 383 c 2,8,-1
 396 252 l 1,9,-1
 396 252 l 1,10,11
 335 239 335 239 296 192 c 256,12,13
 257 145 257 145 256 80 c 0,14,15
 256 39 256 39 274 3 c 1,16,17
 271 5 271 5 269 6 c 2,18,-1
 205 54 l 1,19,-1
 205 54 l 1,20,21
 192 64 192 64 192 80 c 2,22,-1
 192 159 l 1,23,-1
 192 159 l 1,24,-1
 9 383 l 1,25,-1
 9 383 l 1,26,27
 -6 402 -6 402 4 425 c 1,28,-1
 4 425 l 1,0,1
432 224 m 1,29,30
 471 224 471 224 504 205 c 1,31,-1
 504 205 l 1,32,-1
 504 205 l 1,33,34
 537 186 537 186 557 152 c 0,35,36
 576 118 576 118 576 80 c 256,37,38
 576 42 576 42 557 8 c 0,39,40
 537 -26 537 -26 504 -45 c 256,41,42
 471 -64 471 -64 432 -64 c 256,43,44
 393 -64 393 -64 360 -45 c 256,45,46
 327 -26 327 -26 307 8 c 0,47,48
 288 42 288 42 288 80 c 256,49,50
 288 118 288 118 307 152 c 0,51,52
 327 186 327 186 360 205 c 256,53,54
 393 224 393 224 432 224 c 1,55,-1
 432 224 l 1,29,30
491 117 m 1,56,57
 501 128 501 128 491 139 c 0,58,59
 480 149 480 149 469 139 c 2,60,-1
 432 103 l 1,61,-1
 432 103 l 1,62,-1
 395 139 l 1,63,-1
 395 139 l 1,64,65
 384 149 384 149 373 139 c 0,66,67
 363 128 363 128 373 117 c 2,68,-1
 409 80 l 1,69,-1
 409 80 l 1,70,-1
 373 43 l 1,71,-1
 373 43 l 1,72,73
 363 32 363 32 373 21 c 0,74,75
 384 11 384 11 395 21 c 2,76,-1
 432 57 l 1,77,-1
 432 57 l 1,78,-1
 469 21 l 1,79,-1
 469 21 l 1,80,81
 480 11 480 11 491 21 c 0,82,83
 501 32 501 32 491 43 c 2,84,-1
 455 80 l 1,85,-1
 455 80 l 1,86,-1
 491 117 l 1,87,-1
 491 117 l 1,56,57
EndSplineSet
EndChar

